0
SECTION
2
ENTITIES
0
CIRCLE
8
1
62
1
10
1.169162
20
4.172500
30
0.0
40
0.226500
0
ARC
8
1
62
3
10
1.169162
20
4.172500
30
0.0
40
0.562500
50
-5.451390
51
167.218201
0
LINE
8
1
62
3
10
1.543528
20
2.174341
30
0.0
11
1.729118
21
4.119062
31
0.0
0
CIRCLE
8
1
62
1
10
0.323222
20
1.327500
30
0.0
40
0.167500
0
CIRCLE
8
1
62
1
10
1.317228
20
1.327500
30
0.0
40
0.167500
0
CIRCLE
8
1
62
1
10
1.122638
20
0.327500
30
0.0
40
0.167500
0
ARC
8
1
62
3
10
3.534482
20
1.984339
30
0.0
40
2.000000
50
-163.498627
51
-154.581421
0
ARC
8
1
62
3
10
3.534482
20
1.984339
30
0.0
40
2.000000
50
174.548630
51
196.501373
0
LINE
8
1
62
3
10
0.064561
20
1.845930
30
0.0
11
0.620601
21
4.296947
31
0.0
0
ARC
8
1
62
3
10
2.015000
20
1.403452
30
0.0
40
2.000000
50
167.218155
51
187.387878
0
LINE
8
1
62
3
10
0.031603
20
1.146279
30
0.0
11
0.142979
21
0.287317
31
0.0
0
ARC
8
1
62
3
10
0.452885
20
0.327500
30
0.0
40
0.312500
50
-172.612152
51
-90.000000
0
LINE
8
1
62
3
10
1.728090
20
1.125884
30
0.0
11
2.043763
21
0.461634
31
0.0
0
LINE
8
1
62
3
10
0.452885
20
0.015000
30
0.0
11
1.761514
21
0.015000
31
0.0
0
ARC
8
1
62
3
10
1.761514
20
0.327500
30
0.0
40
0.312500
50
-90.000000
51
25.418610
0
CIRCLE
8
1
62
3
10
3.544162
20
4.172500
30
0.0
40
0.226500
0
ARC
8
1
62
3
10
3.544162
20
4.172500
30
0.0
40
0.562500
50
-5.451391
51
167.218201
0
LINE
8
1
62
3
10
3.918528
20
2.174341
30
0.0
11
4.104118
21
4.119062
31
0.0
0
CIRCLE
8
1
62
3
10
2.698222
20
1.327500
30
0.0
40
0.167500
0
CIRCLE
8
1
62
3
10
3.692228
20
1.327500
30
0.0
40
0.167500
0
CIRCLE
8
1
62
3
10
3.497638
20
0.327500
30
0.0
40
0.167500
0
ARC
8
1
62
3
10
5.909482
20
1.984339
30
0.0
40
2.000000
50
-163.498627
51
-154.581451
0
ARC
8
1
62
3
10
5.909482
20
1.984339
30
0.0
40
2.000000
50
174.548630
51
196.501373
0
LINE
8
1
62
5
10
2.439561
20
1.845930
30
0.0
11
2.995601
21
4.296947
31
0.0
0
ARC
8
1
62
3
10
4.390000
20
1.403452
30
0.0
40
2.000000
50
167.218155
51
187.387894
0
LINE
8
1
62
3
10
2.406603
20
1.146279
30
0.0
11
2.517979
21
0.287317
31
0.0
0
ARC
8
1
62
3
10
2.827885
20
0.327500
30
0.0
40
0.312500
50
-172.612152
51
-90.000000
0
LINE
8
1
62
3
10
4.103090
20
1.125884
30
0.0
11
4.418763
21
0.461634
31
0.0
0
LINE
8
1
62
3
10
2.827885
20
0.015000
30
0.0
11
4.136514
21
0.015000
31
0.0
0
ARC
8
1
62
3
10
4.136514
20
0.327500
30
0.0
40
0.312500
50
-90.000000
51
25.418610
0
ENDSEC
0
EOF
