/* XPM */
static const char * icon_xpm[] = {
"32 32 6 1",
" 	c None",
".	c #000000",
"+	c #808080",
"@	c #80827D",
"#	c #8CEC00",
"$	c #8DF400",
"........+..+++............++++..",
"..........++++............++++..",
".......+.++++.............++++..",
".........+++.++............+++..",
"........+++.@#.........##+.+++..",
"......+.++++..#########.#+.++...",
"........+++..###########...++.+.",
".......++++..###########..+++...",
".......+++...############.+++...",
".......+++.+############..+++...",
"......++++..############..++++..",
".....++++..#######.#####.++++...",
"....+.+++.+.############.++++...",
"...+.+++..+.###########..+++++..",
"....++++.+..###########..++++...",
"....+++.+..############...+++...",
"...++++..#.############$.+++++..",
"...++++..#.###########..+++++...",
"..+.+++....#########..#++++.....",
"....+++...######.....#+++++.+...",
"..+.+++.#.######......++++.+....",
"..+.++....######.......+++.+....",
"...+++.+.#######.......+++......",
"...+++.#.######......+.++.......",
".+.+++...######.#.....+++.+.....",
"...++++.#######.#.....+++.......",
"..+++++.#######.....+.++........",
"..+++.+.######........++........",
"..++++.............+.+++........",
"..++++...........+.++++.+.......",
"..++++...........+.++++.+.......",
"...++++............+++++........"};
