0
SECTION
2
ENTITIES
0
LINE
8
1
62
3
10
-1.28109
20
2.7325
30
0
11
-1.28109
21
1.8315
31
0
0
LINE
8
1
62
3
10
1.28091
20
2.7325
30
0
11
1.28091
21
1.8315
31
0
0
LINE
8
1
62
3
10
1.41491
20
2.2635
30
0
11
-1.41509
21
2.2635
31
0
0
CIRCLE
8
1
62
3
10
-1.3976
20
1.92176
30
0
40
0.0665
0
CIRCLE
8
1
62
3
10
1.39771
20
1.92177
30
0
40
0.0665
0
CIRCLE
8
1
62
3
10
-1.39762
20
-1.92173
30
0
40
0.0665
0
ARC
8
1
62
3
10
-1.42491
20
1.92499
30
0
40
0.15
50
90
51
180
0
LINE
8
1
62
3
10
-1.42491
20
2.07499
30
0
11
1.42491
21
2.07499
31
0
0
ARC
8
1
62
3
10
1.42491
20
1.92499
30
0
40
0.15
50
0
51
90
0
LINE
8
1
62
3
10
1.57491
20
1.92499
30
0
11
1.57491
21
-1.92499
31
0
0
ARC
8
1
62
3
10
1.42491
20
-1.92499
30
0
40
0.15
50
-90
51
0
0
LINE
8
1
62
3
10
1.42491
20
-2.07499
30
0
11
-1.42491
21
-2.07499
31
0
0
LINE
8
1
62
3
10
-1.57491
20
-1.92499
30
0
11
-1.57491
21
1.92499
31
0
0
ARC
8
1
62
3
10
-1.42491
20
-1.92499
30
0
40
0.15
50
180
51
270
0
CIRCLE
8
1
62
3
10
1.39766
20
-1.92173
30
0
40
0.0665
0
ARC
8
1
62
3
10
-2.125
20
0.70711
30
0
40
0.25
50
-45
51
0
0
LINE
8
1
62
3
10
-1.94822
20
0.53033
30
0
11
-2.30178
21
0.17678
31
0
0
ARC
8
1
62
3
10
-2.125
20
0
30
0
40
0.25
50
135
51
180
0
ARC
8
1
62
3
10
-2.125
20
-0.70711
30
0
40
0.25
50
0
51
44.9998
0
LINE
8
1
62
3
10
-1.94822
20
-0.53033
30
0
11
-2.30178
21
-0.17678
31
0
0
ARC
8
1
62
3
10
-2.125
20
0
30
0
40
0.25
50
180
51
225
0
ARC
8
1
62
3
10
2.125
20
0.70711
30
0
40
0.25
50
180
51
225
0
LINE
8
1
62
3
10
1.94822
20
0.53033
30
0
11
2.30178
21
0.17678
31
0
0
ARC
8
1
62
3
10
2.125
20
0
30
0
40
0.25
50
0
51
45
0
LINE
8
1
62
3
10
1.94822
20
-0.53033
30
0
11
2.30178
21
-0.17678
31
0
0
ARC
8
1
62
3
10
2.125
20
0
30
0
40
0.25
50
-45
51
0
0
CIRCLE
8
1
62
3
10
-2.125
20
0
30
0
40
0.1325
0
CIRCLE
8
1
62
3
10
2.125
20
0
30
0
40
0.1325
0
ARC
8
1
62
3
10
2.125
20
-0.70711
30
0
40
0.25
50
135
51
180
0
LINE
8
1
62
3
10
-1.875
20
2.211
30
0
11
-1.875
21
0.70711
31
0
0
ARC
8
1
62
3
10
-1.6875
20
2.211
30
0
40
0.1875
50
90
51
180
0
LINE
8
1
62
3
10
1.6875
20
2.3985
30
0
11
0
21
2.3985
31
0
0
LINE
8
1
62
3
10
1.875
20
2.211
30
0
11
1.875
21
0.70711
31
0
0
ARC
8
1
62
3
10
1.6875
20
2.211
30
0
40
0.1875
50
0
51
90
0
LINE
8
1
62
3
10
-1.6875
20
-2.3985
30
0
11
1.6875
21
-2.3985
31
0
0
LINE
8
1
62
3
10
-1.875
20
-2.211
30
0
11
-1.875
21
-0.70711
31
0
0
ARC
8
1
62
3
10
-1.6875
20
-2.211
30
0
40
0.1875
50
180
51
270
0
CIRCLE
8
1
62
3
10
-1.6875
20
2.211
30
0
40
0.083
0
CIRCLE
8
1
62
3
10
1.6875
20
2.211
30
0
40
0.083
0
CIRCLE
8
1
62
3
10
1.6875
20
-2.211
30
0
40
0.083
0
CIRCLE
8
1
62
3
10
-1.6875
20
-2.211
30
0
40
0.083
0
CIRCLE
8
1
62
3
10
-1.6875
20
2.211
30
0
40
0.068
0
CIRCLE
8
1
62
3
10
1.6875
20
2.211
30
0
40
0.068
0
CIRCLE
8
1
62
3
10
1.6875
20
-2.211
30
0
40
0.068
0
CIRCLE
8
1
62
3
10
-1.6875
20
-2.211
30
0
40
0.068
0
ARC
8
1
62
3
10
1.6875
20
-2.211
30
0
40
0.1875
50
-90
51
0
0
LINE
8
1
62
1
10
-2.5
20
2.5
30
0
11
-2.5
21
-2.5
31
0
0
LINE
8
1
62
1
10
2.5
20
2.5
30
0
11
2.5
21
-2.5
31
0
0
LINE
8
1
62
5
10
-2.875
20
-2.5
30
0
11
-2.875
21
2.5
31
0
0
LINE
8
1
62
5
10
-2.875
20
-2.5
30
0
11
2.875
21
-2.5
31
0
0
LINE
8
1
62
5
10
2.875
20
-2.5
30
0
11
2.875
21
2.5
31
0
0
LINE
8
1
62
5
10
-2.875
20
2.5
30
0
11
2.875
21
2.5
31
0
0
LINE
8
1
62
3
10
4.685
20
-2.3985
30
0
11
4.685
21
2.3985
31
0
0
LINE
8
1
62
3
10
3.385
20
-2.3985
30
0
11
4.685
21
-2.3985
31
0
0
LINE
8
1
62
3
10
3.385
20
-2.3985
30
0
11
3.385
21
2.3985
31
0
0
LINE
8
1
62
3
10
-1.611
20
1.48133
30
0
11
-0.91583
21
2.1765
31
0
0
LINE
8
1
62
3
10
-0.96783
20
-2.1245
30
0
11
-1.611
21
-1.48133
31
0
0
LINE
8
1
62
3
10
0.91583
20
2.1765
30
0
11
-0.91583
21
2.1765
31
0
0
LINE
8
1
62
3
10
1.611
20
1.48133
30
0
11
0.91583
21
2.1765
31
0
0
LINE
8
1
62
3
10
0.96783
20
-2.1245
30
0
11
1.611
21
-1.48133
31
0
0
ARC
8
1
62
3
10
-1.413
20
2.0315
30
0
40
0.2
50
90
51
180
0
LINE
8
1
62
3
10
1.413
20
2.2315
30
0
11
-1.413
21
2.2315
31
0
0
ARC
8
1
62
3
10
1.413
20
2.0315
30
0
40
0.2
50
0
51
90
0
ARC
8
1
62
3
10
1.413
20
-1.9265
30
0
40
0.2
50
-90
51
0
0
ARC
8
1
62
3
10
-1.413
20
-1.9265
30
0
40
0.2
50
180
51
270
0
LINE
8
1
62
3
10
3.385
20
2.3985
30
0
11
4.685
21
2.3985
31
0
0
LINE
8
1
62
3
10
4.234
20
2.2315
30
0
11
4.234
21
2.2635
31
0
0
LINE
8
1
62
3
10
4.234
20
2.2315
30
0
11
4.45
21
2.2315
31
0
0
LINE
8
1
62
3
10
4.37
20
2.2635
30
0
11
4.37
21
2.3985
31
0
0
LINE
8
1
62
3
10
4.234
20
2.2635
30
0
11
4.37
21
2.2635
31
0
0
LINE
8
1
62
3
10
4.45
20
2.1765
30
0
11
4.575
21
2.1765
31
0
0
LINE
8
1
62
3
10
4.45
20
-2.1265
30
0
11
4.45
21
2.2315
31
0
0
LINE
8
1
62
3
10
4.575
20
-2.1265
30
0
11
4.575
21
2.1765
31
0
0
LINE
8
1
62
3
10
3.385
20
-2.1265
30
0
11
4.575
21
-2.1265
31
0
0
LINE
8
1
62
3
10
4.234
20
2.2315
30
0
11
3.385
21
2.2315
31
0
0
CIRCLE
8
1
62
3
10
-0.11806
20
1.92176
30
0
40
0.0665
0
LINE
8
1
62
3
10
-1.611
20
1.48133
30
0
11
-1.611
21
0.0525
31
0
0
LINE
8
1
62
3
10
1.611
20
1.48133
30
0
11
1.611
21
-1.48133
31
0
0
LINE
8
1
62
3
10
-0.96783
20
-2.1245
30
0
11
0.96783
21
-2.1245
31
0
0
LINE
8
1
62
3
10
-1.613
20
-1.9265
30
0
11
-1.613
21
2.0315
31
0
0
LINE
8
1
62
3
10
1.613
20
2.0315
30
0
11
1.613
21
-1.9265
31
0
0
LINE
8
1
62
3
10
1.413
20
-2.1265
30
0
11
-1.413
21
-2.1265
31
0
0
LINE
8
1
62
3
10
-1.611
20
0.0525
30
0
11
-1.611
21
-1.48133
31
0
0
LINE
8
1
62
3
10
0
20
2.3985
30
0
11
-1.6875
21
2.3985
31
0
0
LINE
8
1
62
3
10
1.28091
20
2.7325
30
0
11
-1.28109
21
2.7325
31
0
0
LINE
8
1
62
3
10
1.28091
20
1.8315
30
0
11
-1.28109
21
1.8315
31
0
0
LINE
8
1
62
3
10
1.875
20
3.3995
30
0
11
-1.875
21
3.3995
31
0
0
LINE
8
1
62
3
10
-1.875
20
3.3995
30
0
11
-1.875
21
4.6995
31
0
0
LINE
8
1
62
3
10
1.875
20
3.3995
30
0
11
1.875
21
4.6995
31
0
0
LINE
8
1
62
3
10
-2.375
20
4.4495
30
0
11
-2.375
21
4.6995
31
0
0
LINE
8
1
62
3
10
2.375
20
4.4495
30
0
11
2.375
21
4.6995
31
0
0
LINE
8
1
62
3
10
2.375
20
4.6995
30
0
11
-2.375
21
4.6995
31
0
0
LINE
8
1
62
3
10
2.375
20
4.4495
30
0
11
1.875
21
4.4495
31
0
0
LINE
8
1
62
3
10
-1.875
20
4.4495
30
0
11
-2.375
21
4.4495
31
0
0
LINE
8
1
62
3
10
-1.6875
20
3.3995
30
0
11
-1.6875
21
4.6995
31
0
0
LINE
8
1
62
3
10
1.6875
20
3.3995
30
0
11
1.6875
21
4.6995
31
0
0
LINE
8
1
62
3
10
-1.28109
20
3.3995
30
0
11
-1.28109
21
4.2485
31
0
0
LINE
8
1
62
3
10
1.28091
20
3.3995
30
0
11
1.28091
21
4.2485
31
0
0
LINE
8
1
62
3
10
1.28091
20
4.2485
30
0
11
-1.28109
21
4.2485
31
0
0
LINE
8
1
62
3
10
-1.41509
20
3.3995
30
0
11
-1.41509
21
4.28875
31
0
0
LINE
8
1
62
3
10
1.32116
20
4.3825
30
0
11
-1.32134
21
4.3825
31
0
0
ARC
8
1
62
3
10
-1.32134
20
4.28875
30
0
40
0.09375
50
90
51
180
0
LINE
8
1
62
3
10
1.41491
20
3.3995
30
0
11
1.41491
21
4.28875
31
0
0
ARC
8
1
62
3
10
1.32116
20
4.28875
30
0
40
0.09375
50
0
51
90
0
LINE
8
1
62
3
10
-1.41509
20
2.3985
30
0
11
-1.41509
21
2.2635
31
0
0
LINE
8
1
62
3
10
1.41491
20
2.3985
30
0
11
1.41491
21
2.2635
31
0
0
LINE
8
1
62
3
10
1.875
20
3.1495
30
0
11
-1.875
21
3.1495
31
0
0
LINE
8
1
62
3
10
-1.875
20
3.1495
30
0
11
-1.875
21
3.3995
31
0
0
LINE
8
1
62
3
10
1.875
20
3.1495
30
0
11
1.875
21
3.3995
31
0
0
LINE
8
1
62
3
10
1.32116
20
3.2655
30
0
11
-1.32134
21
3.2655
31
0
0
ARC
8
1
62
3
10
-1.32134
20
3.35925
30
0
40
0.09375
50
180
51
270
0
ARC
8
1
62
3
10
1.32116
20
3.35925
30
0
40
0.09375
50
-90
51
0
0
LINE
8
1
62
3
10
-1.41509
20
3.35925
30
0
11
-1.41509
21
3.3995
31
0
0
LINE
8
1
62
3
10
1.41491
20
3.35925
30
0
11
1.41499
21
3.3995
31
0
0
LINE
8
1
62
3
10
1.875
20
-0.70711
30
0
11
1.875
21
-2.211
31
0
0
LINE
8
1
62
3
10
1.875
20
0.70711
30
0
11
1.875
21
-0.70711
31
0
0
LINE
8
1
62
3
10
-1.875
20
0.70711
30
0
11
-1.875
21
-0.70711
31
0
0
ENDSEC
0
EOF
