0
SECTION
2
ENTITIES
0
LINE
8
1
62
3
10
1.59391
20
0.2325
30
0
11
1.59391
21
-0.6685
31
0
0
LINE
8
1
62
3
10
4.15591
20
0.2325
30
0
11
4.15591
21
-0.6685
31
0
0
LINE
8
1
62
3
10
4.28991
20
-0.2365
30
0
11
1.45991
21
-0.2365
31
0
0
CIRCLE
8
1
62
3
10
1.4774
20
-0.57824
30
0
40
0.0665
0
CIRCLE
8
1
62
3
10
4.27271
20
-0.57823
30
0
40
0.0665
0
CIRCLE
8
1
62
3
10
1.47738
20
-4.42173
30
0
40
0.0665
0
ARC
8
1
62
3
10
1.45009
20
-0.57501
30
0
40
0.15
50
90
51
180
0
LINE
8
1
62
3
10
1.45009
20
-0.42501
30
0
11
4.29991
21
-0.42501
31
0
0
ARC
8
1
62
3
10
4.29991
20
-0.57501
30
0
40
0.15
50
0
51
90
0
LINE
8
1
62
3
10
4.44991
20
-0.57501
30
0
11
4.44991
21
-4.42499
31
0
0
ARC
8
1
62
3
10
4.29991
20
-4.42499
30
0
40
0.15
50
-90
51
0
0
LINE
8
1
62
3
10
4.29991
20
-4.57499
30
0
11
1.45009
21
-4.57499
31
0
0
LINE
8
1
62
3
10
1.30009
20
-4.42499
30
0
11
1.30009
21
-0.57501
31
0
0
ARC
8
1
62
3
10
1.45009
20
-4.42499
30
0
40
0.15
50
180
51
270
0
CIRCLE
8
1
62
3
10
4.27266
20
-4.42173
30
0
40
0.0665
0
ARC
8
1
62
3
10
0.75
20
-1.79289
30
0
40
0.25
50
-45
51
0
0
LINE
8
1
62
3
10
0.92678
20
-1.96967
30
0
11
0.57322
21
-2.32322
31
0
0
ARC
8
1
62
3
10
0.75
20
-2.5
30
0
40
0.25
50
135
51
180
0
ARC
8
1
62
3
10
0.75
20
-3.20711
30
0
40
0.25
50
0
51
44.9998
0
LINE
8
1
62
3
10
0.92678
20
-3.03033
30
0
11
0.57322
21
-2.67678
31
0
0
ARC
8
1
62
3
10
0.75
20
-2.5
30
0
40
0.25
50
180
51
225
0
ARC
8
1
62
3
10
5
20
-1.79289
30
0
40
0.25
50
180
51
225
0
LINE
8
1
62
3
10
4.82322
20
-1.96967
30
0
11
5.17678
21
-2.32322
31
0
0
ARC
8
1
62
3
10
5
20
-2.5
30
0
40
0.25
50
0
51
45
0
LINE
8
1
62
3
10
4.82322
20
-3.03033
30
0
11
5.17678
21
-2.67678
31
0
0
ARC
8
1
62
3
10
5
20
-2.5
30
0
40
0.25
50
-45
51
0
0
CIRCLE
8
1
62
3
10
0.75
20
-2.5
30
0
40
0.1325
0
CIRCLE
8
1
62
3
10
5
20
-2.5
30
0
40
0.1325
0
ARC
8
1
62
3
10
5
20
-3.20711
30
0
40
0.25
50
135
51
180
0
LINE
8
1
62
3
10
1
20
-0.289
30
0
11
1
21
-1.79289
31
0
0
ARC
8
1
62
3
10
1.1875
20
-0.289
30
0
40
0.1875
50
90
51
180
0
LINE
8
1
62
3
10
4.5625
20
-0.1015
30
0
11
2.875
21
-0.1015
31
0
0
LINE
8
1
62
3
10
4.75
20
-0.289
30
0
11
4.75
21
-1.79289
31
0
0
ARC
8
1
62
3
10
4.5625
20
-0.289
30
0
40
0.1875
50
0
51
90
0
LINE
8
1
62
3
10
1.1875
20
-4.8985
30
0
11
4.5625
21
-4.8985
31
0
0
LINE
8
1
62
3
10
1
20
-4.711
30
0
11
1
21
-3.20711
31
0
0
ARC
8
1
62
3
10
1.1875
20
-4.711
30
0
40
0.1875
50
180
51
270
0
CIRCLE
8
1
62
3
10
1.1875
20
-0.289
30
0
40
0.083
0
CIRCLE
8
1
62
3
10
4.5625
20
-0.289
30
0
40
0.083
0
CIRCLE
8
1
62
3
10
4.5625
20
-4.711
30
0
40
0.083
0
CIRCLE
8
1
62
3
10
1.1875
20
-4.711
30
0
40
0.083
0
CIRCLE
8
1
62
3
10
1.1875
20
-0.289
30
0
40
0.068
0
CIRCLE
8
1
62
3
10
4.5625
20
-0.289
30
0
40
0.068
0
CIRCLE
8
1
62
3
10
4.5625
20
-4.711
30
0
40
0.068
0
CIRCLE
8
1
62
3
10
1.1875
20
-4.711
30
0
40
0.068
0
ARC
8
1
62
3
10
4.5625
20
-4.711
30
0
40
0.1875
50
-90
51
0
0
LINE
8
1
62
1
10
0.375
20
0
30
0
11
0.375
21
-5
31
0
0
LINE
8
1
62
1
10
5.375
20
0
30
0
11
5.375
21
-5
31
0
0
LINE
8
1
62
5
10
0
20
-5
30
0
11
0
21
0
31
0
0
LINE
8
1
62
5
10
0
20
-5
30
0
11
5.75
21
-5
31
0
0
LINE
8
1
62
5
10
5.75
20
-5
30
0
11
5.75
21
0
31
0
0
LINE
8
1
62
5
10
0
20
0
30
0
11
5.75
21
0
31
0
0
LINE
8
1
62
3
10
7.56
20
-4.8985
30
0
11
7.56
21
-0.1015
31
0
0
LINE
8
1
62
3
10
6.26
20
-4.8985
30
0
11
7.56
21
-4.8985
31
0
0
LINE
8
1
62
3
10
6.26
20
-4.8985
30
0
11
6.26
21
-0.1015
31
0
0
LINE
8
1
62
3
10
1.264
20
-1.01867
30
0
11
1.95917
21
-0.3235
31
0
0
LINE
8
1
62
3
10
1.90717
20
-4.6245
30
0
11
1.264
21
-3.98133
31
0
0
LINE
8
1
62
3
10
3.79083
20
-0.3235
30
0
11
1.95917
21
-0.3235
31
0
0
LINE
8
1
62
3
10
4.486
20
-1.01867
30
0
11
3.79083
21
-0.3235
31
0
0
LINE
8
1
62
3
10
3.84283
20
-4.6245
30
0
11
4.486
21
-3.98133
31
0
0
ARC
8
1
62
3
10
1.462
20
-0.4685
30
0
40
0.2
50
90
51
180
0
LINE
8
1
62
3
10
4.288
20
-0.2685
30
0
11
1.462
21
-0.2685
31
0
0
ARC
8
1
62
3
10
4.288
20
-0.4685
30
0
40
0.2
50
0
51
90
0
ARC
8
1
62
3
10
4.288
20
-4.4265
30
0
40
0.2
50
-90
51
0
0
ARC
8
1
62
3
10
1.462
20
-4.4265
30
0
40
0.2
50
180
51
270
0
LINE
8
1
62
3
10
6.26
20
-0.1015
30
0
11
7.56
21
-0.1015
31
0
0
LINE
8
1
62
3
10
7.109
20
-0.2685
30
0
11
7.109
21
-0.2365
31
0
0
LINE
8
1
62
3
10
7.109
20
-0.2685
30
0
11
7.325
21
-0.2685
31
0
0
LINE
8
1
62
3
10
7.245
20
-0.2365
30
0
11
7.245
21
-0.1015
31
0
0
LINE
8
1
62
3
10
7.109
20
-0.2365
30
0
11
7.245
21
-0.2365
31
0
0
LINE
8
1
62
3
10
7.325
20
-0.3235
30
0
11
7.45
21
-0.3235
31
0
0
LINE
8
1
62
3
10
7.325
20
-4.6265
30
0
11
7.325
21
-0.2685
31
0
0
LINE
8
1
62
3
10
7.45
20
-4.6265
30
0
11
7.45
21
-0.3235
31
0
0
LINE
8
1
62
3
10
6.26
20
-4.6265
30
0
11
7.45
21
-4.6265
31
0
0
LINE
8
1
62
3
10
7.109
20
-0.2685
30
0
11
6.26
21
-0.2685
31
0
0
CIRCLE
8
1
62
3
10
2.75694
20
-0.57824
30
0
40
0.0665
0
LINE
8
1
62
3
10
1.264
20
-1.01867
30
0
11
1.264
21
-2.4475
31
0
0
LINE
8
1
62
3
10
4.486
20
-1.01867
30
0
11
4.486
21
-3.98133
31
0
0
LINE
8
1
62
3
10
1.90717
20
-4.6245
30
0
11
3.84283
21
-4.6245
31
0
0
LINE
8
1
62
3
10
1.262
20
-4.4265
30
0
11
1.262
21
-0.4685
31
0
0
LINE
8
1
62
3
10
4.488
20
-0.4685
30
0
11
4.488
21
-4.4265
31
0
0
LINE
8
1
62
3
10
4.288
20
-4.6265
30
0
11
1.462
21
-4.6265
31
0
0
LINE
8
1
62
3
10
1.264
20
-2.4475
30
0
11
1.264
21
-3.98133
31
0
0
LINE
8
1
62
3
10
2.875
20
-0.1015
30
0
11
1.1875
21
-0.1015
31
0
0
LINE
8
1
62
3
10
4.15591
20
0.2325
30
0
11
1.59391
21
0.2325
31
0
0
LINE
8
1
62
3
10
4.15591
20
-0.6685
30
0
11
1.59391
21
-0.6685
31
0
0
LINE
8
1
62
3
10
4.75
20
0.8995
30
0
11
1
21
0.8995
31
0
0
LINE
8
1
62
3
10
1
20
0.8995
30
0
11
1
21
2.1995
31
0
0
LINE
8
1
62
3
10
4.75
20
0.8995
30
0
11
4.75
21
2.1995
31
0
0
LINE
8
1
62
3
10
0.5
20
1.9495
30
0
11
0.5
21
2.1995
31
0
0
LINE
8
1
62
3
10
5.25
20
1.9495
30
0
11
5.25
21
2.1995
31
0
0
LINE
8
1
62
3
10
5.25
20
2.1995
30
0
11
0.5
21
2.1995
31
0
0
LINE
8
1
62
3
10
5.25
20
1.9495
30
0
11
4.75
21
1.9495
31
0
0
LINE
8
1
62
3
10
1
20
1.9495
30
0
11
0.5
21
1.9495
31
0
0
LINE
8
1
62
3
10
1.1875
20
0.8995
30
0
11
1.1875
21
2.1995
31
0
0
LINE
8
1
62
3
10
4.5625
20
0.8995
30
0
11
4.5625
21
2.1995
31
0
0
LINE
8
1
62
3
10
1.59391
20
0.8995
30
0
11
1.59391
21
1.7485
31
0
0
LINE
8
1
62
3
10
4.15591
20
0.8995
30
0
11
4.15591
21
1.7485
31
0
0
LINE
8
1
62
3
10
4.15591
20
1.7485
30
0
11
1.59391
21
1.7485
31
0
0
LINE
8
1
62
3
10
1.45991
20
0.8995
30
0
11
1.45991
21
1.78875
31
0
0
LINE
8
1
62
3
10
4.19616
20
1.8825
30
0
11
1.55366
21
1.8825
31
0
0
ARC
8
1
62
3
10
1.55366
20
1.78875
30
0
40
0.09375
50
90
51
180
0
LINE
8
1
62
3
10
4.28991
20
0.8995
30
0
11
4.28991
21
1.78875
31
0
0
ARC
8
1
62
3
10
4.19616
20
1.78875
30
0
40
0.09375
50
0
51
90
0
LINE
8
1
62
3
10
1.45991
20
-0.1015
30
0
11
1.45991
21
-0.2365
31
0
0
LINE
8
1
62
3
10
4.28991
20
-0.1015
30
0
11
4.28991
21
-0.2365
31
0
0
LINE
8
1
62
3
10
4.75
20
0.6495
30
0
11
1
21
0.6495
31
0
0
LINE
8
1
62
3
10
1
20
0.6495
30
0
11
1
21
0.8995
31
0
0
LINE
8
1
62
3
10
4.75
20
0.6495
30
0
11
4.75
21
0.8995
31
0
0
LINE
8
1
62
3
10
4.19616
20
0.7655
30
0
11
1.55366
21
0.7655
31
0
0
ARC
8
1
62
3
10
1.55366
20
0.85925
30
0
40
0.09375
50
180
51
270
0
ARC
8
1
62
3
10
4.19616
20
0.85925
30
0
40
0.09375
50
-90
51
0
0
LINE
8
1
62
3
10
1.45991
20
0.85925
30
0
11
1.45991
21
0.8995
31
0
0
LINE
8
1
62
3
10
4.28991
20
0.85925
30
0
11
4.28999
21
0.8995
31
0
0
LINE
8
1
62
3
10
4.75
20
-3.20711
30
0
11
4.75
21
-4.711
31
0
0
LINE
8
1
62
3
10
4.75
20
-1.79289
30
0
11
4.75
21
-3.20711
31
0
0
LINE
8
1
62
3
10
1
20
-1.79289
30
0
11
1
21
-3.20711
31
0
0
ENDSEC
0
EOF
