0
SECTION
2
ENTITIES
0
LINE
8
1
62
3
10
2.8
20
-1.2
30
0
11
2.8
21
0
31
0
0
LINE
8
1
62
3
10
2.8
20
-1.2
30
0
11
-0
21
-1.2
31
0
0
LINE
8
1
62
3
10
2.7
20
-1
30
0
11
2.7
21
-0.2
31
0
0
LINE
8
1
62
3
10
0.1
20
-1
30
0
11
0.1
21
-0.2
31
0
0
LINE
8
1
62
3
10
2.6
20
-0.1
30
0
11
1.715
21
-0.1
31
0
0
LINE
8
1
62
3
10
2.6
20
-1.1
30
0
11
1.715
21
-1.1
31
0
0
LINE
8
1
62
3
10
-0
20
-1.2
30
0
11
-0
21
0
31
0
0
LINE
8
1
62
3
10
2.8
20
0
30
0
11
2.235
21
0
31
0
0
ARC
8
1
62
3
10
0.2
20
-0.2
30
0
40
0.1
50
90
51
180
0
ARC
8
1
62
3
10
2.6
20
-0.2
30
0
40
0.1
50
0
51
90
0
ARC
8
1
62
3
10
2.6
20
-1
30
0
40
0.1
50
-90
51
0
0
ARC
8
1
62
3
10
0.2
20
-1
30
0
40
0.1
50
180
51
270
0
LINE
8
1
62
3
10
1.48
20
-1
30
0
11
1.48
21
-0.2
31
0
0
LINE
8
1
62
3
10
1.615
20
-1
30
0
11
1.615
21
-0.2
31
0
0
LINE
8
1
62
3
10
1.38
20
-0.1
30
0
11
0.2
21
-0.1
31
0
0
LINE
8
1
62
3
10
1.38
20
-1.1
30
0
11
0.2
21
-1.1
31
0
0
ARC
8
1
62
3
10
1.38
20
-0.2
30
0
40
0.1
50
0
51
90
0
ARC
8
1
62
3
10
1.38
20
-1
30
0
40
0.1
50
-90
51
0
0
ARC
8
1
62
3
10
1.715
20
-1
30
0
40
0.1
50
180
51
270
0
ARC
8
1
62
3
10
1.715
20
-0.2
30
0
40
0.1
50
90
51
180
0
LINE
8
1
62
3
10
0.845
20
-0.1
30
0
11
0.845
21
0.03
31
0
0
LINE
8
1
62
3
10
0.845
20
0.03
30
0
11
0.725
21
0.03
31
0
0
LINE
8
1
62
3
10
0.725
20
0
30
0
11
-0
21
0
31
0
0
LINE
8
1
62
3
10
2.235
20
-0.1
30
0
11
2.235
21
0.03
31
0
0
LINE
8
1
62
3
10
2.235
20
0.03
30
0
11
2.115
21
0.03
31
0
0
LINE
8
1
62
3
10
2.115
20
-0.1
30
0
11
2.115
21
0.03
31
0
0
LINE
8
1
62
3
10
0.725
20
-0.1
30
0
11
0.725
21
0.03
31
0
0
LINE
8
1
62
3
10
2.115
20
0
30
0
11
0.845
21
0
31
0
0
LINE
8
1
62
3
10
0.15
20
-1
30
0
11
0.15
21
-0.2
31
0
0
LINE
8
1
62
3
10
1.38
20
-0.15
30
0
11
0.2
21
-0.15
31
0
0
LINE
8
1
62
3
10
1.43
20
-1
30
0
11
1.43
21
-0.2
31
0
0
LINE
8
1
62
3
10
1.38
20
-1.05
30
0
11
0.2
21
-1.05
31
0
0
LINE
8
1
62
3
10
1.665
20
-1
30
0
11
1.665
21
-0.2
31
0
0
LINE
8
1
62
3
10
2.6
20
-0.15
30
0
11
1.715
21
-0.15
31
0
0
LINE
8
1
62
3
10
2.65
20
-1
30
0
11
2.65
21
-0.2
31
0
0
LINE
8
1
62
3
10
2.6
20
-1.05
30
0
11
1.715
21
-1.05
31
0
0
ARC
8
1
62
3
10
0.2
20
-0.2
30
0
40
0.05
50
90
51
180
0
ARC
8
1
62
3
10
1.38
20
-0.2
30
0
40
0.05
50
0
51
90
0
ARC
8
1
62
3
10
1.38
20
-1
30
0
40
0.05
50
-90
51
0
0
ARC
8
1
62
3
10
0.2
20
-1
30
0
40
0.05
50
180
51
270
0
ARC
8
1
62
3
10
1.715
20
-0.2
30
0
40
0.05
50
90
51
180
0
ARC
8
1
62
3
10
2.6
20
-0.2
30
0
40
0.05
50
0
51
90
0
ARC
8
1
62
3
10
2.6
20
-1
30
0
40
0.05
50
-90
51
0
0
ARC
8
1
62
3
10
1.715
20
-1
30
0
40
0.05
50
180
51
270
0
LINE
8
1
62
3
10
2.37
20
-0.23
30
0
11
2.32
21
-0.23
31
0
0
LINE
8
1
62
3
10
2.188
20
-0.97
30
0
11
2.128
21
-0.97
31
0
0
LINE
8
1
62
3
10
0.43
20
-0.23
30
0
11
0.43
21
-0.15
31
0
0
LINE
8
1
62
3
10
1.1
20
-0.23
30
0
11
1.1
21
-0.15
31
0
0
LINE
8
1
62
3
10
1.05
20
-0.23
30
0
11
1.05
21
-0.15
31
0
0
LINE
8
1
62
3
10
0.48
20
-0.23
30
0
11
0.48
21
-0.15
31
0
0
LINE
8
1
62
3
10
0.48
20
-0.23
30
0
11
0.43
21
-0.23
31
0
0
LINE
8
1
62
3
10
0.75
20
-1.05
30
0
11
0.75
21
-0.97
31
0
0
LINE
8
1
62
3
10
0.81
20
-1.05
30
0
11
0.81
21
-0.97
31
0
0
LINE
8
1
62
3
10
2.37
20
-0.23
30
0
11
2.37
21
-0.15
31
0
0
LINE
8
1
62
3
10
1.94
20
-0.23
30
0
11
1.94
21
-0.15
31
0
0
LINE
8
1
62
3
10
1.99
20
-0.23
30
0
11
1.99
21
-0.15
31
0
0
LINE
8
1
62
3
10
2.32
20
-0.23
30
0
11
2.32
21
-0.15
31
0
0
LINE
8
1
62
3
10
1.1
20
-0.23
30
0
11
1.05
21
-0.23
31
0
0
LINE
8
1
62
3
10
1.99
20
-0.23
30
0
11
1.94
21
-0.23
31
0
0
LINE
8
1
62
3
10
2.188
20
-1.05
30
0
11
2.188
21
-0.97
31
0
0
LINE
8
1
62
3
10
2.128
20
-1.05
30
0
11
2.128
21
-0.97
31
0
0
LINE
8
1
62
3
10
0.81
20
-0.97
30
0
11
0.75
21
-0.97
31
0
0
CIRCLE
8
1
62
3
10
0.278
20
-0.33
30
0
40
0.06
0
CIRCLE
8
1
62
3
10
0.406
20
-0.33
30
0
40
0.06
0
CIRCLE
8
1
62
3
10
0.534
20
-0.33
30
0
40
0.06
0
CIRCLE
8
1
62
3
10
0.662
20
-0.33
30
0
40
0.06
0
CIRCLE
8
1
62
3
10
0.79
20
-0.33
30
0
40
0.06
0
CIRCLE
8
1
62
3
10
0.918
20
-0.33
30
0
40
0.06
0
CIRCLE
8
1
62
3
10
1.046
20
-0.33
30
0
40
0.06
0
CIRCLE
8
1
62
3
10
1.174
20
-0.33
30
0
40
0.06
0
CIRCLE
8
1
62
3
10
1.302
20
-0.33
30
0
40
0.06
0
CIRCLE
8
1
62
3
10
1.238
20
-0.51
30
0
40
0.06
0
CIRCLE
8
1
62
3
10
1.11
20
-0.51
30
0
40
0.06
0
CIRCLE
8
1
62
3
10
0.982
20
-0.51
30
0
40
0.06
0
CIRCLE
8
1
62
3
10
0.854
20
-0.51
30
0
40
0.06
0
CIRCLE
8
1
62
3
10
0.726
20
-0.51
30
0
40
0.06
0
CIRCLE
8
1
62
3
10
0.598
20
-0.51
30
0
40
0.06
0
CIRCLE
8
1
62
3
10
0.47
20
-0.51
30
0
40
0.06
0
CIRCLE
8
1
62
3
10
0.342
20
-0.51
30
0
40
0.06
0
CIRCLE
8
1
62
3
10
0.342
20
-0.69
30
0
40
0.06
0
CIRCLE
8
1
62
3
10
0.47
20
-0.69
30
0
40
0.06
0
CIRCLE
8
1
62
3
10
0.598
20
-0.69
30
0
40
0.06
0
CIRCLE
8
1
62
3
10
0.726
20
-0.69
30
0
40
0.06
0
CIRCLE
8
1
62
3
10
0.854
20
-0.69
30
0
40
0.06
0
CIRCLE
8
1
62
3
10
0.982
20
-0.69
30
0
40
0.06
0
CIRCLE
8
1
62
3
10
1.11
20
-0.69
30
0
40
0.06
0
CIRCLE
8
1
62
3
10
1.238
20
-0.69
30
0
40
0.06
0
CIRCLE
8
1
62
3
10
1.302
20
-0.87
30
0
40
0.06
0
CIRCLE
8
1
62
3
10
1.174
20
-0.87
30
0
40
0.06
0
CIRCLE
8
1
62
3
10
1.046
20
-0.87
30
0
40
0.06
0
CIRCLE
8
1
62
3
10
0.918
20
-0.87
30
0
40
0.06
0
CIRCLE
8
1
62
3
10
0.79
20
-0.87
30
0
40
0.06
0
CIRCLE
8
1
62
3
10
0.662
20
-0.87
30
0
40
0.06
0
CIRCLE
8
1
62
3
10
0.534
20
-0.87
30
0
40
0.06
0
CIRCLE
8
1
62
3
10
0.406
20
-0.87
30
0
40
0.06
0
CIRCLE
8
1
62
3
10
0.278
20
-0.87
30
0
40
0.06
0
CIRCLE
8
1
62
3
10
1.788
20
-0.33
30
0
40
0.06
0
CIRCLE
8
1
62
3
10
1.911
20
-0.33
30
0
40
0.06
0
CIRCLE
8
1
62
3
10
2.034
20
-0.33
30
0
40
0.06
0
CIRCLE
8
1
62
3
10
2.157
20
-0.33
30
0
40
0.06
0
CIRCLE
8
1
62
3
10
2.28
20
-0.33
30
0
40
0.06
0
CIRCLE
8
1
62
3
10
2.403
20
-0.33
30
0
40
0.06
0
CIRCLE
8
1
62
3
10
2.526
20
-0.33
30
0
40
0.06
0
CIRCLE
8
1
62
3
10
1.8495
20
-0.51
30
0
40
0.06
0
CIRCLE
8
1
62
3
10
1.9725
20
-0.51
30
0
40
0.06
0
CIRCLE
8
1
62
3
10
2.0955
20
-0.51
30
0
40
0.06
0
CIRCLE
8
1
62
3
10
2.2185
20
-0.51
30
0
40
0.06
0
CIRCLE
8
1
62
3
10
2.3415
20
-0.51
30
0
40
0.06
0
CIRCLE
8
1
62
3
10
2.4645
20
-0.51
30
0
40
0.06
0
CIRCLE
8
1
62
3
10
1.8495
20
-0.69
30
0
40
0.06
0
CIRCLE
8
1
62
3
10
1.9725
20
-0.69
30
0
40
0.06
0
CIRCLE
8
1
62
3
10
2.0955
20
-0.69
30
0
40
0.06
0
CIRCLE
8
1
62
3
10
2.2185
20
-0.69
30
0
40
0.06
0
CIRCLE
8
1
62
3
10
2.3415
20
-0.69
30
0
40
0.06
0
CIRCLE
8
1
62
3
10
2.4645
20
-0.69
30
0
40
0.06
0
CIRCLE
8
1
62
3
10
1.788
20
-0.87
30
0
40
0.06
0
CIRCLE
8
1
62
3
10
1.911
20
-0.87
30
0
40
0.06
0
CIRCLE
8
1
62
3
10
2.034
20
-0.87
30
0
40
0.06
0
CIRCLE
8
1
62
3
10
2.157
20
-0.87
30
0
40
0.06
0
CIRCLE
8
1
62
3
10
2.28
20
-0.87
30
0
40
0.06
0
CIRCLE
8
1
62
3
10
2.403
20
-0.87
30
0
40
0.06
0
CIRCLE
8
1
62
3
10
2.526
20
-0.87
30
0
40
0.06
0
ENDSEC
0
EOF
