0
SECTION
2
ENTITIES
0
LINE
8
2
62
3
10
9.152872
20
0.155572
30
0.0
11
9.152872
21
-0.106118
31
0.0
0
LINE
8
2
62
3
10
18.504451
20
0.376692
30
0.0
11
18.504451
21
0.986341
31
0.0
0
LINE
8
2
62
3
10
18.374838
20
1.205446
30
0.0
11
17.50793
21
1.68177
31
0.0
0
LINE
8
2
62
3
10
15.655784
20
1.672306
30
0.0
11
15.513601
21
1.586996
31
0.0
0
LINE
8
2
62
3
10
15.25635
20
1.515742
30
0.0
11
12.816852
21
1.51575
31
0.0
0
LINE
8
2
62
3
10
12.532988
20
1.604144
30
0.0
11
12.459003
21
1.655167
31
0.0
0
LINE
8
2
62
3
10
10.503255
20
1.504358
30
0.0
11
10.200031
21
1.504358
31
0.0
0
LINE
8
2
62
3
10
9.746051
20
1.213887
30
0.0
11
9.654013
21
1.014472
31
0.0
0
ARC
8
1
62
3
10
9.652872
20
-0.106118
30
0.0
40
0.5
50
180.0
51
273.366347
0
LINE
8
1
62
3
10
9.682232
20
-0.605255
30
0.0
11
10.329591
21
-0.605255
31
0.0
0
LINE
8
1
62
3
10
13.919124
20
0.262786
30
0.0
11
13.163553
21
0.262786
31
0.0
0
ARC
8
1
62
3
10
14.634539
20
0.020289
30
0.0
40
0.6
50
170.673237
51
265.336801
0
ARC
8
1
62
3
10
13.919124
20
0.137786
30
0.0
40
0.125
50
350.673237
51
450.0
0
LINE
8
1
62
3
10
14.585759
20
-0.577725
30
0.0
11
15.145986
21
-0.577725
31
0.0
0
LINE
8
1
62
3
10
18.50445
20
0.376693
30
0.0
11
18.013866
21
0.376693
31
0.0
0
LINE
8
1
62
3
10
17.267155
20
1.743561
30
0.0
11
15.913033
21
1.743561
31
0.0
0
ARC
8
1
62
3
10
18.254451
20
0.986341
30
0.0
40
0.25
50
0.0
51
61.21331
0
LINE
8
1
62
3
10
12.175137
20
1.743561
30
0.0
11
11.042772
21
1.743561
31
0.0
0
ARC
8
1
62
3
10
15.913033
20
1.243561
30
0.0
40
0.5
50
90.0
51
120.963928
0
ARC
8
1
62
3
10
17.267155
20
1.243561
30
0.0
40
0.5
50
61.21331
51
90.0
0
ARC
8
1
62
3
10
12.175137
20
1.243561
30
0.0
40
0.5
50
55.40776
51
90.0
0
ARC
8
1
62
3
10
12.816854
20
2.01575
30
0.0
40
0.5
50
235.40776
51
269.999801
0
ARC
8
1
62
3
10
15.256352
20
2.015742
30
0.0
40
0.5
50
269.999801
51
300.963928
0
ARC
8
1
62
3
10
9.200033
20
1.224
30
0.0
40
0.5
50
266.556404
51
335.224964
0
LINE
8
1
62
3
10
10.574729
20
1.526809
30
0.0
11
10.756875
21
1.653759
31
0.0
0
ARC
8
1
62
3
10
10.200031
20
1.004358
30
0.0
40
0.5
50
90.0
51
155.224964
0
ARC
8
1
62
3
10
10.503255
20
1.629358
30
0.0
40
0.125
50
270.0
51
304.875367
0
ARC
8
1
62
3
10
11.042772
20
1.243561
30
0.0
40
0.5
50
90.0
51
124.875367
0
CIRCLE
8
1
62
3
10
0.018091
20
0.05618
30
0.0
40
0.25
0
LINE
8
1
62
3
10
4.050217
20
0.241683
30
0.0
11
3.48075
21
0.241683
31
0.0
0
ARC
8
1
62
3
10
4.050217
20
0.116683
30
0.0
40
0.125
50
0.0
51
90.0
0
LINE
8
1
62
3
10
4.175217
20
0.116683
30
0.0
11
4.175217
21
0.055725
31
0.0
0
ARC
8
1
62
3
10
4.775217
20
0.055725
30
0.0
40
0.6
50
180.0
51
270.0
0
LINE
8
1
62
3
10
5.438695
20
-0.544275
30
0.0
11
4.775217
21
-0.544275
31
0.0
0
LINE
8
1
62
3
10
8.952872
20
0.355572
30
0.0
11
8.332563
21
0.355572
31
0.0
0
LINE
8
1
62
3
10
0.018091
20
-0.44382
30
0.0
11
0.525031
21
-0.44382
31
0.0
0
ARC
8
1
62
3
10
0.018091
20
0.05618
30
0.0
40
0.5
50
132.989867
51
270.0
0
LINE
8
1
62
3
10
0.911552
20
1.613764
30
0.0
11
-0.335462
21
0.409734
31
0.0
0
ARC
8
1
62
3
10
1.258852
20
1.254066
30
0.0
40
0.5
50
90.0
51
133.995303
0
ARC
8
1
62
3
10
5.516097
20
2.028468
30
0.0
40
0.5
50
269.999801
51
300.963928
0
ARC
8
1
62
3
10
3.076599
20
2.028476
30
0.0
40
0.5
50
235.40776
51
269.999801
0
ARC
8
1
62
3
10
2.434882
20
1.256287
30
0.0
40
0.5
50
55.40776
51
90.0
0
ARC
8
1
62
3
10
6.172778
20
1.256287
30
0.0
40
0.5
50
90.0
51
120.963928
0
LINE
8
1
62
3
10
7.5269
20
1.756287
30
0.0
11
6.172778
21
1.756287
31
0.0
0
LINE
8
2
62
3
10
2.792733
20
1.61687
30
0.0
11
2.718748
21
1.667893
31
0.0
0
LINE
8
2
62
3
10
5.516096
20
1.528468
30
0.0
11
3.076597
21
1.528476
31
0.0
0
LINE
8
2
62
3
10
5.915529
20
1.685032
30
0.0
11
5.773346
21
1.599722
31
0.0
0
LINE
8
1
62
3
10
2.434882
20
1.756287
30
0.0
11
1.302517
21
1.756287
31
0.0
0
LINE
8
1
62
3
10
1.258852
20
1.754066
30
0.0
11
1.302517
21
1.756287
31
0.0
0
ARC
8
1
62
3
10
7.5269
20
1.256287
30
0.0
40
0.5
50
58.4571
51
90.0
0
ARC
8
1
62
3
10
8.050037
20
2.108535
30
0.0
40
0.5
50
238.4571
51
270.0
0
LINE
8
2
62
3
10
8.050037
20
1.608535
30
0.0
11
8.155633
21
1.608535
31
0.0
0
ARC
8
1
62
3
10
8.952872
20
0.155572
30
0.0
40
0.2
50
360.0
51
450.0
0
LINE
8
1
62
3
10
9.17
20
0.724903
30
0.0
11
9.184204
21
0.724903
31
0.0
0
LINE
8
1
62
3
10
8.155633
20
1.608535
30
0.0
11
8.384204
21
1.608535
31
0.0
0
LINE
8
1
62
3
10
8.884204
20
1.024903
30
0.0
11
8.884204
21
1.108535
31
0.0
0
ARC
8
1
62
3
10
9.184204
20
1.024903
30
0.0
40
0.3
50
180.0
51
270.0
0
ARC
8
1
62
3
10
8.384204
20
1.108535
30
0.0
40
0.5
50
0.0
51
90.0
0
CIRCLE
8
1
62
3
10
3.398091
20
0.80618
30
0.0
40
0.25
0
CIRCLE
8
1
62
3
10
4.858091
20
0.05618
30
0.0
40
0.25
0
CIRCLE
8
1
62
3
10
8.238091
20
0.80618
30
0.0
40
0.25
0
CIRCLE
8
1
62
3
10
9.698091
20
0.05618
30
0.0
40
0.25
0
CIRCLE
8
1
62
3
10
13.078091
20
0.80618
30
0.0
40
0.25
0
CIRCLE
8
1
62
3
10
14.538091
20
0.05618
30
0.0
40
0.25
0
CIRCLE
8
1
62
3
10
17.918091
20
0.80618
30
0.0
40
0.25
0
CIRCLE
8
1
62
3
10
1.871332
20
0.34118
30
0.0
40
1.0
0
CIRCLE
8
1
62
3
10
6.711332
20
0.34118
30
0.0
40
1.0
0
CIRCLE
8
1
62
3
10
11.551332
20
0.34118
30
0.0
40
1.0
0
CIRCLE
8
1
62
3
10
16.391332
20
0.34118
30
0.0
40
1.0
0
ARC
8
1
62
3
10
1.871332
20
0.34118
30
0.0
40
1.5
50
214.055782
51
352.059072
0
ARC
8
1
62
3
10
6.711332
20
0.34118
30
0.0
40
1.5
50
218.449068
51
356.097065
0
ARC
8
1
62
3
10
11.551332
20
0.34118
30
0.0
40
1.5
50
221.249905
51
352.809672
0
ARC
8
1
62
3
10
16.391332
20
0.34118
30
0.0
40
1.5
50
219.971254
51
356.843169
0
ARC
8
1
62
3
10
0.525031
20
-0.56882
30
0.0
40
0.125
50
34.055782
51
90.0
0
ARC
8
1
62
3
10
3.48075
20
0.116683
30
0.0
40
0.125
50
90.0
51
172.059072
0
ARC
8
1
62
3
10
5.438695
20
-0.669275
30
0.0
40
0.125
50
38.449068
51
90.0
0
ARC
8
1
62
3
10
8.332563
20
0.230572
30
0.0
40
0.125
50
90.0
51
176.097065
0
ARC
8
1
62
3
10
10.329591
20
-0.730255
30
0.0
40
0.125
50
41.249905
51
90.0
0
ARC
8
1
62
3
10
13.163553
20
0.137786
30
0.0
40
0.125
50
90.0
51
172.809672
0
ARC
8
1
62
3
10
15.145986
20
-0.702725
30
0.0
40
0.125
50
39.971254
51
90.0
0
ARC
8
1
62
3
10
18.013866
20
0.251693
30
0.0
40
0.125
50
90.0
51
176.843169
0
ENDSEC
0
EOF
