0
SECTION
2
ENTITIES
0
CIRCLE
8
1
62
3
10
1.169162
20
4.1725
30
0.0
40
0.2265
0
ARC
8
1
62
3
10
1.169162
20
4.1725
30
0.0
40
0.5625
50
354.548622
51
527.218171
0
LINE
8
1
62
3
10
1.543528
20
2.174341
30
0.0
11
1.729118
21
4.119062
31
0.0
0
CIRCLE
8
1
62
3
10
0.323222
20
1.3275
30
0.0
40
0.1675
0
CIRCLE
8
1
62
3
10
1.317228
20
1.3275
30
0.0
40
0.1675
0
CIRCLE
8
1
62
3
10
1.122638
20
0.3275
30
0.0
40
0.1675
0
ARC
8
1
62
3
10
3.534482
20
1.984339
30
0.0
40
2.0
50
196.501392
51
205.418568
0
ARC
8
1
62
3
10
3.534482
20
1.984339
30
0.0
40
2.0
50
174.548627
51
196.501395
0
LINE
8
1
62
3
10
0.064561
20
1.84593
30
0.0
11
0.620601
21
4.296947
31
0.0
0
ARC
8
1
62
3
10
2.015
20
1.403452
30
0.0
40
2.0
50
167.218169
51
187.387912
0
LINE
8
1
62
3
10
0.031603
20
1.146279
30
0.0
11
0.142979
21
0.287317
31
0.0
0
ARC
8
1
62
3
10
0.452885
20
0.3275
30
0.0
40
0.3125
50
187.387912
51
270.0
0
LINE
8
1
62
3
10
1.72809
20
1.125884
30
0.0
11
2.043763
21
0.461634
31
0.0
0
LINE
8
1
62
3
10
0.452885
20
0.015
30
0.0
11
1.761514
21
0.015
31
0.0
0
ARC
8
1
62
3
10
1.761514
20
0.3275
30
0.0
40
0.3125
50
270.0
51
385.418568
0
CIRCLE
8
1
62
3
10
3.544162
20
4.1725
30
0.0
40
0.2265
0
ARC
8
1
62
3
10
3.544162
20
4.1725
30
0.0
40
0.5625
50
354.548622
51
527.218171
0
LINE
8
1
62
3
10
3.918528
20
2.174341
30
0.0
11
4.104118
21
4.119062
31
0.0
0
CIRCLE
8
1
62
3
10
2.698222
20
1.3275
30
0.0
40
0.1675
0
CIRCLE
8
1
62
3
10
3.692228
20
1.3275
30
0.0
40
0.1675
0
CIRCLE
8
1
62
3
10
3.497638
20
0.3275
30
0.0
40
0.1675
0
ARC
8
1
62
3
10
5.909482
20
1.984339
30
0.0
40
2.0
50
196.501392
51
205.418568
0
ARC
8
1
62
3
10
5.909482
20
1.984339
30
0.0
40
2.0
50
174.548627
51
196.501395
0
LINE
8
1
62
3
10
2.439561
20
1.84593
30
0.0
11
2.995601
21
4.296947
31
0.0
0
ARC
8
1
62
3
10
4.39
20
1.403452
30
0.0
40
2.0
50
167.218169
51
187.387912
0
LINE
8
1
62
3
10
2.406603
20
1.146279
30
0.0
11
2.517979
21
0.287317
31
0.0
0
ARC
8
1
62
3
10
2.827885
20
0.3275
30
0.0
40
0.3125
50
187.387912
51
270.0
0
LINE
8
1
62
3
10
4.10309
20
1.125884
30
0.0
11
4.418763
21
0.461634
31
0.0
0
LINE
8
1
62
3
10
2.827885
20
0.015
30
0.0
11
4.136514
21
0.015
31
0.0
0
ARC
8
1
62
3
10
4.136514
20
0.3275
30
0.0
40
0.3125
50
270.0
51
385.418568
0
ENDSEC
0
EOF
