0
SECTION
2
HEADER
0
ENDSEC
0
SECTION
2
TABLES
0
TABLE
2
LAYER
0
ENDTAB
0
ENDSEC
0
SECTION
2
ENTITIES
0
LINE
8
0
10
0.145
20
3.5
11
0.145
21
3
0
LINE
8
0
10
-0.145
20
3.5
11
-0.145
21
3
0
LINE
8
0
10
0.145
20
0.5
11
0.145
21
0
0
LINE
8
0
10
-0.145
20
0.5
11
-0.145
21
0
0
ARC
8
0
10
0
20
3.5
40
0.145
50
0
51
180
0
ARC
8
0
10
0
20
3
40
0.145
50
180
51
0
0
ARC
8
0
10
0
20
0.5
40
0.145
50
0
51
180
0
ARC
8
0
10
0
20
0
40
0.145
50
180
51
0
0
LINE
8
0
10
9.395
20
3.5
11
9.395
21
3
0
LINE
8
0
10
9.105
20
3.5
11
9.105
21
3
0
ARC
8
0
10
9.25
20
3.5
40
0.145
50
0
51
180
0
ARC
8
0
10
9.25
20
3
40
0.145
50
180
51
0
0
LINE
8
0
10
9.395
20
0.5
11
9.395
21
0
0
LINE
8
0
10
9.105
20
0.5
11
9.105
21
0
0
ARC
8
0
10
9.25
20
0.5
40
0.145
50
0
51
180
0
ARC
8
0
10
9.25
20
0
40
0.145
50
180
51
0
0
LINE
8
0
10
0.521447
20
3.93118
11
-0.38454
21
3.93118
0
LINE
8
0
10
-0.63454
20
3.68118
11
-0.63454
21
-1.847407
0
LINE
8
0
10
4.625
20
-1.5
11
1.676777
21
-1.5
0
LINE
8
0
10
1.161612
20
-1.036612
11
1.588388
21
-1.463388
0
LINE
8
0
10
-0.561317
20
-2.024183
11
1.908709
21
-4.494209
0
LINE
8
0
10
4.625
20
-12.8105
11
2.641053
21
-12.8105
0
LINE
8
0
10
2.53
20
-12.1255
11
2.1875
21
-12.1255
0
LINE
8
0
10
2.1875
20
-12.8105
11
2.1875
21
-12.8105
0
LINE
8
0
10
2.53
20
-12.8105
11
2.53
21
-12.8105
0
LINE
8
0
10
2.1875
20
-12.1255
11
2.1875
21
-11.5455
0
LINE
8
0
10
2.53
20
-12.1255
11
2.53
21
-11.5455
0
LINE
8
0
10
1.8375
20
-12.006947
11
1.8375
21
-4.763183
0
LINE
8
0
10
1.8375
20
-4.423
11
1.8375
21
-4.423
0
ARC
8
0
10
1.975
20
-4.5605
40
0.09375
50
235.847034
51
0
0
ARC
8
0
10
1.975
20
-4.5605
40
0.09375
50
0
51
135
0
LINE
8
0
10
1.975
20
-4.5605
11
1.975
21
-4.5605
0
LINE
8
0
10
1.922368
20
-4.638082
11
1.8375
21
-4.763183
0
LINE
8
0
10
2.53
20
-12.2255
11
2.1875
21
-12.2255
0
ARC
8
0
10
2.1875
20
-12.1255
40
0.1
50
180
51
270
0
LINE
8
0
10
2.0875
20
-12.1255
11
2.0875
21
-11.5455
0
ARC
8
0
10
2.1875
20
-11.5455
40
0.1
50
90
51
180
0
ARC
8
0
10
2.53
20
-11.5455
40
0.1
50
360
51
90
0
LINE
8
0
10
2.63
20
-12.1255
11
2.63
21
-11.5455
0
ARC
8
0
10
2.53
20
-12.1255
40
0.1
50
270
51
360
0
LINE
8
0
10
2.23375
20
-11.5455
11
2.23375
21
-11.4455
0
LINE
8
0
10
2.48375
20
-11.4455
11
2.48375
21
-11.5455
0
LINE
8
0
10
2.1875
20
-11.4455
11
2.23375
21
-11.4455
0
LINE
8
0
10
2.48375
20
-11.4455
11
2.53
21
-11.4455
0
LINE
8
0
10
2.1875
20
-11.5455
11
2.23375
21
-11.5455
0
LINE
8
0
10
2.48375
20
-11.5455
11
2.53
21
-11.5455
0
LINE
8
0
10
1.910723
20
-12.183723
11
2.464277
21
-12.737277
0
LINE
8
0
10
1.125
20
3.327627
11
1.125
21
-0.948223
0
LINE
8
0
10
1.051777
20
3.504403
11
0.698223
21
3.857957
0
ARC
8
0
10
-0.38454
20
-1.847407
40
0.25
50
180
51
225
0
ARC
8
0
10
-0.38454
20
3.68118
40
0.25
50
90
51
180
0
ARC
8
0
10
0.521447
20
3.68118
40
0.25
50
45
51
90
0
ARC
8
0
10
0.875
20
3.327627
40
0.25
50
0
51
45
0
ARC
8
0
10
1.25
20
-0.948223
40
0.125
50
180
51
225
0
ARC
8
0
10
1.676777
20
-1.375
40
0.125
50
225
51
270
0
ARC
8
0
10
2.0875
20
-12.006947
40
0.25
50
180
51
225
0
ARC
8
0
10
2.641053
20
-12.5605
40
0.25
50
225
51
270
0
LINE
8
0
10
8.728553
20
3.93118
11
9.63454
21
3.93118
0
LINE
8
0
10
9.88454
20
3.68118
11
9.88454
21
-1.847407
0
LINE
8
0
10
4.625
20
-1.5
11
7.573223
21
-1.5
0
LINE
8
0
10
8.088388
20
-1.036612
11
7.661612
21
-1.463388
0
LINE
8
0
10
9.811317
20
-2.024183
11
7.341291
21
-4.494209
0
LINE
8
0
10
4.625
20
-12.8105
11
6.608947
21
-12.8105
0
LINE
8
0
10
7.4125
20
-12.006947
11
7.4125
21
-4.763183
0
ARC
8
0
10
7.275
20
-4.5605
40
0.09375
50
180
51
304.152966
0
ARC
8
0
10
7.275
20
-4.5605
40
0.09375
50
45
51
180
0
LINE
8
0
10
7.327632
20
-4.638082
11
7.4125
21
-4.763183
0
LINE
8
0
10
7.339277
20
-12.183723
11
6.785723
21
-12.737277
0
LINE
8
0
10
8.125
20
3.327627
11
8.125
21
-0.948223
0
LINE
8
0
10
8.198223
20
3.504403
11
8.551777
21
3.857957
0
ARC
8
0
10
9.63454
20
-1.847407
40
0.25
50
315
51
0
0
ARC
8
0
10
9.63454
20
3.68118
40
0.25
50
0
51
90
0
ARC
8
0
10
8.728553
20
3.68118
40
0.25
50
90
51
135
0
ARC
8
0
10
8.375
20
3.327627
40
0.25
50
135
51
180
0
ARC
8
0
10
8
20
-0.948223
40
0.125
50
315
51
0
0
ARC
8
0
10
7.573223
20
-1.375
40
0.125
50
270
51
315
0
ARC
8
0
10
7.1625
20
-12.006947
40
0.25
50
315
51
0
0
ARC
8
0
10
6.608947
20
-12.5605
40
0.25
50
270
51
315
0
LINE
8
0
10
6.72
20
-12.1255
11
7.0625
21
-12.1255
0
LINE
8
0
10
7.0625
20
-12.1255
11
7.0625
21
-11.5455
0
LINE
8
0
10
6.72
20
-12.1255
11
6.72
21
-11.5455
0
LINE
8
0
10
6.72
20
-12.2255
11
7.0625
21
-12.2255
0
ARC
8
0
10
7.0625
20
-12.1255
40
0.1
50
270
51
0
0
LINE
8
0
10
7.1625
20
-12.1255
11
7.1625
21
-11.5455
0
ARC
8
0
10
7.0625
20
-11.5455
40
0.1
50
0
51
90
0
ARC
8
0
10
6.72
20
-11.5455
40
0.1
50
90
51
180
0
LINE
8
0
10
6.62
20
-12.1255
11
6.62
21
-11.5455
0
ARC
8
0
10
6.72
20
-12.1255
40
0.1
50
180
51
270
0
LINE
8
0
10
7.01625
20
-11.5455
11
7.01625
21
-11.4455
0
LINE
8
0
10
6.76625
20
-11.4455
11
6.76625
21
-11.5455
0
LINE
8
0
10
7.0625
20
-11.4455
11
7.01625
21
-11.4455
0
LINE
8
0
10
6.76625
20
-11.4455
11
6.72
21
-11.4455
0
LINE
8
0
10
7.0625
20
-11.5455
11
7.01625
21
-11.5455
0
LINE
8
0
10
6.76625
20
-11.5455
11
6.72
21
-11.5455
0
LINE
8
0
10
2.375
20
-9.5105
11
2.375
21
-8.7605
0
LINE
8
0
10
2.635
20
-9.5105
11
2.635
21
-8.7605
0
ARC
8
0
10
2.505
20
-9.5105
40
0.13
50
180
51
0
0
ARC
8
0
10
2.505
20
-8.7605
40
0.13
50
0
51
180
0
LINE
8
0
10
6.875
20
-9.5105
11
6.875
21
-8.7605
0
LINE
8
0
10
6.615
20
-9.5105
11
6.615
21
-8.7605
0
ARC
8
0
10
6.745
20
-9.5105
40
0.13
50
180
51
0
0
ARC
8
0
10
6.745
20
-8.7605
40
0.13
50
0
51
180
0
LINE
8
0
10
3.80376
20
-6.53237
11
4.625
21
-6.53237
0
LINE
8
0
10
3.652316
20
-4.526603
11
2.397373
21
-2.918008
0
LINE
8
0
10
2.495928
20
-2.71612
11
4.625
21
-2.71612
0
LINE
8
0
10
3.67876
20
-6.40737
11
3.67876
21
-4.603492
0
LINE
8
0
10
4.625
20
-6.9266
11
3.762318
21
-6.9266
0
LINE
8
0
10
3.646814
20
-7.00381
11
3.232576
21
-8.004989
0
LINE
8
0
10
3.22308
20
-8.052778
11
3.22308
21
-11.771616
0
LINE
8
0
10
3.27622
20
-11.873895
11
3.535142
21
-12.05581
0
LINE
8
0
10
3.607002
20
-12.07853
11
4.625
21
-12.07853
0
ARC
8
0
10
3.607002
20
-11.95353
40
0.125
50
234.908729
51
270
0
ARC
8
0
10
3.34808
20
-11.771616
40
0.125
50
180
51
234.908729
0
ARC
8
0
10
3.34808
20
-8.052778
40
0.125
50
157.522649
51
180
0
ARC
8
0
10
3.762318
20
-7.0516
40
0.125
50
90
51
157.522649
0
ARC
8
0
10
3.80376
20
-6.40737
40
0.125
50
180
51
270
0
ARC
8
0
10
3.55376
20
-4.603492
40
0.125
50
0
51
37.959515
0
ARC
8
0
10
2.495928
20
-2.84112
40
0.125
50
90
51
217.959515
0
LINE
8
0
10
2.719558
20
-5.373327
11
2.359306
21
-5.9796
0
LINE
8
0
10
2.344508
20
-6.06949
11
2.569736
21
-7.127071
0
LINE
8
0
10
2.805533
20
-7.153322
11
3.109513
21
-6.493258
0
LINE
8
0
10
3.119241
20
-6.420222
11
2.950284
21
-5.416432
0
ARC
8
0
10
2.466767
20
-6.043454
40
0.125
50
149.280946
51
192.022401
0
ARC
8
0
10
2.691995
20
-7.101034
40
0.125
50
192.022401
51
335.272464
0
ARC
8
0
10
2.995975
20
-6.44097
40
0.125
50
335.272464
51
9.554402
0
ARC
8
0
10
2.827018
20
-5.43718
40
0.125
50
9.554402
51
149.280946
0
LINE
8
0
10
0.516453
20
-2.064643
11
0.775896
21
-2.617358
0
LINE
8
0
10
0.926951
20
-2.683359
11
1.423268
21
-2.525439
0
LINE
8
0
10
1.443244
20
-2.295529
11
0.687484
21
-1.900735
0
ARC
8
0
10
0.88905
20
-2.564243
40
0.125
50
205.145213
51
287.650231
0
ARC
8
0
10
1.385367
20
-2.406323
40
0.125
50
287.650231
51
62.418279
0
ARC
8
0
10
0.629608
20
-2.011529
40
0.125
50
62.418279
51
205.145213
0
LINE
8
0
10
5.44624
20
-6.53237
11
4.625
21
-6.53237
0
LINE
8
0
10
5.597684
20
-4.526603
11
6.852627
21
-2.918008
0
LINE
8
0
10
6.754072
20
-2.71612
11
4.625
21
-2.71612
0
LINE
8
0
10
5.57124
20
-6.40737
11
5.57124
21
-4.603492
0
ARC
8
0
10
5.44624
20
-6.40737
40
0.125
50
270
51
0
0
ARC
8
0
10
6.754072
20
-2.84112
40
0.125
50
322.040485
51
90
0
LINE
8
0
10
8.733547
20
-2.064643
11
8.474104
21
-2.617358
0
LINE
8
0
10
8.323049
20
-2.683359
11
7.826732
21
-2.525439
0
LINE
8
0
10
7.806756
20
-2.295529
11
8.562516
21
-1.900735
0
ARC
8
0
10
8.36095
20
-2.564243
40
0.125
50
252.349769
51
334.854787
0
ARC
8
0
10
7.864633
20
-2.406323
40
0.125
50
117.581721
51
252.349769
0
ARC
8
0
10
8.620392
20
-2.011529
40
0.125
50
334.854787
51
117.581721
0
LINE
8
0
10
6.530442
20
-5.373327
11
6.890694
21
-5.9796
0
LINE
8
0
10
6.905492
20
-6.06949
11
6.680264
21
-7.127071
0
LINE
8
0
10
6.444467
20
-7.153322
11
6.140487
21
-6.493258
0
LINE
8
0
10
6.130759
20
-6.420222
11
6.299716
21
-5.416432
0
ARC
8
0
10
6.783233
20
-6.043454
40
0.125
50
347.977599
51
30.719054
0
ARC
8
0
10
6.558005
20
-7.101034
40
0.125
50
204.727536
51
347.977599
0
ARC
8
0
10
6.254025
20
-6.44097
40
0.125
50
170.445598
51
204.727536
0
ARC
8
0
10
6.422982
20
-5.43718
40
0.125
50
30.719054
51
170.445598
0
LINE
8
0
10
4.625
20
-6.9266
11
5.487682
21
-6.9266
0
LINE
8
0
10
5.603186
20
-7.00381
11
6.017424
21
-8.004989
0
LINE
8
0
10
6.02692
20
-8.052778
11
6.02692
21
-11.771616
0
LINE
8
0
10
5.97378
20
-11.873895
11
5.714858
21
-12.05581
0
LINE
8
0
10
5.642998
20
-12.07853
11
4.625
21
-12.07853
0
ARC
8
0
10
5.642998
20
-11.95353
40
0.125
50
270
51
305.091271
0
ARC
8
0
10
5.90192
20
-11.771616
40
0.125
50
305.091271
51
0
0
ARC
8
0
10
5.90192
20
-8.052778
40
0.125
50
0
51
22.477351
0
ARC
8
0
10
5.487682
20
-7.0516
40
0.125
50
22.477351
51
90
0
ARC
8
0
10
5.69624
20
-4.603492
40
0.125
50
142.040485
51
180
0
ENDSEC
0
EOF