0
SECTION
2
ENTITIES
0
LINE
8
1
62
3
10
2.824027
20
-0.125121
30
0.0
11
3.048899
21
-0.125121
31
0.0
0
LINE
8
1
62
3
10
3.048899
20
-0.125121
30
0.0
11
3.128465
21
-0.128772
31
0.0
0
LINE
8
1
62
3
10
3.128465
20
-0.128772
30
0.0
11
3.184717
21
-0.139761
31
0.0
0
LINE
8
1
62
3
10
3.184717
20
-0.139761
30
0.0
11
3.205228
21
-0.147862
31
0.0
0
LINE
8
1
62
3
10
3.205228
20
-0.147862
30
0.0
11
3.222189
21
-0.157601
31
0.0
0
LINE
8
1
62
3
10
3.222189
20
-0.157601
30
0.0
11
3.235596
21
-0.16898
31
0.0
0
LINE
8
1
62
3
10
3.235596
20
-0.16898
30
0.0
11
3.245452
21
-0.181981
31
0.0
0
LINE
8
1
62
3
10
3.245452
20
-0.181981
30
0.0
11
3.257174
21
-0.212546
31
0.0
0
LINE
8
1
62
3
10
3.257174
20
-0.212546
30
0.0
11
3.25899
21
-0.249083
31
0.0
0
LINE
8
1
62
3
10
3.25899
20
-0.249083
30
0.0
11
3.250365
21
-0.298884
31
0.0
0
LINE
8
1
62
3
10
3.250365
20
-0.298884
30
0.0
11
3.230683
21
-0.370363
31
0.0
0
LINE
8
1
62
3
10
3.230683
20
-0.370363
30
0.0
11
3.2077
21
-0.446684
31
0.0
0
LINE
8
1
62
3
10
3.2077
20
-0.446684
30
0.0
11
3.18154
21
-0.519209
31
0.0
0
LINE
8
1
62
3
10
3.18154
20
-0.519209
30
0.0
11
3.153842
21
-0.56899
31
0.0
0
LINE
8
1
62
3
10
3.153842
20
-0.56899
30
0.0
11
3.119446
21
-0.602962
31
0.0
0
LINE
8
1
62
3
10
3.119446
20
-0.602962
30
0.0
11
3.073295
21
-0.628012
31
0.0
0
LINE
8
1
62
3
10
3.073295
20
-0.628012
30
0.0
11
3.016356
21
-0.643432
31
0.0
0
LINE
8
1
62
3
10
3.016356
20
-0.643432
30
0.0
11
2.94858
21
-0.64859
31
0.0
0
LINE
8
1
62
3
10
2.94858
20
-0.64859
30
0.0
11
2.88866
21
-0.64859
31
0.0
0
LINE
8
1
62
3
10
2.88866
20
-0.64859
30
0.0
11
2.782102
21
-1.001517
31
0.0
0
LINE
8
1
62
3
10
2.782102
20
-1.001517
30
0.0
11
2.558816
21
-1.001517
31
0.0
0
LINE
8
1
62
3
10
2.558816
20
-1.001517
30
0.0
11
2.824027
21
-0.125121
31
0.0
0
LINE
8
1
62
3
10
3.001637
20
-0.275084
30
0.0
11
2.934384
21
-0.498092
31
0.0
0
LINE
8
1
62
3
10
2.934384
20
-0.498092
30
0.0
11
2.950771
21
-0.498627
31
0.0
0
LINE
8
1
62
3
10
2.950771
20
-0.498627
30
0.0
11
2.977949
21
-0.494831
31
0.0
0
LINE
8
1
62
3
10
2.977949
20
-0.494831
30
0.0
11
2.998004
21
-0.483468
31
0.0
0
LINE
8
1
62
3
10
2.998004
20
-0.483468
30
0.0
11
3.006138
21
-0.473549
31
0.0
0
LINE
8
1
62
3
10
3.006138
20
-0.473549
30
0.0
11
3.014063
21
-0.459517
31
0.0
0
LINE
8
1
62
3
10
3.014063
20
-0.459517
30
0.0
11
3.021775
21
-0.441346
31
0.0
0
LINE
8
1
62
3
10
3.021775
20
-0.441346
30
0.0
11
3.029255
21
-0.419082
31
0.0
0
LINE
8
1
62
3
10
3.029255
20
-0.419082
30
0.0
11
3.051242
21
-0.347065
31
0.0
0
LINE
8
1
62
3
10
3.051242
20
-0.347065
30
0.0
11
3.056448
21
-0.326554
31
0.0
0
LINE
8
1
62
3
10
3.056448
20
-0.326554
30
0.0
11
3.058773
21
-0.309987
31
0.0
0
LINE
8
1
62
3
10
3.058773
20
-0.309987
30
0.0
11
3.058232
21
-0.29733
31
0.0
0
LINE
8
1
62
3
10
3.058232
20
-0.29733
30
0.0
11
3.05483
21
-0.288604
31
0.0
0
LINE
8
1
62
3
10
3.05483
20
-0.288604
30
0.0
11
3.047851
21
-0.282679
31
0.0
0
LINE
8
1
62
3
10
3.047851
20
-0.282679
30
0.0
11
3.036675
21
-0.278454
31
0.0
0
LINE
8
1
62
3
10
3.036675
20
-0.278454
30
0.0
11
3.021267
21
-0.275918
31
0.0
0
LINE
8
1
62
3
10
3.021267
20
-0.275918
30
0.0
11
3.001637
21
-0.275084
31
0.0
0
LINE
8
1
62
3
10
3.529033
20
-0.283185
30
0.0
11
3.492474
21
-0.377403
31
0.0
0
LINE
8
1
62
3
10
3.492474
20
-0.377403
30
0.0
11
3.531832
21
-0.332723
31
0.0
0
LINE
8
1
62
3
10
3.531832
20
-0.332723
30
0.0
11
3.572841
21
-0.299983
31
0.0
0
LINE
8
1
62
3
10
3.572841
20
-0.299983
30
0.0
11
3.615511
21
-0.279124
31
0.0
0
LINE
8
1
62
3
10
3.615511
20
-0.279124
30
0.0
11
3.659823
21
-0.270206
31
0.0
0
LINE
8
1
62
3
10
3.659823
20
-0.270206
30
0.0
11
3.583566
21
-0.523006
31
0.0
0
LINE
8
1
62
3
10
3.583566
20
-0.523006
30
0.0
11
3.531275
21
-0.527068
31
0.0
0
LINE
8
1
62
3
10
3.531275
20
-0.527068
30
0.0
11
3.492198
21
-0.539247
31
0.0
0
LINE
8
1
62
3
10
3.492198
20
-0.539247
30
0.0
11
3.463989
21
-0.55871
31
0.0
0
LINE
8
1
62
3
10
3.463989
20
-0.55871
30
0.0
11
3.444395
21
-0.584706
31
0.0
0
LINE
8
1
62
3
10
3.444395
20
-0.584706
30
0.0
11
3.43575
21
-0.60378
31
0.0
0
LINE
8
1
62
3
10
3.43575
20
-0.60378
30
0.0
11
3.425126
21
-0.63235
31
0.0
0
LINE
8
1
62
3
10
3.425126
20
-0.63235
30
0.0
11
3.412485
21
-0.670362
31
0.0
0
LINE
8
1
62
3
10
3.412485
20
-0.670362
30
0.0
11
3.39785
21
-0.717872
31
0.0
0
LINE
8
1
62
3
10
3.39785
20
-0.717872
30
0.0
11
3.311952
21
-1.001517
31
0.0
0
LINE
8
1
62
3
10
3.311952
20
-1.001517
30
0.0
11
3.09767
21
-1.001517
31
0.0
0
LINE
8
1
62
3
10
3.09767
20
-1.001517
30
0.0
11
3.314751
21
-0.283185
31
0.0
0
LINE
8
1
62
3
10
3.314751
20
-0.283185
30
0.0
11
3.529033
21
-0.283185
31
0.0
0
LINE
8
1
62
3
10
4.111548
20
-0.535449
30
0.0
11
4.058338
21
-0.711354
31
0.0
0
LINE
8
1
62
3
10
4.058338
20
-0.711354
30
0.0
11
4.03042
21
-0.795389
31
0.0
0
LINE
8
1
62
3
10
4.03042
20
-0.795389
30
0.0
11
4.005508
21
-0.853751
31
0.0
0
LINE
8
1
62
3
10
4.005508
20
-0.853751
30
0.0
11
3.977542
21
-0.897299
31
0.0
0
LINE
8
1
62
3
10
3.977542
20
-0.897299
30
0.0
11
3.939241
21
-0.938177
31
0.0
0
LINE
8
1
62
3
10
3.939241
20
-0.938177
30
0.0
11
3.893325
21
-0.972148
31
0.0
0
LINE
8
1
62
3
10
3.893325
20
-0.972148
30
0.0
11
3.841314
21
-0.996114
31
0.0
0
LINE
8
1
62
3
10
3.841314
20
-0.996114
30
0.0
11
3.78454
21
-1.009899
31
0.0
0
LINE
8
1
62
3
10
3.78454
20
-1.009899
30
0.0
11
3.723191
21
-1.0145
31
0.0
0
LINE
8
1
62
3
10
3.723191
20
-1.0145
30
0.0
11
3.658778
21
-1.01057
31
0.0
0
LINE
8
1
62
3
10
3.658778
20
-1.01057
30
0.0
11
3.607658
21
-0.998799
31
0.0
0
LINE
8
1
62
3
10
3.607658
20
-0.998799
30
0.0
11
3.587099
21
-0.989697
31
0.0
0
LINE
8
1
62
3
10
3.587099
20
-0.989697
30
0.0
11
3.569895
21
-0.97863
31
0.0
0
LINE
8
1
62
3
10
3.569895
20
-0.97863
30
0.0
11
3.555998
21
-0.965598
31
0.0
0
LINE
8
1
62
3
10
3.555998
20
-0.965598
30
0.0
11
3.545437
21
-0.950619
31
0.0
0
LINE
8
1
62
3
10
3.545437
20
-0.950619
30
0.0
11
3.53306
21
-0.914898
31
0.0
0
LINE
8
1
62
3
10
3.53306
20
-0.914898
30
0.0
11
3.530407
21
-0.872676
31
0.0
0
LINE
8
1
62
3
10
3.530407
20
-0.872676
30
0.0
11
3.533077
21
-0.846827
31
0.0
0
LINE
8
1
62
3
10
3.533077
20
-0.846827
30
0.0
11
3.53889
21
-0.815296
31
0.0
0
LINE
8
1
62
3
10
3.53889
20
-0.815296
30
0.0
11
3.547825
21
-0.778084
31
0.0
0
LINE
8
1
62
3
10
3.547825
20
-0.778084
30
0.0
11
3.559891
21
-0.735193
31
0.0
0
LINE
8
1
62
3
10
3.559891
20
-0.735193
30
0.0
11
3.61557
21
-0.551149
31
0.0
0
LINE
8
1
62
3
10
3.61557
20
-0.551149
30
0.0
11
3.647872
21
-0.461956
31
0.0
0
LINE
8
1
62
3
10
3.647872
20
-0.461956
30
0.0
11
3.684213
21
-0.394708
31
0.0
0
LINE
8
1
62
3
10
3.684213
20
-0.394708
30
0.0
11
3.729262
21
-0.343955
31
0.0
0
LINE
8
1
62
3
10
3.729262
20
-0.343955
30
0.0
11
3.787735
21
-0.304304
31
0.0
0
LINE
8
1
62
3
10
3.787735
20
-0.304304
30
0.0
11
3.858469
21
-0.278718
31
0.0
0
LINE
8
1
62
3
10
3.858469
20
-0.278718
30
0.0
11
3.939324
21
-0.270206
31
0.0
0
LINE
8
1
62
3
10
3.939324
20
-0.270206
30
0.0
11
4.004628
21
-0.275738
31
0.0
0
LINE
8
1
62
3
10
4.004628
20
-0.275738
30
0.0
11
4.056295
21
-0.292385
31
0.0
0
LINE
8
1
62
3
10
4.056295
20
-0.292385
30
0.0
11
4.077251
21
-0.30406
31
0.0
0
LINE
8
1
62
3
10
4.077251
20
-0.30406
30
0.0
11
4.094738
21
-0.317417
31
0.0
0
LINE
8
1
62
3
10
4.094738
20
-0.317417
30
0.0
11
4.108697
21
-0.33248
31
0.0
0
LINE
8
1
62
3
10
4.108697
20
-0.33248
30
0.0
11
4.119187
21
-0.349244
31
0.0
0
LINE
8
1
62
3
10
4.119187
20
-0.349244
30
0.0
11
4.131946
21
-0.384963
31
0.0
0
LINE
8
1
62
3
10
4.131946
20
-0.384963
30
0.0
11
4.135332
21
-0.421782
31
0.0
0
LINE
8
1
62
3
10
4.135332
20
-0.421782
30
0.0
11
4.128988
21
-0.468868
31
0.0
0
LINE
8
1
62
3
10
4.128988
20
-0.468868
30
0.0
11
4.111548
21
-0.535449
31
0.0
0
LINE
8
1
62
3
10
3.913651
20
-0.481328
30
0.0
11
3.925995
21
-0.436387
31
0.0
0
LINE
8
1
62
3
10
3.925995
20
-0.436387
30
0.0
11
3.929
21
-0.412025
31
0.0
0
LINE
8
1
62
3
10
3.929
20
-0.412025
30
0.0
11
3.923001
21
-0.401057
31
0.0
0
LINE
8
1
62
3
10
3.923001
20
-0.401057
30
0.0
11
3.90827
21
-0.397406
31
0.0
0
LINE
8
1
62
3
10
3.90827
20
-0.397406
30
0.0
11
3.891305
21
-0.401057
31
0.0
0
LINE
8
1
62
3
10
3.891305
20
-0.401057
30
0.0
11
3.878605
21
-0.412025
31
0.0
0
LINE
8
1
62
3
10
3.878605
20
-0.412025
30
0.0
11
3.866464
21
-0.436387
31
0.0
0
LINE
8
1
62
3
10
3.866464
20
-0.436387
30
0.0
11
3.851068
21
-0.481328
31
0.0
0
LINE
8
1
62
3
10
3.851068
20
-0.481328
30
0.0
11
3.752891
21
-0.805571
31
0.0
0
LINE
8
1
62
3
10
3.752891
20
-0.805571
30
0.0
11
3.746428
21
-0.828802
31
0.0
0
LINE
8
1
62
3
10
3.746428
20
-0.828802
30
0.0
11
3.742033
21
-0.847629
31
0.0
0
LINE
8
1
62
3
10
3.742033
20
-0.847629
30
0.0
11
3.739693
21
-0.862067
31
0.0
0
LINE
8
1
62
3
10
3.739693
20
-0.862067
30
0.0
11
3.739431
21
-0.872136
31
0.0
0
LINE
8
1
62
3
10
3.739431
20
-0.872136
30
0.0
11
3.745229
21
-0.883514
31
0.0
0
LINE
8
1
62
3
10
3.745229
20
-0.883514
30
0.0
11
3.759556
21
-0.887312
31
0.0
0
LINE
8
1
62
3
10
3.759556
20
-0.887312
30
0.0
11
3.776497
21
-0.883776
31
0.0
0
LINE
8
1
62
3
10
3.776497
20
-0.883776
30
0.0
11
3.789173
21
-0.873217
31
0.0
0
LINE
8
1
62
3
10
3.789173
20
-0.873217
30
0.0
11
3.794638
21
-0.864148
31
0.0
0
LINE
8
1
62
3
10
3.794638
20
-0.864148
30
0.0
11
3.800542
21
-0.851033
31
0.0
0
LINE
8
1
62
3
10
3.800542
20
-0.851033
30
0.0
11
3.806886
21
-0.833844
31
0.0
0
LINE
8
1
62
3
10
3.806886
20
-0.833844
30
0.0
11
3.813657
21
-0.812594
31
0.0
0
LINE
8
1
62
3
10
3.813657
20
-0.812594
30
0.0
11
3.913651
21
-0.481328
31
0.0
0
LINE
8
1
62
3
10
4.580107
20
-0.125121
30
0.0
11
4.546523
21
-0.23612
31
0.0
0
LINE
8
1
62
3
10
4.546523
20
-0.23612
30
0.0
11
4.493324
21
-0.237726
31
0.0
0
LINE
8
1
62
3
10
4.493324
20
-0.237726
30
0.0
11
4.466273
21
-0.242604
31
0.0
0
LINE
8
1
62
3
10
4.466273
20
-0.242604
30
0.0
11
4.453621
21
-0.254372
31
0.0
0
LINE
8
1
62
3
10
4.453621
20
-0.254372
30
0.0
11
4.44344
21
-0.277783
31
0.0
0
LINE
8
1
62
3
10
4.44344
20
-0.277783
30
0.0
11
4.436775
21
-0.300524
31
0.0
0
LINE
8
1
62
3
10
4.436775
20
-0.300524
30
0.0
11
4.526944
21
-0.300524
31
0.0
0
LINE
8
1
62
3
10
4.526944
20
-0.300524
30
0.0
11
4.492552
21
-0.414205
31
0.0
0
LINE
8
1
62
3
10
4.492552
20
-0.414205
30
0.0
11
4.441634
21
-0.414205
31
0.0
0
LINE
8
1
62
3
10
4.441634
20
-0.414205
30
0.0
11
4.263981
21
-1.001517
31
0.0
0
LINE
8
1
62
3
10
4.263981
20
-1.001517
30
0.0
11
4.049701
21
-1.001517
31
0.0
0
LINE
8
1
62
3
10
4.049701
20
-1.001517
30
0.0
11
4.227378
21
-0.414205
31
0.0
0
LINE
8
1
62
3
10
4.227378
20
-0.414205
30
0.0
11
4.183351
21
-0.414205
31
0.0
0
LINE
8
1
62
3
10
4.183351
20
-0.414205
30
0.0
11
4.217732
21
-0.300524
31
0.0
0
LINE
8
1
62
3
10
4.217732
20
-0.300524
30
0.0
11
4.261759
21
-0.300524
31
0.0
0
LINE
8
1
62
3
10
4.261759
20
-0.300524
30
0.0
11
4.280779
21
-0.241375
31
0.0
0
LINE
8
1
62
3
10
4.280779
20
-0.241375
30
0.0
11
4.295189
21
-0.205782
31
0.0
0
LINE
8
1
62
3
10
4.295189
20
-0.205782
30
0.0
11
4.310289
21
-0.183323
31
0.0
0
LINE
8
1
62
3
10
4.310289
20
-0.183323
30
0.0
11
4.331518
21
-0.163561
31
0.0
0
LINE
8
1
62
3
10
4.331518
20
-0.163561
30
0.0
11
4.359258
21
-0.146915
31
0.0
0
LINE
8
1
62
3
10
4.359258
20
-0.146915
30
0.0
11
4.392902
21
-0.134878
31
0.0
0
LINE
8
1
62
3
10
4.392902
20
-0.134878
30
0.0
11
4.438629
21
-0.12756
31
0.0
0
LINE
8
1
62
3
10
4.438629
20
-0.12756
30
0.0
11
4.501604
21
-0.125121
31
0.0
0
LINE
8
1
62
3
10
4.501604
20
-0.125121
30
0.0
11
4.580107
21
-0.125121
31
0.0
0
LINE
8
1
62
3
10
4.841586
20
-0.125121
30
0.0
11
4.807146
21
-0.239343
31
0.0
0
LINE
8
1
62
3
10
4.807146
20
-0.239343
30
0.0
11
4.586487
21
-0.239343
31
0.0
0
LINE
8
1
62
3
10
4.586487
20
-0.239343
30
0.0
11
4.620939
21
-0.125121
31
0.0
0
LINE
8
1
62
3
10
4.620939
20
-0.125121
30
0.0
11
4.841586
21
-0.125121
31
0.0
0
LINE
8
1
62
3
10
4.793437
20
-0.283185
30
0.0
11
4.576377
21
-1.001517
31
0.0
0
LINE
8
1
62
3
10
4.576377
20
-1.001517
30
0.0
11
4.35573
21
-1.001517
31
0.0
0
LINE
8
1
62
3
10
4.35573
20
-1.001517
30
0.0
11
4.572801
21
-0.283185
31
0.0
0
LINE
8
1
62
3
10
4.572801
20
-0.283185
30
0.0
11
4.793437
21
-0.283185
31
0.0
0
LINE
8
1
62
3
10
5.138586
20
-0.125121
30
0.0
11
4.873377
21
-1.001517
31
0.0
0
LINE
8
1
62
3
10
4.873377
20
-1.001517
30
0.0
11
4.652742
21
-1.001517
31
0.0
0
LINE
8
1
62
3
10
4.652742
20
-1.001517
30
0.0
11
4.917951
21
-0.125121
31
0.0
0
LINE
8
1
62
3
10
4.917951
20
-0.125121
30
0.0
11
5.138586
21
-0.125121
31
0.0
0
LINE
8
1
62
3
10
5.539845
20
-0.655074
30
0.0
11
5.262447
21
-0.655074
31
0.0
0
LINE
8
1
62
3
10
5.262447
20
-0.655074
30
0.0
11
5.215676
21
-0.810433
31
0.0
0
LINE
8
1
62
3
10
5.215676
20
-0.810433
30
0.0
11
5.209355
21
-0.832616
31
0.0
0
LINE
8
1
62
3
10
5.209355
20
-0.832616
30
0.0
11
5.205174
21
-0.850494
31
0.0
0
LINE
8
1
62
3
10
5.205174
20
-0.850494
30
0.0
11
5.203107
21
-0.864016
31
0.0
0
LINE
8
1
62
3
10
5.203107
20
-0.864016
30
0.0
11
5.203154
21
-0.873217
31
0.0
0
LINE
8
1
62
3
10
5.203154
20
-0.873217
30
0.0
11
5.210116
21
-0.883776
31
0.0
0
LINE
8
1
62
3
10
5.210116
20
-0.883776
30
0.0
11
5.225524
21
-0.887312
31
0.0
0
LINE
8
1
62
3
10
5.225524
20
-0.887312
30
0.0
11
5.247217
21
-0.882696
31
0.0
0
LINE
8
1
62
3
10
5.247217
20
-0.882696
30
0.0
11
5.263552
21
-0.868878
31
0.0
0
LINE
8
1
62
3
10
5.263552
20
-0.868878
30
0.0
11
5.278283
21
-0.841276
31
0.0
0
LINE
8
1
62
3
10
5.278283
20
-0.841276
30
0.0
11
5.294084
21
-0.796354
31
0.0
0
LINE
8
1
62
3
10
5.294084
20
-0.796354
30
0.0
11
5.322726
21
-0.701632
31
0.0
0
LINE
8
1
62
3
10
5.322726
20
-0.701632
30
0.0
11
5.525862
21
-0.701632
31
0.0
0
LINE
8
1
62
3
10
5.525862
20
-0.701632
30
0.0
11
5.509611
21
-0.754672
31
0.0
0
LINE
8
1
62
3
10
5.509611
20
-0.754672
30
0.0
11
5.489949
21
-0.813544
31
0.0
0
LINE
8
1
62
3
10
5.489949
20
-0.813544
30
0.0
11
5.470597
21
-0.856976
31
0.0
0
LINE
8
1
62
3
10
5.470597
20
-0.856976
30
0.0
11
5.445577
21
-0.893926
31
0.0
0
LINE
8
1
62
3
10
5.445577
20
-0.893926
30
0.0
11
5.408892
21
-0.933299
31
0.0
0
LINE
8
1
62
3
10
5.408892
20
-0.933299
30
0.0
11
5.363855
21
-0.968889
31
0.0
0
LINE
8
1
62
3
10
5.363855
20
-0.968889
30
0.0
11
5.313804
21
-0.994477
31
0.0
0
LINE
8
1
62
3
10
5.313804
20
-0.994477
30
0.0
11
5.256923
21
-1.00949
31
0.0
0
LINE
8
1
62
3
10
5.256923
20
-1.00949
30
0.0
11
5.191286
21
-1.0145
31
0.0
0
LINE
8
1
62
3
10
5.191286
20
-1.0145
30
0.0
11
5.128833
21
-1.00949
31
0.0
0
LINE
8
1
62
3
10
5.128833
20
-1.00949
30
0.0
11
5.077262
21
-0.994477
31
0.0
0
LINE
8
1
62
3
10
5.077262
20
-0.994477
30
0.0
11
5.056139
21
-0.983542
31
0.0
0
LINE
8
1
62
3
10
5.056139
20
-0.983542
30
0.0
11
5.038414
21
-0.970788
31
0.0
0
LINE
8
1
62
3
10
5.038414
20
-0.970788
30
0.0
11
5.024039
21
-0.956218
31
0.0
0
LINE
8
1
62
3
10
5.024039
20
-0.956218
30
0.0
11
5.013074
21
-0.939814
31
0.0
0
LINE
8
1
62
3
10
5.013074
20
-0.939814
30
0.0
11
4.999899
21
-0.90298
31
0.0
0
LINE
8
1
62
3
10
4.999899
20
-0.90298
30
0.0
11
4.996335
21
-0.862936
31
0.0
0
LINE
8
1
62
3
10
4.996335
20
-0.862936
30
0.0
11
5.003689
21
-0.811235
31
0.0
0
LINE
8
1
62
3
10
5.003689
20
-0.811235
30
0.0
11
5.022115
21
-0.740612
31
0.0
0
LINE
8
1
62
3
10
5.022115
20
-0.740612
30
0.0
11
5.085792
21
-0.531108
31
0.0
0
LINE
8
1
62
3
10
5.085792
20
-0.531108
30
0.0
11
5.117547
21
-0.446928
31
0.0
0
LINE
8
1
62
3
10
5.117547
20
-0.446928
30
0.0
11
5.155693
21
-0.382806
31
0.0
0
LINE
8
1
62
3
10
5.155693
20
-0.382806
30
0.0
11
5.202976
21
-0.334625
31
0.0
0
LINE
8
1
62
3
10
5.202976
20
-0.334625
30
0.0
11
5.262162
21
-0.299426
31
0.0
0
LINE
8
1
62
3
10
5.262162
20
-0.299426
30
0.0
11
5.329854
21
-0.277506
31
0.0
0
LINE
8
1
62
3
10
5.329854
20
-0.277506
30
0.0
11
5.401574
21
-0.270206
31
0.0
0
LINE
8
1
62
3
10
5.401574
20
-0.270206
30
0.0
11
5.443997
21
-0.272398
31
0.0
0
LINE
8
1
62
3
10
5.443997
20
-0.272398
30
0.0
11
5.481122
21
-0.278995
31
0.0
0
LINE
8
1
62
3
10
5.481122
20
-0.278995
30
0.0
11
5.512925
21
-0.289996
31
0.0
0
LINE
8
1
62
3
10
5.512925
20
-0.289996
30
0.0
11
5.539429
21
-0.305402
31
0.0
0
LINE
8
1
62
3
10
5.539429
20
-0.305402
30
0.0
11
5.577148
21
-0.345853
31
0.0
0
LINE
8
1
62
3
10
5.577148
20
-0.345853
30
0.0
11
5.593757
21
-0.397965
31
0.0
0
LINE
8
1
62
3
10
5.593757
20
-0.397965
30
0.0
11
5.594659
21
-0.429594
31
0.0
0
LINE
8
1
62
3
10
5.594659
20
-0.429594
30
0.0
11
5.590763
21
-0.467116
31
0.0
0
LINE
8
1
62
3
10
5.590763
20
-0.467116
30
0.0
11
5.582043
21
-0.510497
31
0.0
0
LINE
8
1
62
3
10
5.582043
20
-0.510497
30
0.0
11
5.568559
21
-0.559792
31
0.0
0
LINE
8
1
62
3
10
5.568559
20
-0.559792
30
0.0
11
5.539845
21
-0.655074
31
0.0
0
LINE
8
1
62
3
10
5.360303
20
-0.538149
30
0.0
11
5.376507
21
-0.485665
31
0.0
0
LINE
8
1
62
3
10
5.376507
20
-0.485665
30
0.0
11
5.388696
21
-0.439761
31
0.0
0
LINE
8
1
62
3
10
5.388696
20
-0.439761
30
0.0
11
5.392129
21
-0.413647
31
0.0
0
LINE
8
1
62
3
10
5.392129
20
-0.413647
30
0.0
11
5.386926
21
-0.401468
31
0.0
0
LINE
8
1
62
3
10
5.386926
20
-0.401468
30
0.0
11
5.373169
21
-0.397406
31
0.0
0
LINE
8
1
62
3
10
5.373169
20
-0.397406
30
0.0
11
5.354101
21
-0.400927
31
0.0
0
LINE
8
1
62
3
10
5.354101
20
-0.400927
30
0.0
11
5.341437
21
-0.411484
31
0.0
0
LINE
8
1
62
3
10
5.341437
20
-0.411484
30
0.0
11
5.329854
21
-0.436798
31
0.0
0
LINE
8
1
62
3
10
5.329854
20
-0.436798
30
0.0
11
5.313923
21
-0.485665
31
0.0
0
LINE
8
1
62
3
10
5.313923
20
-0.485665
30
0.0
11
5.297719
21
-0.538149
31
0.0
0
LINE
8
1
62
3
10
5.297719
20
-0.538149
30
0.0
11
5.360303
21
-0.538149
31
0.0
0
LINE
8
1
62
3
10
2.576415
20
-1.05952
30
0.0
11
2.547356
21
-1.158139
31
0.0
0
LINE
8
1
62
3
10
2.547356
20
-1.158139
30
0.0
11
2.522767
21
-1.15976
31
0.0
0
LINE
8
1
62
3
10
2.522767
20
-1.15976
30
0.0
11
2.478401
21
-1.159613
31
0.0
0
LINE
8
1
62
3
10
2.478401
20
-1.159613
30
0.0
11
2.444022
21
-1.152589
31
0.0
0
LINE
8
1
62
3
10
2.444022
20
-1.152589
30
0.0
11
2.419645
21
-1.13869
31
0.0
0
LINE
8
1
62
3
10
2.419645
20
-1.13869
30
0.0
11
2.405271
21
-1.117932
31
0.0
0
LINE
8
1
62
3
10
2.405271
20
-1.117932
30
0.0
11
2.4
21
-1.087269
31
0.0
0
LINE
8
1
62
3
10
2.4
20
-1.087269
30
0.0
11
2.402619
21
-1.043738
31
0.0
0
LINE
8
1
62
3
10
2.402619
20
-1.043738
30
0.0
11
2.413113
21
-0.987356
31
0.0
0
LINE
8
1
62
3
10
2.413113
20
-0.987356
30
0.0
11
2.431482
21
-0.918122
31
0.0
0
LINE
8
1
62
3
10
2.431482
20
-0.918122
30
0.0
11
2.479695
21
-0.754458
31
0.0
0
LINE
8
1
62
3
10
2.479695
20
-0.754458
30
0.0
11
2.492415
21
-0.70682
31
0.0
0
LINE
8
1
62
3
10
2.492415
20
-0.70682
30
0.0
11
2.500109
21
-0.667332
31
0.0
0
LINE
8
1
62
3
10
2.500109
20
-0.667332
30
0.0
11
2.502794
21
-0.635984
31
0.0
0
LINE
8
1
62
3
10
2.502794
20
-0.635984
30
0.0
11
2.500453
21
-0.612786
31
0.0
0
LINE
8
1
62
3
10
2.500453
20
-0.612786
30
0.0
11
2.492677
21
-0.596266
31
0.0
0
LINE
8
1
62
3
10
2.492677
20
-0.596266
30
0.0
11
2.479089
21
-0.585004
31
0.0
0
LINE
8
1
62
3
10
2.479089
20
-0.585004
30
0.0
11
2.459656
21
-0.578994
31
0.0
0
LINE
8
1
62
3
10
2.459656
20
-0.578994
30
0.0
11
2.434428
21
-0.578245
31
0.0
0
LINE
8
1
62
3
10
2.434428
20
-0.578245
30
0.0
11
2.410248
21
-0.579845
31
0.0
0
LINE
8
1
62
3
10
2.410248
20
-0.579845
30
0.0
11
2.439094
21
-0.481948
31
0.0
0
LINE
8
1
62
3
10
2.439094
20
-0.481948
30
0.0
11
2.463291
21
-0.480308
31
0.0
0
LINE
8
1
62
3
10
2.463291
20
-0.480308
30
0.0
11
2.513943
21
-0.467359
31
0.0
0
LINE
8
1
62
3
10
2.513943
20
-0.467359
30
0.0
11
2.552513
21
-0.436093
31
0.0
0
LINE
8
1
62
3
10
2.552513
20
-0.436093
30
0.0
11
2.584846
21
-0.379742
31
0.0
0
LINE
8
1
62
3
10
2.584846
20
-0.379742
30
0.0
11
2.615689
21
-0.292925
31
0.0
0
LINE
8
1
62
3
10
2.615689
20
-0.292925
30
0.0
11
2.664099
21
-0.12858
31
0.0
0
LINE
8
1
62
3
10
2.664099
20
-0.12858
30
0.0
11
2.686609
21
-0.059097
31
0.0
0
LINE
8
1
62
3
10
2.686609
20
-0.059097
30
0.0
11
2.709544
21
-0.002009
31
0.0
0
LINE
8
1
62
3
10
2.709544
20
-0.002009
30
0.0
11
2.732922
21
0.042684
31
0.0
0
LINE
8
1
62
3
10
2.732922
20
0.042684
30
0.0
11
2.756726
21
0.074985
31
0.0
0
LINE
8
1
62
3
10
2.756726
20
0.074985
30
0.0
11
2.784164
21
0.098555
31
0.0
0
LINE
8
1
62
3
10
2.784164
20
0.098555
30
0.0
11
2.817889
21
0.116316
31
0.0
0
LINE
8
1
62
3
10
2.817889
20
0.116316
30
0.0
11
2.857852
21
0.128303
31
0.0
0
LINE
8
1
62
3
10
2.857852
20
0.128303
30
0.0
11
2.9041
21
0.134469
31
0.0
0
LINE
8
1
62
3
10
2.9041
20
0.134469
30
0.0
11
2.928689
21
0.136132
31
0.0
0
LINE
8
1
62
3
10
2.928689
20
0.136132
30
0.0
11
2.899825
21
0.038181
31
0.0
0
LINE
8
1
62
3
10
2.899825
20
0.038181
30
0.0
11
2.872865
21
0.036411
31
0.0
0
LINE
8
1
62
3
10
2.872865
20
0.036411
30
0.0
11
2.824454
21
0.025802
31
0.0
0
LINE
8
1
62
3
10
2.824454
20
0.025802
30
0.0
11
2.791023
21
0.001389
31
0.0
0
LINE
8
1
62
3
10
2.791023
20
0.001389
30
0.0
11
2.777894
21
-0.018301
31
0.0
0
LINE
8
1
62
3
10
2.777894
20
-0.018301
30
0.0
11
2.764469
21
-0.04618
31
0.0
0
LINE
8
1
62
3
10
2.764469
20
-0.04618
30
0.0
11
2.750718
21
-0.082214
31
0.0
0
LINE
8
1
62
3
10
2.750718
20
-0.082214
30
0.0
11
2.736656
21
-0.126433
31
0.0
0
LINE
8
1
62
3
10
2.736656
20
-0.126433
30
0.0
11
2.686626
21
-0.296248
31
0.0
0
LINE
8
1
62
3
10
2.686626
20
-0.296248
30
0.0
11
2.654718
21
-0.389335
31
0.0
0
LINE
8
1
62
3
10
2.654718
20
-0.389335
30
0.0
11
2.622384
21
-0.453591
31
0.0
0
LINE
8
1
62
3
10
2.622384
20
-0.453591
30
0.0
11
2.58609
21
-0.495946
31
0.0
0
LINE
8
1
62
3
10
2.58609
20
-0.495946
30
0.0
11
2.541545
21
-0.52343
31
0.0
0
LINE
8
1
62
3
10
2.541545
20
-0.52343
30
0.0
11
2.558636
21
-0.533203
31
0.0
0
LINE
8
1
62
3
10
2.558636
20
-0.533203
30
0.0
11
2.571356
21
-0.546959
31
0.0
0
LINE
8
1
62
3
10
2.571356
20
-0.546959
30
0.0
11
2.579672
21
-0.564703
31
0.0
0
LINE
8
1
62
3
10
2.579672
20
-0.564703
30
0.0
11
2.583634
21
-0.586429
31
0.0
0
LINE
8
1
62
3
10
2.583634
20
-0.586429
30
0.0
11
2.583192
21
-0.613851
31
0.0
0
LINE
8
1
62
3
10
2.583192
20
-0.613851
30
0.0
11
2.578395
21
-0.648686
31
0.0
0
LINE
8
1
62
3
10
2.578395
20
-0.648686
30
0.0
11
2.569212
21
-0.690957
31
0.0
0
LINE
8
1
62
3
10
2.569212
20
-0.690957
30
0.0
11
2.555672
21
-0.740675
31
0.0
0
LINE
8
1
62
3
10
2.555672
20
-0.740675
30
0.0
11
2.505643
21
-0.910511
31
0.0
0
LINE
8
1
62
3
10
2.505643
20
-0.910511
30
0.0
11
2.493692
21
-0.954549
31
0.0
0
LINE
8
1
62
3
10
2.493692
20
-0.954549
30
0.0
11
2.486341
21
-0.990155
31
0.0
0
LINE
8
1
62
3
10
2.486341
20
-0.990155
30
0.0
11
2.483558
21
-1.017332
31
0.0
0
LINE
8
1
62
3
10
2.483558
20
-1.017332
30
0.0
11
2.485359
21
-1.03606
31
0.0
0
LINE
8
1
62
3
10
2.485359
20
-1.03606
30
0.0
11
2.492431
21
-1.048501
31
0.0
0
LINE
8
1
62
3
10
2.492431
20
-1.048501
30
0.0
11
2.505463
21
-1.056851
31
0.0
0
LINE
8
1
62
3
10
2.505463
20
-1.056851
30
0.0
11
2.52447
21
-1.061124
31
0.0
0
LINE
8
1
62
3
10
2.52447
20
-1.061124
30
0.0
11
2.549452
21
-1.061303
31
0.0
0
LINE
8
1
62
3
10
2.549452
20
-1.061303
30
0.0
11
2.576415
21
-1.05952
31
0.0
0
LINE
8
1
62
3
10
5.659988
20
-0.037555
30
0.0
11
5.68534
21
0.058318
31
0.0
0
LINE
8
1
62
3
10
5.68534
20
0.058318
30
0.0
11
5.708054
21
0.059494
31
0.0
0
LINE
8
1
62
3
10
5.708054
20
0.059494
30
0.0
11
5.749135
21
0.058579
31
0.0
0
LINE
8
1
62
3
10
5.749135
20
0.058579
30
0.0
11
5.781057
21
0.051107
31
0.0
0
LINE
8
1
62
3
10
5.781057
20
0.051107
30
0.0
11
5.803843
21
0.0371
31
0.0
0
LINE
8
1
62
3
10
5.803843
20
0.0371
30
0.0
11
5.817481
21
0.016536
31
0.0
0
LINE
8
1
62
3
10
5.817481
20
0.016536
30
0.0
11
5.822815
21
-0.013506
31
0.0
0
LINE
8
1
62
3
10
5.822815
20
-0.013506
30
0.0
11
5.82108
21
-0.055987
31
0.0
0
LINE
8
1
62
3
10
5.82108
20
-0.055987
30
0.0
11
5.812277
21
-0.110914
31
0.0
0
LINE
8
1
62
3
10
5.812277
20
-0.110914
30
0.0
11
5.796382
21
-0.178281
31
0.0
0
LINE
8
1
62
3
10
5.796382
20
-0.178281
30
0.0
11
5.754327
21
-0.337392
31
0.0
0
LINE
8
1
62
3
10
5.754327
20
-0.337392
30
0.0
11
5.74329
21
-0.383719
31
0.0
0
LINE
8
1
62
3
10
5.74329
20
-0.383719
30
0.0
11
5.736792
21
-0.422176
31
0.0
0
LINE
8
1
62
3
10
5.736792
20
-0.422176
30
0.0
11
5.734796
21
-0.452774
31
0.0
0
LINE
8
1
62
3
10
5.734796
20
-0.452774
30
0.0
11
5.737326
21
-0.475531
31
0.0
0
LINE
8
1
62
3
10
5.737326
20
-0.475531
30
0.0
11
5.744775
21
-0.491788
31
0.0
0
LINE
8
1
62
3
10
5.744775
20
-0.491788
30
0.0
11
5.757534
21
-0.503032
31
0.0
0
LINE
8
1
62
3
10
5.757534
20
-0.503032
30
0.0
11
5.775604
21
-0.509256
31
0.0
0
LINE
8
1
62
3
10
5.775604
20
-0.509256
30
0.0
11
5.798984
21
-0.510434
31
0.0
0
LINE
8
1
62
3
10
5.798984
20
-0.510434
30
0.0
11
5.821342
21
-0.509268
31
0.0
0
LINE
8
1
62
3
10
5.821342
20
-0.509268
30
0.0
11
5.79618
21
-0.604467
31
0.0
0
LINE
8
1
62
3
10
5.79618
20
-0.604467
30
0.0
11
5.773822
21
-0.60565
31
0.0
0
LINE
8
1
62
3
10
5.773822
20
-0.60565
30
0.0
11
5.727133
21
-0.617401
31
0.0
0
LINE
8
1
62
3
10
5.727133
20
-0.617401
30
0.0
11
5.691933
21
-0.647278
31
0.0
0
LINE
8
1
62
3
10
5.691933
20
-0.647278
30
0.0
11
5.662874
21
-0.701812
31
0.0
0
LINE
8
1
62
3
10
5.662874
20
-0.701812
30
0.0
11
5.635717
21
-0.786122
31
0.0
0
LINE
8
1
62
3
10
5.635717
20
-0.786122
30
0.0
11
5.593471
21
-0.945905
31
0.0
0
LINE
8
1
62
3
10
5.593471
20
-0.945905
30
0.0
11
5.573715
21
-1.013419
31
0.0
0
LINE
8
1
62
3
10
5.573715
20
-1.013419
30
0.0
11
5.553376
21
-1.068819
31
0.0
0
LINE
8
1
62
3
10
5.553376
20
-1.068819
30
0.0
11
5.532456
21
-1.112087
31
0.0
0
LINE
8
1
62
3
10
5.532456
20
-1.112087
30
0.0
11
5.510953
21
-1.143258
31
0.0
0
LINE
8
1
62
3
10
5.510953
20
-1.143258
30
0.0
11
5.485898
21
-1.165801
31
0.0
0
LINE
8
1
62
3
10
5.485898
20
-1.165801
30
0.0
11
5.454974
21
-1.182581
31
0.0
0
LINE
8
1
62
3
10
5.454974
20
-1.182581
30
0.0
11
5.41817
21
-1.193583
31
0.0
0
LINE
8
1
62
3
10
5.41817
20
-1.193583
30
0.0
11
5.375473
21
-1.198838
31
0.0
0
LINE
8
1
62
3
10
5.375473
20
-1.198838
30
0.0
11
5.352735
21
-1.200016
31
0.0
0
LINE
8
1
62
3
10
5.352735
20
-1.200016
30
0.0
11
5.377897
21
-1.104785
31
0.0
0
LINE
8
1
62
3
10
5.377897
20
-1.104785
30
0.0
11
5.402833
21
-1.103509
31
0.0
0
LINE
8
1
62
3
10
5.402833
20
-1.103509
30
0.0
11
5.447478
21
-1.093964
31
0.0
0
LINE
8
1
62
3
10
5.447478
20
-1.093964
30
0.0
11
5.478045
21
-1.070717
31
0.0
0
LINE
8
1
62
3
10
5.478045
20
-1.070717
30
0.0
11
5.501865
21
-1.024665
31
0.0
0
LINE
8
1
62
3
10
5.501865
20
-1.024665
30
0.0
11
5.526349
21
-0.946739
31
0.0
0
LINE
8
1
62
3
10
5.526349
20
-0.946739
30
0.0
11
5.569997
21
-0.781636
31
0.0
0
LINE
8
1
62
3
10
5.569997
20
-0.781636
30
0.0
11
5.598045
21
-0.691205
31
0.0
0
LINE
8
1
62
3
10
5.598045
20
-0.691205
30
0.0
11
5.626985
21
-0.628959
31
0.0
0
LINE
8
1
62
3
10
5.626985
20
-0.628959
30
0.0
11
5.659893
21
-0.588181
31
0.0
0
LINE
8
1
62
3
10
5.659893
20
-0.588181
30
0.0
11
5.700712
21
-0.562134
31
0.0
0
LINE
8
1
62
3
10
5.700712
20
-0.562134
30
0.0
11
5.684734
21
-0.55226
31
0.0
0
LINE
8
1
62
3
10
5.684734
20
-0.55226
30
0.0
11
5.672747
21
-0.538593
31
0.0
0
LINE
8
1
62
3
10
5.672747
20
-0.538593
30
0.0
11
5.664763
21
-0.521125
31
0.0
0
LINE
8
1
62
3
10
5.664763
20
-0.521125
30
0.0
11
5.66076
21
-0.499839
31
0.0
0
LINE
8
1
62
3
10
5.66076
20
-0.499839
30
0.0
11
5.660712
21
-0.473025
31
0.0
0
LINE
8
1
62
3
10
5.660712
20
-0.473025
30
0.0
11
5.664609
21
-0.43904
31
0.0
0
LINE
8
1
62
3
10
5.664609
20
-0.43904
30
0.0
11
5.672438
21
-0.39788
31
0.0
0
LINE
8
1
62
3
10
5.672438
20
-0.39788
30
0.0
11
5.684199
21
-0.349537
31
0.0
0
LINE
8
1
62
3
10
5.684199
20
-0.349537
30
0.0
11
5.727846
21
-0.184437
31
0.0
0
LINE
8
1
62
3
10
5.727846
20
-0.184437
30
0.0
11
5.738194
21
-0.141575
31
0.0
0
LINE
8
1
62
3
10
5.738194
20
-0.141575
30
0.0
11
5.744431
21
-0.106887
31
0.0
0
LINE
8
1
62
3
10
5.744431
20
-0.106887
30
0.0
11
5.746581
21
-0.080396
31
0.0
0
LINE
8
1
62
3
10
5.746581
20
-0.080396
30
0.0
11
5.744633
21
-0.06206
31
0.0
0
LINE
8
1
62
3
10
5.744633
20
-0.06206
30
0.0
11
5.737885
21
-0.049768
31
0.0
0
LINE
8
1
62
3
10
5.737885
20
-0.049768
30
0.0
11
5.725696
21
-0.041369
31
0.0
0
LINE
8
1
62
3
10
5.725696
20
-0.041369
30
0.0
11
5.708042
21
-0.036851
31
0.0
0
LINE
8
1
62
3
10
5.708042
20
-0.036851
30
0.0
11
5.684924
21
-0.036244
31
0.0
0
LINE
8
1
62
3
10
5.684924
20
-0.036244
30
0.0
11
5.659988
21
-0.037555
31
0.0
0
LINE
8
1
62
3
10
5.317939
20
-1.127427
30
0.0
11
5.310858
21
-1.131716
31
0.0
0
LINE
8
1
62
3
10
5.310858
20
-1.131716
30
0.0
11
5.290116
21
-1.135891
31
0.0
0
LINE
8
1
62
3
10
5.290116
20
-1.135891
30
0.0
11
5.2564
21
-1.139935
31
0.0
0
LINE
8
1
62
3
10
5.2564
20
-1.139935
30
0.0
11
5.210365
21
-1.143798
31
0.0
0
LINE
8
1
62
3
10
5.210365
20
-1.143798
30
0.0
11
5.152723
21
-1.147465
31
0.0
0
LINE
8
1
62
3
10
5.152723
20
-1.147465
30
0.0
11
5.084152
21
-1.150936
31
0.0
0
LINE
8
1
62
3
10
5.084152
20
-1.150936
30
0.0
11
5.005364
21
-1.154177
31
0.0
0
LINE
8
1
62
3
10
5.005364
20
-1.154177
30
0.0
11
4.917012
21
-1.157157
31
0.0
0
LINE
8
1
62
3
10
4.917012
20
-1.157157
30
0.0
11
4.81981
21
-1.159874
31
0.0
0
LINE
8
1
62
3
10
4.81981
20
-1.159874
30
0.0
11
4.714435
21
-1.162297
31
0.0
0
LINE
8
1
62
3
10
4.714435
20
-1.162297
30
0.0
11
4.601563
21
-1.164393
31
0.0
0
LINE
8
1
62
3
10
4.601563
20
-1.164393
30
0.0
11
4.481931
21
-1.166177
31
0.0
0
LINE
8
1
62
3
10
4.481931
20
-1.166177
30
0.0
11
4.356169
21
-1.167585
31
0.0
0
LINE
8
1
62
3
10
4.356169
20
-1.167585
30
0.0
11
4.224991
21
-1.168617
31
0.0
0
LINE
8
1
62
3
10
4.224991
20
-1.168617
30
0.0
11
4.089071
21
-1.169255
31
0.0
0
LINE
8
1
62
3
10
4.089071
20
-1.169255
30
0.0
11
3.949125
21
-1.169484
31
0.0
0
LINE
8
1
62
3
10
3.949125
20
-1.169484
30
0.0
11
3.809179
21
-1.169255
31
0.0
0
LINE
8
1
62
3
10
3.809179
20
-1.169255
30
0.0
11
3.67326
21
-1.168617
31
0.0
0
LINE
8
1
62
3
10
3.67326
20
-1.168617
30
0.0
11
3.542079
21
-1.167585
31
0.0
0
LINE
8
1
62
3
10
3.542079
20
-1.167585
30
0.0
11
3.416315
21
-1.166177
31
0.0
0
LINE
8
1
62
3
10
3.416315
20
-1.166177
30
0.0
11
3.296679
21
-1.164393
31
0.0
0
LINE
8
1
62
3
10
3.296679
20
-1.164393
30
0.0
11
3.183815
21
-1.162297
31
0.0
0
LINE
8
1
62
3
10
3.183815
20
-1.162297
30
0.0
11
3.078433
21
-1.159874
31
0.0
0
LINE
8
1
62
3
10
3.078433
20
-1.159874
30
0.0
11
2.98124
21
-1.157157
31
0.0
0
LINE
8
1
62
3
10
2.98124
20
-1.157157
30
0.0
11
2.892885
21
-1.154177
31
0.0
0
LINE
8
1
62
3
10
2.892885
20
-1.154177
30
0.0
11
2.814091
21
-1.150936
31
0.0
0
LINE
8
1
62
3
10
2.814091
20
-1.150936
30
0.0
11
2.745529
21
-1.147465
31
0.0
0
LINE
8
1
62
3
10
2.745529
20
-1.147465
30
0.0
11
2.687886
21
-1.143798
31
0.0
0
LINE
8
1
62
3
10
2.687886
20
-1.143798
30
0.0
11
2.64185
21
-1.139935
31
0.0
0
LINE
8
1
62
3
10
2.64185
20
-1.139935
30
0.0
11
2.608126
21
-1.135891
31
0.0
0
LINE
8
1
62
3
10
2.608126
20
-1.135891
30
0.0
11
2.587384
21
-1.131716
31
0.0
0
LINE
8
1
62
3
10
2.587384
20
-1.131716
30
0.0
11
2.580328
21
-1.127427
31
0.0
0
LINE
8
1
62
3
10
2.580328
20
-1.127427
30
0.0
11
2.587384
21
-1.123121
31
0.0
0
LINE
8
1
62
3
10
2.587384
20
-1.123121
30
0.0
11
2.608126
21
-1.118947
31
0.0
0
LINE
8
1
62
3
10
2.608126
20
-1.118947
30
0.0
11
2.64185
21
-1.114919
31
0.0
0
LINE
8
1
62
3
10
2.64185
20
-1.114919
30
0.0
11
2.687886
21
-1.111056
31
0.0
0
LINE
8
1
62
3
10
2.687886
20
-1.111056
30
0.0
11
2.745529
21
-1.107372
31
0.0
0
LINE
8
1
62
3
10
2.745529
20
-1.107372
30
0.0
11
2.814091
21
-1.103918
31
0.0
0
LINE
8
1
62
3
10
2.814091
20
-1.103918
30
0.0
11
2.892885
21
-1.100677
31
0.0
0
LINE
8
1
62
3
10
2.892885
20
-1.100677
30
0.0
11
2.98124
21
-1.097681
31
0.0
0
LINE
8
1
62
3
10
2.98124
20
-1.097681
30
0.0
11
3.078433
21
-1.094963
31
0.0
0
LINE
8
1
62
3
10
3.078433
20
-1.094963
30
0.0
11
3.183815
21
-1.09254
31
0.0
0
LINE
8
1
62
3
10
3.183815
20
-1.09254
30
0.0
11
3.296679
21
-1.090445
31
0.0
0
LINE
8
1
62
3
10
3.296679
20
-1.090445
30
0.0
11
3.416315
21
-1.088677
31
0.0
0
LINE
8
1
62
3
10
3.416315
20
-1.088677
30
0.0
11
3.542079
21
-1.087253
31
0.0
0
LINE
8
1
62
3
10
3.542079
20
-1.087253
30
0.0
11
3.67326
21
-1.086221
31
0.0
0
LINE
8
1
62
3
10
3.67326
20
-1.086221
30
0.0
11
3.809179
21
-1.085582
31
0.0
0
LINE
8
1
62
3
10
3.809179
20
-1.085582
30
0.0
11
3.949125
21
-1.085369
31
0.0
0
LINE
8
1
62
3
10
3.949125
20
-1.085369
30
0.0
11
4.089071
21
-1.085582
31
0.0
0
LINE
8
1
62
3
10
4.089071
20
-1.085582
30
0.0
11
4.224991
21
-1.086221
31
0.0
0
LINE
8
1
62
3
10
4.224991
20
-1.086221
30
0.0
11
4.356169
21
-1.087253
31
0.0
0
LINE
8
1
62
3
10
4.356169
20
-1.087253
30
0.0
11
4.481931
21
-1.088677
31
0.0
0
LINE
8
1
62
3
10
4.481931
20
-1.088677
30
0.0
11
4.601563
21
-1.090445
31
0.0
0
LINE
8
1
62
3
10
4.601563
20
-1.090445
30
0.0
11
4.714435
21
-1.09254
31
0.0
0
LINE
8
1
62
3
10
4.714435
20
-1.09254
30
0.0
11
4.81981
21
-1.094963
31
0.0
0
LINE
8
1
62
3
10
4.81981
20
-1.094963
30
0.0
11
4.917012
21
-1.097681
31
0.0
0
LINE
8
1
62
3
10
4.917012
20
-1.097681
30
0.0
11
5.005364
21
-1.100677
31
0.0
0
LINE
8
1
62
3
10
5.005364
20
-1.100677
30
0.0
11
5.084152
21
-1.103918
31
0.0
0
LINE
8
1
62
3
10
5.084152
20
-1.103918
30
0.0
11
5.152723
21
-1.107372
31
0.0
0
LINE
8
1
62
3
10
5.152723
20
-1.107372
30
0.0
11
5.210365
21
-1.111056
31
0.0
0
LINE
8
1
62
3
10
5.210365
20
-1.111056
30
0.0
11
5.2564
21
-1.114919
31
0.0
0
LINE
8
1
62
3
10
5.2564
20
-1.114919
30
0.0
11
5.290116
21
-1.118947
31
0.0
0
LINE
8
1
62
3
10
5.290116
20
-1.118947
30
0.0
11
5.310858
21
-1.123121
31
0.0
0
LINE
8
1
62
3
10
5.310858
20
-1.123121
30
0.0
11
5.317939
21
-1.127427
31
0.0
0
LINE
8
1
62
3
10
4.313093
20
-1.008867
30
0.0
11
4.279781
21
-1.008671
31
0.0
0
LINE
8
1
62
3
10
4.279781
20
-1.008671
30
0.0
11
4.243191
21
-1.011929
31
0.0
0
LINE
8
1
62
3
10
4.243191
20
-1.011929
30
0.0
11
4.215641
21
-1.021735
31
0.0
0
LINE
8
1
62
3
10
4.215641
20
-1.021735
30
0.0
11
4.195302
21
-1.038058
31
0.0
0
LINE
8
1
62
3
10
4.195302
20
-1.038058
30
0.0
11
4.188543
21
-1.056867
31
0.0
0
LINE
8
1
62
3
10
4.188543
20
-1.056867
30
0.0
11
4.195089
21
-1.074205
31
0.0
0
LINE
8
1
62
3
10
4.195089
20
-1.074205
30
0.0
11
4.204509
21
-1.08131
31
0.0
0
LINE
8
1
62
3
10
4.204509
20
-1.08131
30
0.0
11
4.219062
21
-1.087089
31
0.0
0
LINE
8
1
62
3
10
4.219062
20
-1.087089
30
0.0
11
4.239437
21
-1.090903
31
0.0
0
LINE
8
1
62
3
10
4.239437
20
-1.090903
30
0.0
11
4.265763
21
-1.09218
31
0.0
0
LINE
8
1
62
3
10
4.265763
20
-1.09218
30
0.0
11
4.296116
21
-1.090134
31
0.0
0
LINE
8
1
62
3
10
4.296116
20
-1.090134
30
0.0
11
4.328038
21
-1.084011
31
0.0
0
LINE
8
1
62
3
10
4.328038
20
-1.084011
30
0.0
11
4.358142
21
-1.075024
31
0.0
0
LINE
8
1
62
3
10
4.358142
20
-1.075024
30
0.0
11
4.383149
21
-1.064398
31
0.0
0
LINE
8
1
62
3
10
4.383149
20
-1.064398
30
0.0
11
4.402288
21
-1.052136
31
0.0
0
LINE
8
1
62
3
10
4.402288
20
-1.052136
30
0.0
11
4.408667
21
-1.041528
31
0.0
0
LINE
8
1
62
3
10
4.408667
20
-1.041528
30
0.0
11
4.406802
21
-1.037747
31
0.0
0
LINE
8
1
62
3
10
4.406802
20
-1.037747
30
0.0
11
4.401207
21
-1.035814
31
0.0
0
LINE
8
1
62
3
10
4.401207
20
-1.035814
30
0.0
11
4.393413
21
-1.033162
31
0.0
0
LINE
8
1
62
3
10
4.393413
20
-1.033162
30
0.0
11
4.398094
21
-1.031542
31
0.0
0
LINE
8
1
62
3
10
4.398094
20
-1.031542
30
0.0
11
4.406802
21
-1.032966
31
0.0
0
LINE
8
1
62
3
10
4.406802
20
-1.032966
30
0.0
11
4.417316
21
-1.038582
31
0.0
0
LINE
8
1
62
3
10
4.417316
20
-1.038582
30
0.0
11
4.42082
21
-1.045637
31
0.0
0
LINE
8
1
62
3
10
4.42082
20
-1.045637
30
0.0
11
4.414738
21
-1.057309
31
0.0
0
LINE
8
1
62
3
10
4.414738
20
-1.057309
30
0.0
11
4.396538
21
-1.069507
31
0.0
0
LINE
8
1
62
3
10
4.396538
20
-1.069507
30
0.0
11
4.369356
21
-1.080687
31
0.0
0
LINE
8
1
62
3
10
4.369356
20
-1.080687
30
0.0
11
4.335819
21
-1.089331
31
0.0
0
LINE
8
1
62
3
10
4.335819
20
-1.089331
30
0.0
11
4.26701
21
-1.096682
31
0.0
0
LINE
8
1
62
3
10
4.26701
20
-1.096682
30
0.0
11
4.237963
21
-1.095651
31
0.0
0
LINE
8
1
62
3
10
4.237963
20
-1.095651
30
0.0
11
4.215011
21
-1.092573
31
0.0
0
LINE
8
1
62
3
10
4.215011
20
-1.092573
30
0.0
11
4.198961
21
-1.088234
31
0.0
0
LINE
8
1
62
3
10
4.198961
20
-1.088234
30
0.0
11
4.185977
21
-1.082423
31
0.0
0
LINE
8
1
62
3
10
4.185977
20
-1.082423
30
0.0
11
4.176069
21
-1.075089
31
0.0
0
LINE
8
1
62
3
10
4.176069
20
-1.075089
30
0.0
11
4.169238
21
-1.066248
31
0.0
0
LINE
8
1
62
3
10
4.169238
20
-1.066248
30
0.0
11
4.166446
21
-1.056867
31
0.0
0
LINE
8
1
62
3
10
4.166446
20
-1.056867
30
0.0
11
4.168929
21
-1.045833
31
0.0
0
LINE
8
1
62
3
10
4.168929
20
-1.045833
30
0.0
11
4.180144
21
-1.030526
31
0.0
0
LINE
8
1
62
3
10
4.180144
20
-1.030526
30
0.0
11
4.1908
21
-1.022242
31
0.0
0
LINE
8
1
62
3
10
4.1908
20
-1.022242
30
0.0
11
4.205353
21
-1.014597
31
0.0
0
LINE
8
1
62
3
10
4.205353
20
-1.014597
30
0.0
11
4.240541
21
-1.003776
31
0.0
0
LINE
8
1
62
3
10
4.240541
20
-1.003776
30
0.0
11
4.274471
21
-0.999666
31
0.0
0
LINE
8
1
62
3
10
4.274471
20
-0.999666
30
0.0
11
4.248014
21
-0.989484
31
0.0
0
LINE
8
1
62
3
10
4.248014
20
-0.989484
30
0.0
11
4.239829
21
-0.982673
31
0.0
0
LINE
8
1
62
3
10
4.239829
20
-0.982673
30
0.0
11
4.23712
21
-0.975372
31
0.0
0
LINE
8
1
62
3
10
4.23712
20
-0.975372
30
0.0
11
4.23712
21
-0.974145
31
0.0
0
LINE
8
1
62
3
10
4.23712
20
-0.974145
30
0.0
11
4.245282
21
-0.958477
31
0.0
0
LINE
8
1
62
3
10
4.245282
20
-0.958477
30
0.0
11
4.265454
21
-0.944546
31
0.0
0
LINE
8
1
62
3
10
4.265454
20
-0.944546
30
0.0
11
4.292219
21
-0.933364
31
0.0
0
LINE
8
1
62
3
10
4.292219
20
-0.933364
30
0.0
11
4.320244
21
-0.926374
31
0.0
0
LINE
8
1
62
3
10
4.320244
20
-0.926374
30
0.0
11
4.346927
21
-0.922526
31
0.0
0
LINE
8
1
62
3
10
4.346927
20
-0.922526
30
0.0
11
4.36976
21
-0.921249
31
0.0
0
LINE
8
1
62
3
10
4.36976
20
-0.921249
30
0.0
11
4.382519
21
-0.921675
31
0.0
0
LINE
8
1
62
3
10
4.382519
20
-0.921675
30
0.0
11
4.404687
21
-0.924834
31
0.0
0
LINE
8
1
62
3
10
4.404687
20
-0.924834
30
0.0
11
4.419573
21
-0.930254
31
0.0
0
LINE
8
1
62
3
10
4.419573
20
-0.930254
30
0.0
11
4.427972
21
-0.936622
31
0.0
0
LINE
8
1
62
3
10
4.427972
20
-0.936622
30
0.0
11
4.430788
21
-0.943105
31
0.0
0
LINE
8
1
62
3
10
4.430788
20
-0.943105
30
0.0
11
4.426725
21
-0.952142
31
0.0
0
LINE
8
1
62
3
10
4.426725
20
-0.952142
30
0.0
11
4.414595
21
-0.960867
31
0.0
0
LINE
8
1
62
3
10
4.414595
20
-0.960867
30
0.0
11
4.397001
21
-0.967956
31
0.0
0
LINE
8
1
62
3
10
4.397001
20
-0.967956
30
0.0
11
4.375973
21
-0.972524
31
0.0
0
LINE
8
1
62
3
10
4.375973
20
-0.972524
30
0.0
11
4.366648
21
-0.973343
31
0.0
0
LINE
8
1
62
3
10
4.366648
20
-0.973343
30
0.0
11
4.363535
21
-0.972098
31
0.0
0
LINE
8
1
62
3
10
4.363535
20
-0.972098
30
0.0
11
4.36679
21
-0.970101
31
0.0
0
LINE
8
1
62
3
10
4.36679
20
-0.970101
30
0.0
11
4.374108
21
-0.969053
31
0.0
0
LINE
8
1
62
3
10
4.374108
20
-0.969053
30
0.0
11
4.392166
21
-0.964158
31
0.0
0
LINE
8
1
62
3
10
4.392166
20
-0.964158
30
0.0
11
4.405852
21
-0.954549
31
0.0
0
LINE
8
1
62
3
10
4.405852
20
-0.954549
30
0.0
11
4.412089
21
-0.942515
31
0.0
0
LINE
8
1
62
3
10
4.412089
20
-0.942515
30
0.0
11
4.412089
21
-0.941288
31
0.0
0
LINE
8
1
62
3
10
4.412089
20
-0.941288
30
0.0
11
4.410223
21
-0.936377
31
0.0
0
LINE
8
1
62
3
10
4.410223
20
-0.936377
30
0.0
11
4.404628
21
-0.931874
31
0.0
0
LINE
8
1
62
3
10
4.404628
20
-0.931874
30
0.0
11
4.392083
21
-0.927584
31
0.0
0
LINE
8
1
62
3
10
4.392083
20
-0.927584
30
0.0
11
4.37317
21
-0.926161
31
0.0
0
LINE
8
1
62
3
10
4.37317
20
-0.926161
30
0.0
11
4.327396
21
-0.930859
31
0.0
0
LINE
8
1
62
3
10
4.327396
20
-0.930859
30
0.0
11
4.304682
21
-0.936868
31
0.0
0
LINE
8
1
62
3
10
4.304682
20
-0.936868
30
0.0
11
4.28382
21
-0.945985
31
0.0
0
LINE
8
1
62
3
10
4.28382
20
-0.945985
30
0.0
11
4.26606
21
-0.959197
31
0.0
0
LINE
8
1
62
3
10
4.26606
20
-0.959197
30
0.0
11
4.260143
21
-0.973555
31
0.0
0
LINE
8
1
62
3
10
4.260143
20
-0.973555
30
0.0
11
4.265454
21
-0.984377
31
0.0
0
LINE
8
1
62
3
10
4.265454
20
-0.984377
30
0.0
11
4.281337
21
-0.991727
31
0.0
0
LINE
8
1
62
3
10
4.281337
20
-0.991727
30
0.0
11
4.302508
21
-0.99559
31
0.0
0
LINE
8
1
62
3
10
4.302508
20
-0.99559
30
0.0
11
4.320482
21
-0.999356
31
0.0
0
LINE
8
1
62
3
10
4.320482
20
-0.999356
30
0.0
11
4.326469
21
-1.004169
31
0.0
0
LINE
8
1
62
3
10
4.326469
20
-1.004169
30
0.0
11
4.323119
21
-1.007689
31
0.0
0
LINE
8
1
62
3
10
4.323119
20
-1.007689
30
0.0
11
4.313093
21
-1.008867
31
0.0
0
LINE
8
1
62
3
10
4.525258
20
-1.018477
30
0.0
11
4.508495
21
-1.038597
31
0.0
0
LINE
8
1
62
3
10
4.508495
20
-1.038597
30
0.0
11
4.496532
21
-1.054902
31
0.0
0
LINE
8
1
62
3
10
4.496532
20
-1.054902
30
0.0
11
4.489368
21
-1.067378
31
0.0
0
LINE
8
1
62
3
10
4.489368
20
-1.067378
30
0.0
11
4.486968
21
-1.076055
31
0.0
0
LINE
8
1
62
3
10
4.486968
20
-1.076055
30
0.0
11
4.488441
21
-1.080017
31
0.0
0
LINE
8
1
62
3
10
4.488441
20
-1.080017
30
0.0
11
4.492885
21
-1.081342
31
0.0
0
LINE
8
1
62
3
10
4.492885
20
-1.081342
30
0.0
11
4.501486
21
-1.079133
31
0.0
0
LINE
8
1
62
3
10
4.501486
20
-1.079133
30
0.0
11
4.511477
21
-1.072518
31
0.0
0
LINE
8
1
62
3
10
4.511477
20
-1.072518
30
0.0
11
4.522822
21
-1.061484
31
0.0
0
LINE
8
1
62
3
10
4.522822
20
-1.061484
30
0.0
11
4.535522
21
-1.046046
31
0.0
0
LINE
8
1
62
3
10
4.535522
20
-1.046046
30
0.0
11
4.539276
21
-1.043788
31
0.0
0
LINE
8
1
62
3
10
4.539276
20
-1.043788
30
0.0
11
4.541141
21
-1.045408
31
0.0
0
LINE
8
1
62
3
10
4.541141
20
-1.045408
30
0.0
11
4.539894
21
-1.047864
31
0.0
0
LINE
8
1
62
3
10
4.539894
20
-1.047864
30
0.0
11
4.524628
21
-1.066346
31
0.0
0
LINE
8
1
62
3
10
4.524628
20
-1.066346
30
0.0
11
4.511869
21
-1.078085
31
0.0
0
LINE
8
1
62
3
10
4.511869
20
-1.078085
30
0.0
11
4.500571
21
-1.084207
31
0.0
0
LINE
8
1
62
3
10
4.500571
20
-1.084207
30
0.0
11
4.489154
21
-1.086254
31
0.0
0
LINE
8
1
62
3
10
4.489154
20
-1.086254
30
0.0
11
4.479258
21
-1.084813
31
0.0
0
LINE
8
1
62
3
10
4.479258
20
-1.084813
30
0.0
11
4.472023
21
-1.080541
31
0.0
0
LINE
8
1
62
3
10
4.472023
20
-1.080541
30
0.0
11
4.468899
21
-1.073402
31
0.0
0
LINE
8
1
62
3
10
4.468899
20
-1.073402
30
0.0
11
4.472023
21
-1.062155
31
0.0
0
LINE
8
1
62
3
10
4.472023
20
-1.062155
30
0.0
11
4.477856
21
-1.053577
31
0.0
0
LINE
8
1
62
3
10
4.477856
20
-1.053577
30
0.0
11
4.489154
21
-1.040939
31
0.0
0
LINE
8
1
62
3
10
4.489154
20
-1.040939
30
0.0
11
4.492564
21
-1.035224
31
0.0
0
LINE
8
1
62
3
10
4.492564
20
-1.035224
30
0.0
11
4.487289
21
-1.032966
31
0.0
0
LINE
8
1
62
3
10
4.487289
20
-1.032966
30
0.0
11
4.479555
21
-1.035258
31
0.0
0
LINE
8
1
62
3
10
4.479555
20
-1.035258
30
0.0
11
4.467034
21
-1.042166
31
0.0
0
LINE
8
1
62
3
10
4.467034
20
-1.042166
30
0.0
11
4.444996
21
-1.05898
31
0.0
0
LINE
8
1
62
3
10
4.444996
20
-1.05898
30
0.0
11
4.423767
21
-1.08257
31
0.0
0
LINE
8
1
62
3
10
4.423767
20
-1.08257
30
0.0
11
4.419407
21
-1.085222
31
0.0
0
LINE
8
1
62
3
10
4.419407
20
-1.085222
30
0.0
11
4.410366
21
-1.085861
31
0.0
0
LINE
8
1
62
3
10
4.410366
20
-1.085861
30
0.0
11
4.401337
21
-1.086876
31
0.0
0
LINE
8
1
62
3
10
4.401337
20
-1.086876
30
0.0
11
4.408727
21
-1.076905
31
0.0
0
LINE
8
1
62
3
10
4.408727
20
-1.076905
30
0.0
11
4.420963
21
-1.060109
31
0.0
0
LINE
8
1
62
3
10
4.420963
20
-1.060109
30
0.0
11
4.432902
21
-1.044147
31
0.0
0
LINE
8
1
62
3
10
4.432902
20
-1.044147
30
0.0
11
4.442585
21
-1.032032
31
0.0
0
LINE
8
1
62
3
10
4.442585
20
-1.032032
30
0.0
11
4.450021
21
-1.023733
31
0.0
0
LINE
8
1
62
3
10
4.450021
20
-1.023733
30
0.0
11
4.455213
21
-1.019296
31
0.0
0
LINE
8
1
62
3
10
4.455213
20
-1.019296
30
0.0
11
4.465477
21
-1.01684
31
0.0
0
LINE
8
1
62
3
10
4.465477
20
-1.01684
30
0.0
11
4.471714
21
-1.017429
31
0.0
0
LINE
8
1
62
3
10
4.471714
20
-1.017429
30
0.0
11
4.479484
21
-1.017642
31
0.0
0
LINE
8
1
62
3
10
4.479484
20
-1.017642
30
0.0
11
4.472807
21
-1.021572
31
0.0
0
LINE
8
1
62
3
10
4.472807
20
-1.021572
30
0.0
11
4.464313
21
-1.029282
31
0.0
0
LINE
8
1
62
3
10
4.464313
20
-1.029282
30
0.0
11
4.453966
21
-1.040758
31
0.0
0
LINE
8
1
62
3
10
4.453966
20
-1.040758
30
0.0
11
4.441824
21
-1.056032
31
0.0
0
LINE
8
1
62
3
10
4.441824
20
-1.056032
30
0.0
11
4.468269
21
-1.037255
31
0.0
0
LINE
8
1
62
3
10
4.468269
20
-1.037255
30
0.0
11
4.497233
21
-1.024191
31
0.0
0
LINE
8
1
62
3
10
4.497233
20
-1.024191
30
0.0
11
4.511786
21
-1.019574
31
0.0
0
LINE
8
1
62
3
10
4.511786
20
-1.019574
30
0.0
11
4.521848
21
-1.018067
31
0.0
0
LINE
8
1
62
3
10
4.521848
20
-1.018067
30
0.0
11
4.525258
21
-1.018477
31
0.0
0
LINE
8
1
62
3
10
4.528049
20
-1.069113
30
0.0
11
4.529606
21
-1.059192
31
0.0
0
LINE
8
1
62
3
10
4.529606
20
-1.059192
30
0.0
11
4.534263
21
-1.046439
31
0.0
0
LINE
8
1
62
3
10
4.534263
20
-1.046439
30
0.0
11
4.542044
21
-1.03082
31
0.0
0
LINE
8
1
62
3
10
4.542044
20
-1.03082
30
0.0
11
4.55295
21
-1.012354
31
0.0
0
LINE
8
1
62
3
10
4.55295
20
-1.012354
30
0.0
11
4.536757
21
-1.012354
31
0.0
0
LINE
8
1
62
3
10
4.536757
20
-1.012354
30
0.0
11
4.534583
21
-1.011306
31
0.0
0
LINE
8
1
62
3
10
4.534583
20
-1.011306
30
0.0
11
4.534892
21
-1.009063
31
0.0
0
LINE
8
1
62
3
10
4.534892
20
-1.009063
30
0.0
11
4.537375
21
-1.007836
31
0.0
0
LINE
8
1
62
3
10
4.537375
20
-1.007836
30
0.0
11
4.556062
21
-1.007836
31
0.0
0
LINE
8
1
62
3
10
4.556062
20
-1.007836
30
0.0
11
4.576924
21
-0.980905
31
0.0
0
LINE
8
1
62
3
10
4.576924
20
-0.980905
30
0.0
11
4.586178
21
-0.971853
31
0.0
0
LINE
8
1
62
3
10
4.586178
20
-0.971853
30
0.0
11
4.594672
21
-0.966401
31
0.0
0
LINE
8
1
62
3
10
4.594672
20
-0.966401
30
0.0
11
4.601587
21
-0.963487
31
0.0
0
LINE
8
1
62
3
10
4.601587
20
-0.963487
30
0.0
11
4.606184
21
-0.962521
31
0.0
0
LINE
8
1
62
3
10
4.606184
20
-0.962521
30
0.0
11
4.611483
21
-0.96293
31
0.0
0
LINE
8
1
62
3
10
4.611483
20
-0.96293
30
0.0
11
4.61684
21
-0.966385
31
0.0
0
LINE
8
1
62
3
10
4.61684
20
-0.966385
30
0.0
11
4.618646
21
-0.972327
31
0.0
0
LINE
8
1
62
3
10
4.618646
20
-0.972327
30
0.0
11
4.61684
21
-0.980022
31
0.0
0
LINE
8
1
62
3
10
4.61684
20
-0.980022
30
0.0
11
4.611483
21
-0.989271
31
0.0
0
LINE
8
1
62
3
10
4.611483
20
-0.989271
30
0.0
11
4.597476
21
-1.007836
31
0.0
0
LINE
8
1
62
3
10
4.597476
20
-1.007836
30
0.0
11
4.612421
21
-1.007836
31
0.0
0
LINE
8
1
62
3
10
4.612421
20
-1.007836
30
0.0
11
4.614286
21
-1.009063
31
0.0
0
LINE
8
1
62
3
10
4.614286
20
-1.009063
30
0.0
11
4.613977
21
-1.011306
31
0.0
0
LINE
8
1
62
3
10
4.613977
20
-1.011306
30
0.0
11
4.611803
21
-1.012354
31
0.0
0
LINE
8
1
62
3
10
4.611803
20
-1.012354
30
0.0
11
4.593746
21
-1.012354
31
0.0
0
LINE
8
1
62
3
10
4.593746
20
-1.012354
30
0.0
11
4.574821
21
-1.030248
31
0.0
0
LINE
8
1
62
3
10
4.574821
20
-1.030248
30
0.0
11
4.55232
21
-1.046046
31
0.0
0
LINE
8
1
62
3
10
4.55232
20
-1.046046
30
0.0
11
4.545168
21
-1.066854
31
0.0
0
LINE
8
1
62
3
10
4.545168
20
-1.066854
30
0.0
11
4.54423
21
-1.072158
31
0.0
0
LINE
8
1
62
3
10
4.54423
20
-1.072158
30
0.0
11
4.546416
21
-1.077282
31
0.0
0
LINE
8
1
62
3
10
4.546416
20
-1.077282
30
0.0
11
4.553259
21
-1.079935
31
0.0
0
LINE
8
1
62
3
10
4.553259
20
-1.079935
30
0.0
11
4.565091
21
-1.077479
31
0.0
0
LINE
8
1
62
3
10
4.565091
20
-1.077479
30
0.0
11
4.580808
21
-1.066085
31
0.0
0
LINE
8
1
62
3
10
4.580808
20
-1.066085
30
0.0
11
4.598094
21
-1.046635
31
0.0
0
LINE
8
1
62
3
10
4.598094
20
-1.046635
30
0.0
11
4.600897
21
-1.044392
31
0.0
0
LINE
8
1
62
3
10
4.600897
20
-1.044392
30
0.0
11
4.603072
21
-1.045015
31
0.0
0
LINE
8
1
62
3
10
4.603072
20
-1.045015
30
0.0
11
4.602145
21
-1.047864
31
0.0
0
LINE
8
1
62
3
10
4.602145
20
-1.047864
30
0.0
11
4.59295
21
-1.059912
31
0.0
0
LINE
8
1
62
3
10
4.59295
20
-1.059912
30
0.0
11
4.585952
21
-1.067885
31
0.0
0
LINE
8
1
62
3
10
4.585952
20
-1.067885
30
0.0
11
4.568596
21
-1.081211
31
0.0
0
LINE
8
1
62
3
10
4.568596
20
-1.081211
30
0.0
11
4.550146
21
-1.085648
31
0.0
0
LINE
8
1
62
3
10
4.550146
20
-1.085648
30
0.0
11
4.534263
21
-1.080949
31
0.0
0
LINE
8
1
62
3
10
4.534263
20
-1.080949
30
0.0
11
4.529606
21
-1.075628
31
0.0
0
LINE
8
1
62
3
10
4.529606
20
-1.075628
30
0.0
11
4.528049
21
-1.069113
31
0.0
0
LINE
8
1
62
3
10
4.590633
20
-1.007836
30
0.0
11
4.599603
21
-0.996703
31
0.0
0
LINE
8
1
62
3
10
4.599603
20
-0.996703
30
0.0
11
4.606042
21
-0.987405
31
0.0
0
LINE
8
1
62
3
10
4.606042
20
-0.987405
30
0.0
11
4.609879
21
-0.979956
31
0.0
0
LINE
8
1
62
3
10
4.609879
20
-0.979956
30
0.0
11
4.611174
21
-0.974357
31
0.0
0
LINE
8
1
62
3
10
4.611174
20
-0.974357
30
0.0
11
4.609
21
-0.970281
31
0.0
0
LINE
8
1
62
3
10
4.609
20
-0.970281
30
0.0
11
4.604628
21
-0.971902
31
0.0
0
LINE
8
1
62
3
10
4.604628
20
-0.971902
30
0.0
11
4.598403
21
-0.976796
31
0.0
0
LINE
8
1
62
3
10
4.598403
20
-0.976796
30
0.0
11
4.589136
21
-0.987814
31
0.0
0
LINE
8
1
62
3
10
4.589136
20
-0.987814
30
0.0
11
4.575058
21
-1.007836
31
0.0
0
LINE
8
1
62
3
10
4.575058
20
-1.007836
30
0.0
11
4.590633
21
-1.007836
31
0.0
0
LINE
8
1
62
3
10
4.58657
20
-1.012354
30
0.0
11
4.571934
21
-1.012354
31
0.0
0
LINE
8
1
62
3
10
4.571934
20
-1.012354
30
0.0
11
4.565863
21
-1.021981
31
0.0
0
LINE
8
1
62
3
10
4.565863
20
-1.021981
30
0.0
11
4.555124
21
-1.039481
31
0.0
0
LINE
8
1
62
3
10
4.555124
20
-1.039481
30
0.0
11
4.58657
21
-1.012354
31
0.0
0
LINE
8
1
62
3
10
4.611554
20
-1.053986
30
0.0
11
4.607206
21
-1.069507
31
0.0
0
LINE
8
1
62
3
10
4.607206
20
-1.069507
30
0.0
11
4.610936
21
-1.078706
31
0.0
0
LINE
8
1
62
3
10
4.610936
20
-1.078706
30
0.0
11
4.622151
21
-1.081981
31
0.0
0
LINE
8
1
62
3
10
4.622151
20
-1.081981
30
0.0
11
4.635967
21
-1.079787
31
0.0
0
LINE
8
1
62
3
10
4.635967
20
-1.079787
30
0.0
11
4.649142
21
-1.073238
31
0.0
0
LINE
8
1
62
3
10
4.649142
20
-1.073238
30
0.0
11
4.661652
21
-1.062336
31
0.0
0
LINE
8
1
62
3
10
4.661652
20
-1.062336
30
0.0
11
4.67352
21
-1.047062
31
0.0
0
LINE
8
1
62
3
10
4.67352
20
-1.047062
30
0.0
11
4.678807
21
-1.04418
31
0.0
0
LINE
8
1
62
3
10
4.678807
20
-1.04418
30
0.0
11
4.680054
21
-1.045211
31
0.0
0
LINE
8
1
62
3
10
4.680054
20
-1.045211
30
0.0
11
4.678248
21
-1.048322
31
0.0
0
LINE
8
1
62
3
10
4.678248
20
-1.048322
30
0.0
11
4.672902
21
-1.056032
31
0.0
0
LINE
8
1
62
3
10
4.672902
20
-1.056032
30
0.0
11
4.658884
21
-1.071962
31
0.0
0
LINE
8
1
62
3
10
4.658884
20
-1.071962
30
0.0
11
4.641123
21
-1.082685
31
0.0
0
LINE
8
1
62
3
10
4.641123
20
-1.082685
30
0.0
11
4.619644
21
-1.086254
31
0.0
0
LINE
8
1
62
3
10
4.619644
20
-1.086254
30
0.0
11
4.608121
21
-1.084928
31
0.0
0
LINE
8
1
62
3
10
4.608121
20
-1.084928
30
0.0
11
4.598474
21
-1.080949
31
0.0
0
LINE
8
1
62
3
10
4.598474
20
-1.080949
30
0.0
11
4.591928
21
-1.074662
31
0.0
0
LINE
8
1
62
3
10
4.591928
20
-1.074662
30
0.0
11
4.589766
21
-1.06646
31
0.0
0
LINE
8
1
62
3
10
4.589766
20
-1.06646
30
0.0
11
4.5963
21
-1.047062
31
0.0
0
LINE
8
1
62
3
10
4.5963
20
-1.047062
30
0.0
11
4.614666
21
-1.027858
31
0.0
0
LINE
8
1
62
3
10
4.614666
20
-1.027858
30
0.0
11
4.627045
21
-1.020082
31
0.0
0
LINE
8
1
62
3
10
4.627045
20
-1.020082
30
0.0
11
4.641135
21
-1.014794
31
0.0
0
LINE
8
1
62
3
10
4.641135
20
-1.014794
30
0.0
11
4.654821
21
-1.012731
31
0.0
0
LINE
8
1
62
3
10
4.654821
20
-1.012731
30
0.0
11
4.666974
21
-1.015186
31
0.0
0
LINE
8
1
62
3
10
4.666974
20
-1.015186
30
0.0
11
4.672273
21
-1.021539
31
0.0
0
LINE
8
1
62
3
10
4.672273
20
-1.021539
30
0.0
11
4.666653
21
-1.033522
31
0.0
0
LINE
8
1
62
3
10
4.666653
20
-1.033522
30
0.0
11
4.649843
21
-1.045015
31
0.0
0
LINE
8
1
62
3
10
4.649843
20
-1.045015
30
0.0
11
4.63055
21
-1.051334
31
0.0
0
LINE
8
1
62
3
10
4.63055
20
-1.051334
30
0.0
11
4.619561
21
-1.053315
31
0.0
0
LINE
8
1
62
3
10
4.619561
20
-1.053315
30
0.0
11
4.611554
21
-1.053986
31
0.0
0
LINE
8
1
62
3
10
4.663861
20
-1.021309
30
0.0
11
4.662614
21
-1.018265
31
0.0
0
LINE
8
1
62
3
10
4.662614
20
-1.018265
30
0.0
11
4.658884
21
-1.017249
31
0.0
0
LINE
8
1
62
3
10
4.658884
20
-1.017249
30
0.0
11
4.647895
21
-1.020769
31
0.0
0
LINE
8
1
62
3
10
4.647895
20
-1.020769
30
0.0
11
4.632415
21
-1.031344
31
0.0
0
LINE
8
1
62
3
10
4.632415
20
-1.031344
30
0.0
11
4.613728
21
-1.050532
31
0.0
0
LINE
8
1
62
3
10
4.613728
20
-1.050532
30
0.0
11
4.628994
21
-1.04806
31
0.0
0
LINE
8
1
62
3
10
4.628994
20
-1.04806
30
0.0
11
4.646731
21
-1.041528
31
0.0
0
LINE
8
1
62
3
10
4.646731
20
-1.041528
30
0.0
11
4.659573
21
-1.031672
31
0.0
0
LINE
8
1
62
3
10
4.659573
20
-1.031672
30
0.0
11
4.663861
21
-1.021309
31
0.0
0
LINE
8
1
62
3
10
4.716514
20
-1.003563
30
0.0
11
4.712071
21
-1.012485
31
0.0
0
LINE
8
1
62
3
10
4.712071
20
-1.012485
30
0.0
11
4.698765
21
-1.020916
31
0.0
0
LINE
8
1
62
3
10
4.698765
20
-1.020916
30
0.0
11
4.715266
21
-1.021113
31
0.0
0
LINE
8
1
62
3
10
4.715266
20
-1.021113
30
0.0
11
4.741723
21
-1.020082
31
0.0
0
LINE
8
1
62
3
10
4.741723
20
-1.020082
30
0.0
11
4.742341
21
-1.023356
31
0.0
0
LINE
8
1
62
3
10
4.742341
20
-1.023356
30
0.0
11
4.73861
21
-1.031344
31
0.0
0
LINE
8
1
62
3
10
4.73861
20
-1.031344
30
0.0
11
4.731768
21
-1.0403
31
0.0
0
LINE
8
1
62
3
10
4.731768
20
-1.0403
30
0.0
11
4.726148
21
-1.047455
31
0.0
0
LINE
8
1
62
3
10
4.726148
20
-1.047455
30
0.0
11
4.720244
21
-1.05564
31
0.0
0
LINE
8
1
62
3
10
4.720244
20
-1.05564
30
0.0
11
4.714957
21
-1.064611
31
0.0
0
LINE
8
1
62
3
10
4.714957
20
-1.064611
30
0.0
11
4.712189
21
-1.071405
31
0.0
0
LINE
8
1
62
3
10
4.712189
20
-1.071405
30
0.0
11
4.711678
21
-1.076251
31
0.0
0
LINE
8
1
62
3
10
4.711678
20
-1.076251
30
0.0
11
4.713425
21
-1.079148
31
0.0
0
LINE
8
1
62
3
10
4.713425
20
-1.079148
30
0.0
11
4.71744
21
-1.080131
31
0.0
0
LINE
8
1
62
3
10
4.71744
20
-1.080131
30
0.0
11
4.724746
21
-1.077986
31
0.0
0
LINE
8
1
62
3
10
4.724746
20
-1.077986
30
0.0
11
4.733621
21
-1.071602
31
0.0
0
LINE
8
1
62
3
10
4.733621
20
-1.071602
30
0.0
11
4.744063
21
-1.060943
31
0.0
0
LINE
8
1
62
3
10
4.744063
20
-1.060943
30
0.0
11
4.756038
21
-1.046046
31
0.0
0
LINE
8
1
62
3
10
4.756038
20
-1.046046
30
0.0
11
4.759472
21
-1.043984
31
0.0
0
LINE
8
1
62
3
10
4.759472
20
-1.043984
30
0.0
11
4.76104
21
-1.045637
31
0.0
0
LINE
8
1
62
3
10
4.76104
20
-1.045637
30
0.0
11
4.760006
21
-1.047618
31
0.0
0
LINE
8
1
62
3
10
4.760006
20
-1.047618
30
0.0
11
4.756977
21
-1.051956
31
0.0
0
LINE
8
1
62
3
10
4.756977
20
-1.051956
30
0.0
11
4.748269
21
-1.06299
31
0.0
0
LINE
8
1
62
3
10
4.748269
20
-1.06299
30
0.0
11
4.733633
21
-1.076267
31
0.0
0
LINE
8
1
62
3
10
4.733633
20
-1.076267
30
0.0
11
4.722026
21
-1.08329
31
0.0
0
LINE
8
1
62
3
10
4.722026
20
-1.08329
30
0.0
11
4.710906
21
-1.085648
31
0.0
0
LINE
8
1
62
3
10
4.710906
20
-1.085648
30
0.0
11
4.70063
21
-1.083241
31
0.0
0
LINE
8
1
62
3
10
4.70063
20
-1.083241
30
0.0
11
4.694096
21
-1.076055
31
0.0
0
LINE
8
1
62
3
10
4.694096
20
-1.076055
30
0.0
11
4.693169
21
-1.070521
31
0.0
0
LINE
8
1
62
3
10
4.693169
20
-1.070521
30
0.0
11
4.696591
21
-1.060731
31
0.0
0
LINE
8
1
62
3
10
4.696591
20
-1.060731
30
0.0
11
4.708091
21
-1.045833
31
0.0
0
LINE
8
1
62
3
10
4.708091
20
-1.045833
30
0.0
11
4.714173
21
-1.038876
31
0.0
0
LINE
8
1
62
3
10
4.714173
20
-1.038876
30
0.0
11
4.716823
21
-1.035601
31
0.0
0
LINE
8
1
62
3
10
4.716823
20
-1.035601
30
0.0
11
4.717761
21
-1.032556
31
0.0
0
LINE
8
1
62
3
10
4.717761
20
-1.032556
30
0.0
11
4.711512
21
-1.02771
31
0.0
0
LINE
8
1
62
3
10
4.711512
20
-1.02771
30
0.0
11
4.692849
21
-1.025812
31
0.0
0
LINE
8
1
62
3
10
4.692849
20
-1.025812
30
0.0
11
4.689106
21
-1.032343
31
0.0
0
LINE
8
1
62
3
10
4.689106
20
-1.032343
30
0.0
11
4.669873
21
-1.060469
31
0.0
0
LINE
8
1
62
3
10
4.669873
20
-1.060469
30
0.0
11
4.651435
21
-1.077479
31
0.0
0
LINE
8
1
62
3
10
4.651435
20
-1.077479
30
0.0
11
4.648322
21
-1.076267
31
0.0
0
LINE
8
1
62
3
10
4.648322
20
-1.076267
30
0.0
11
4.648952
21
-1.074826
31
0.0
0
LINE
8
1
62
3
10
4.648952
20
-1.074826
30
0.0
11
4.665204
21
-1.058325
31
0.0
0
LINE
8
1
62
3
10
4.665204
20
-1.058325
30
0.0
11
4.679151
21
-1.039072
31
0.0
0
LINE
8
1
62
3
10
4.679151
20
-1.039072
30
0.0
11
4.689962
21
-1.018969
31
0.0
0
LINE
8
1
62
3
10
4.689962
20
-1.018969
30
0.0
11
4.6969
21
-0.999896
31
0.0
0
LINE
8
1
62
3
10
4.6969
20
-0.999896
30
0.0
11
4.699989
21
-0.995116
31
0.0
0
LINE
8
1
62
3
10
4.699989
20
-0.995116
30
0.0
11
4.705608
21
-0.993545
31
0.0
0
LINE
8
1
62
3
10
4.705608
20
-0.993545
30
0.0
11
4.711512
21
-0.994968
31
0.0
0
LINE
8
1
62
3
10
4.711512
20
-0.994968
30
0.0
11
4.715575
21
-0.999258
31
0.0
0
LINE
8
1
62
3
10
4.715575
20
-0.999258
30
0.0
11
4.716514
21
-1.003563
31
0.0
0
LINE
8
1
62
3
10
4.848762
20
-1.029888
30
0.0
11
4.846956
21
-1.039334
31
0.0
0
LINE
8
1
62
3
10
4.846956
20
-1.039334
30
0.0
11
4.841598
21
-1.049713
31
0.0
0
LINE
8
1
62
3
10
4.841598
20
-1.049713
30
0.0
11
4.821675
21
-1.070521
31
0.0
0
LINE
8
1
62
3
10
4.821675
20
-1.070521
30
0.0
11
4.807811
21
-1.078936
31
0.0
0
LINE
8
1
62
3
10
4.807811
20
-1.078936
30
0.0
11
4.791156
21
-1.084207
31
0.0
0
LINE
8
1
62
3
10
4.791156
20
-1.084207
30
0.0
11
4.775284
21
-1.085452
31
0.0
0
LINE
8
1
62
3
10
4.775284
20
-1.085452
30
0.0
11
4.755979
21
-1.081752
31
0.0
0
LINE
8
1
62
3
10
4.755979
20
-1.081752
30
0.0
11
4.726398
21
-1.130177
31
0.0
0
LINE
8
1
62
3
10
4.726398
20
-1.130177
30
0.0
11
4.71769
21
-1.138739
31
0.0
0
LINE
8
1
62
3
10
4.71769
20
-1.138739
30
0.0
11
4.709896
21
-1.140769
31
0.0
0
LINE
8
1
62
3
10
4.709896
20
-1.140769
30
0.0
11
4.705548
21
-1.140769
31
0.0
0
LINE
8
1
62
3
10
4.705548
20
-1.140769
30
0.0
11
4.699929
21
-1.14018
31
0.0
0
LINE
8
1
62
3
10
4.699929
20
-1.14018
30
0.0
11
4.692469
21
-1.139771
31
0.0
0
LINE
8
1
62
3
10
4.692469
20
-1.139771
30
0.0
11
4.697209
21
-1.135596
31
0.0
0
LINE
8
1
62
3
10
4.697209
20
-1.135596
30
0.0
11
4.704586
21
-1.127394
31
0.0
0
LINE
8
1
62
3
10
4.704586
20
-1.127394
30
0.0
11
4.714648
21
-1.115165
31
0.0
0
LINE
8
1
62
3
10
4.714648
20
-1.115165
30
0.0
11
4.727336
21
-1.098925
31
0.0
0
LINE
8
1
62
3
10
4.727336
20
-1.098925
30
0.0
11
4.739692
21
-1.082226
31
0.0
0
LINE
8
1
62
3
10
4.739692
20
-1.082226
30
0.0
11
4.749041
21
-1.068491
31
0.0
0
LINE
8
1
62
3
10
4.749041
20
-1.068491
30
0.0
11
4.755409
21
-1.057703
31
0.0
0
LINE
8
1
62
3
10
4.755409
20
-1.057703
30
0.0
11
4.758783
21
-1.049909
31
0.0
0
LINE
8
1
62
3
10
4.758783
20
-1.049909
30
0.0
11
4.752249
21
-1.053397
31
0.0
0
LINE
8
1
62
3
10
4.752249
20
-1.053397
30
0.0
11
4.752249
21
-1.051121
31
0.0
0
LINE
8
1
62
3
10
4.752249
20
-1.051121
30
0.0
11
4.758474
21
-1.041938
31
0.0
0
LINE
8
1
62
3
10
4.758474
20
-1.041938
30
0.0
11
4.764069
21
-1.025812
31
0.0
0
LINE
8
1
62
3
10
4.764069
20
-1.025812
30
0.0
11
4.762976
21
-1.01982
31
0.0
0
LINE
8
1
62
3
10
4.762976
20
-1.01982
30
0.0
11
4.759709
21
-1.017036
31
0.0
0
LINE
8
1
62
3
10
4.759709
20
-1.017036
30
0.0
11
4.7745
21
-1.015548
31
0.0
0
LINE
8
1
62
3
10
4.7745
20
-1.015548
30
0.0
11
4.781509
21
-1.015186
31
0.0
0
LINE
8
1
62
3
10
4.781509
20
-1.015186
30
0.0
11
4.785251
21
-1.01684
31
0.0
0
LINE
8
1
62
3
10
4.785251
20
-1.01684
30
0.0
11
4.78619
21
-1.020507
31
0.0
0
LINE
8
1
62
3
10
4.78619
20
-1.020507
30
0.0
11
4.783992
21
-1.033669
31
0.0
0
LINE
8
1
62
3
10
4.783992
20
-1.033669
30
0.0
11
4.777458
21
-1.048289
31
0.0
0
LINE
8
1
62
3
10
4.777458
20
-1.048289
30
0.0
11
4.783683
21
-1.041741
31
0.0
0
LINE
8
1
62
3
10
4.783683
20
-1.041741
30
0.0
11
4.793342
21
-1.031984
31
0.0
0
LINE
8
1
62
3
10
4.793342
20
-1.031984
30
0.0
11
4.799864
21
-1.026433
31
0.0
0
LINE
8
1
62
3
10
4.799864
20
-1.026433
30
0.0
11
4.81109
21
-1.019296
31
0.0
0
LINE
8
1
62
3
10
4.81109
20
-1.019296
30
0.0
11
4.828518
21
-1.013566
31
0.0
0
LINE
8
1
62
3
10
4.828518
20
-1.013566
30
0.0
11
4.833187
21
-1.013959
31
0.0
0
LINE
8
1
62
3
10
4.833187
20
-1.013959
30
0.0
11
4.844865
21
-1.019264
31
0.0
0
LINE
8
1
62
3
10
4.844865
20
-1.019264
30
0.0
11
4.848762
21
-1.029888
31
0.0
0
LINE
8
1
62
3
10
4.833805
20
-1.027858
30
0.0
11
4.831631
21
-1.021947
31
0.0
0
LINE
8
1
62
3
10
4.831631
20
-1.021947
30
0.0
11
4.825406
21
-1.019066
31
0.0
0
LINE
8
1
62
3
10
4.825406
20
-1.019066
30
0.0
11
4.813573
21
-1.02239
31
0.0
0
LINE
8
1
62
3
10
4.813573
20
-1.02239
30
0.0
11
4.799864
21
-1.032343
31
0.0
0
LINE
8
1
62
3
10
4.799864
20
-1.032343
30
0.0
11
4.782353
21
-1.050564
31
0.0
0
LINE
8
1
62
3
10
4.782353
20
-1.050564
30
0.0
11
4.758474
21
-1.078706
31
0.0
0
LINE
8
1
62
3
10
4.758474
20
-1.078706
30
0.0
11
4.769677
21
-1.081342
31
0.0
0
LINE
8
1
62
3
10
4.769677
20
-1.081342
30
0.0
11
4.778313
21
-1.079558
31
0.0
0
LINE
8
1
62
3
10
4.778313
20
-1.079558
30
0.0
11
4.78992
21
-1.074205
31
0.0
0
LINE
8
1
62
3
10
4.78992
20
-1.074205
30
0.0
11
4.809059
21
-1.061387
31
0.0
0
LINE
8
1
62
3
10
4.809059
20
-1.061387
30
0.0
11
4.824788
21
-1.045833
31
0.0
0
LINE
8
1
62
3
10
4.824788
20
-1.045833
30
0.0
11
4.831548
21
-1.035814
31
0.0
0
LINE
8
1
62
3
10
4.831548
20
-1.035814
30
0.0
11
4.833805
21
-1.027858
31
0.0
0
LINE
8
1
62
3
10
4.901984
20
-1.003563
30
0.0
11
4.897541
21
-1.012485
31
0.0
0
LINE
8
1
62
3
10
4.897541
20
-1.012485
30
0.0
11
4.884235
21
-1.020916
31
0.0
0
LINE
8
1
62
3
10
4.884235
20
-1.020916
30
0.0
11
4.900737
21
-1.021113
31
0.0
0
LINE
8
1
62
3
10
4.900737
20
-1.021113
30
0.0
11
4.927205
21
-1.020082
31
0.0
0
LINE
8
1
62
3
10
4.927205
20
-1.020082
30
0.0
11
4.927823
21
-1.023356
31
0.0
0
LINE
8
1
62
3
10
4.927823
20
-1.023356
30
0.0
11
4.924093
21
-1.031344
31
0.0
0
LINE
8
1
62
3
10
4.924093
20
-1.031344
30
0.0
11
4.917238
21
-1.0403
31
0.0
0
LINE
8
1
62
3
10
4.917238
20
-1.0403
30
0.0
11
4.911631
21
-1.047455
31
0.0
0
LINE
8
1
62
3
10
4.911631
20
-1.047455
30
0.0
11
4.905726
21
-1.05564
31
0.0
0
LINE
8
1
62
3
10
4.905726
20
-1.05564
30
0.0
11
4.900428
21
-1.064611
31
0.0
0
LINE
8
1
62
3
10
4.900428
20
-1.064611
30
0.0
11
4.897648
21
-1.071405
31
0.0
0
LINE
8
1
62
3
10
4.897648
20
-1.071405
30
0.0
11
4.897149
21
-1.076251
31
0.0
0
LINE
8
1
62
3
10
4.897149
20
-1.076251
30
0.0
11
4.898895
21
-1.079148
31
0.0
0
LINE
8
1
62
3
10
4.898895
20
-1.079148
30
0.0
11
4.902911
21
-1.080131
31
0.0
0
LINE
8
1
62
3
10
4.902911
20
-1.080131
30
0.0
11
4.910229
21
-1.077986
31
0.0
0
LINE
8
1
62
3
10
4.910229
20
-1.077986
30
0.0
11
4.919103
21
-1.071602
31
0.0
0
LINE
8
1
62
3
10
4.919103
20
-1.071602
30
0.0
11
4.929534
21
-1.060943
31
0.0
0
LINE
8
1
62
3
10
4.929534
20
-1.060943
30
0.0
11
4.941533
21
-1.046046
31
0.0
0
LINE
8
1
62
3
10
4.941533
20
-1.046046
30
0.0
11
4.944954
21
-1.043984
31
0.0
0
LINE
8
1
62
3
10
4.944954
20
-1.043984
30
0.0
11
4.94651
21
-1.045637
31
0.0
0
LINE
8
1
62
3
10
4.94651
20
-1.045637
30
0.0
11
4.945489
21
-1.047618
31
0.0
0
LINE
8
1
62
3
10
4.945489
20
-1.047618
30
0.0
11
4.942459
21
-1.051956
31
0.0
0
LINE
8
1
62
3
10
4.942459
20
-1.051956
30
0.0
11
4.933739
21
-1.06299
31
0.0
0
LINE
8
1
62
3
10
4.933739
20
-1.06299
30
0.0
11
4.919103
21
-1.076267
31
0.0
0
LINE
8
1
62
3
10
4.919103
20
-1.076267
30
0.0
11
4.907497
21
-1.08329
31
0.0
0
LINE
8
1
62
3
10
4.907497
20
-1.08329
30
0.0
11
4.896377
21
-1.085648
31
0.0
0
LINE
8
1
62
3
10
4.896377
20
-1.085648
30
0.0
11
4.886101
21
-1.083241
31
0.0
0
LINE
8
1
62
3
10
4.886101
20
-1.083241
30
0.0
11
4.879567
21
-1.076055
31
0.0
0
LINE
8
1
62
3
10
4.879567
20
-1.076055
30
0.0
11
4.878628
21
-1.070521
31
0.0
0
LINE
8
1
62
3
10
4.878628
20
-1.070521
30
0.0
11
4.88205
21
-1.060731
31
0.0
0
LINE
8
1
62
3
10
4.88205
20
-1.060731
30
0.0
11
4.893585
21
-1.045833
31
0.0
0
LINE
8
1
62
3
10
4.893585
20
-1.045833
30
0.0
11
4.899632
21
-1.038876
31
0.0
0
LINE
8
1
62
3
10
4.899632
20
-1.038876
30
0.0
11
4.902293
21
-1.035601
31
0.0
0
LINE
8
1
62
3
10
4.902293
20
-1.035601
30
0.0
11
4.90322
21
-1.032556
31
0.0
0
LINE
8
1
62
3
10
4.90322
20
-1.032556
30
0.0
11
4.896983
21
-1.02771
31
0.0
0
LINE
8
1
62
3
10
4.896983
20
-1.02771
30
0.0
11
4.878319
21
-1.025812
31
0.0
0
LINE
8
1
62
3
10
4.878319
20
-1.025812
30
0.0
11
4.874589
21
-1.032343
31
0.0
0
LINE
8
1
62
3
10
4.874589
20
-1.032343
30
0.0
11
4.855355
21
-1.060469
31
0.0
0
LINE
8
1
62
3
10
4.855355
20
-1.060469
30
0.0
11
4.836906
21
-1.077479
31
0.0
0
LINE
8
1
62
3
10
4.836906
20
-1.077479
30
0.0
11
4.833793
21
-1.076267
31
0.0
0
LINE
8
1
62
3
10
4.833793
20
-1.076267
30
0.0
11
4.834411
21
-1.074826
31
0.0
0
LINE
8
1
62
3
10
4.834411
20
-1.074826
30
0.0
11
4.850674
21
-1.058325
31
0.0
0
LINE
8
1
62
3
10
4.850674
20
-1.058325
30
0.0
11
4.864622
21
-1.039072
31
0.0
0
LINE
8
1
62
3
10
4.864622
20
-1.039072
30
0.0
11
4.875421
21
-1.018969
31
0.0
0
LINE
8
1
62
3
10
4.875421
20
-1.018969
30
0.0
11
4.88237
21
-0.999896
31
0.0
0
LINE
8
1
62
3
10
4.88237
20
-0.999896
30
0.0
11
4.885471
21
-0.995116
31
0.0
0
LINE
8
1
62
3
10
4.885471
20
-0.995116
30
0.0
11
4.89109
21
-0.993545
31
0.0
0
LINE
8
1
62
3
10
4.89109
20
-0.993545
30
0.0
11
4.896995
21
-0.994968
31
0.0
0
LINE
8
1
62
3
10
4.896995
20
-0.994968
30
0.0
11
4.901046
21
-0.999258
31
0.0
0
LINE
8
1
62
3
10
4.901046
20
-0.999258
30
0.0
11
4.901984
21
-1.003563
31
0.0
0
LINE
8
1
62
3
10
4.983493
20
-1.006019
30
0.0
11
4.973834
21
-1.008474
31
0.0
0
LINE
8
1
62
3
10
4.973834
20
-1.008474
30
0.0
11
4.965435
21
-1.006019
31
0.0
0
LINE
8
1
62
3
10
4.965435
20
-1.006019
30
0.0
11
4.962929
21
-1.000093
31
0.0
0
LINE
8
1
62
3
10
4.962929
20
-1.000093
30
0.0
11
4.968227
21
-0.994166
31
0.0
0
LINE
8
1
62
3
10
4.968227
20
-0.994166
30
0.0
11
4.977874
21
-0.991727
31
0.0
0
LINE
8
1
62
3
10
4.977874
20
-0.991727
30
0.0
11
4.986285
21
-0.994166
31
0.0
0
LINE
8
1
62
3
10
4.986285
20
-0.994166
30
0.0
11
4.988779
21
-1.000093
31
0.0
0
LINE
8
1
62
3
10
4.988779
20
-1.000093
30
0.0
11
4.983493
21
-1.006019
31
0.0
0
LINE
8
1
62
3
10
4.952973
20
-1.080949
30
0.0
11
4.965435
21
-1.077069
31
0.0
0
LINE
8
1
62
3
10
4.965435
20
-1.077069
30
0.0
11
4.978503
21
-1.065577
31
0.0
0
LINE
8
1
62
3
10
4.978503
20
-1.065577
30
0.0
11
4.994684
21
-1.046243
31
0.0
0
LINE
8
1
62
3
10
4.994684
20
-1.046243
30
0.0
11
4.999056
21
-1.044392
31
0.0
0
LINE
8
1
62
3
10
4.999056
20
-1.044392
30
0.0
11
4.999685
21
-1.045833
31
0.0
0
LINE
8
1
62
3
10
4.999685
20
-1.045833
30
0.0
11
4.997179
21
-1.050319
31
0.0
0
LINE
8
1
62
3
10
4.997179
20
-1.050319
30
0.0
11
4.99251
21
-1.056655
31
0.0
0
LINE
8
1
62
3
10
4.99251
20
-1.056655
30
0.0
11
4.98474
21
-1.066035
31
0.0
0
LINE
8
1
62
3
10
4.98474
20
-1.066035
30
0.0
11
4.974452
21
-1.075858
31
0.0
0
LINE
8
1
62
3
10
4.974452
20
-1.075858
30
0.0
11
4.96199
21
-1.083028
31
0.0
0
LINE
8
1
62
3
10
4.96199
20
-1.083028
30
0.0
11
4.950181
21
-1.085452
31
0.0
0
LINE
8
1
62
3
10
4.950181
20
-1.085452
30
0.0
11
4.940511
21
-1.084322
31
0.0
0
LINE
8
1
62
3
10
4.940511
20
-1.084322
30
0.0
11
4.933977
21
-1.080949
31
0.0
0
LINE
8
1
62
3
10
4.933977
20
-1.080949
30
0.0
11
4.928987
21
-1.07093
31
0.0
0
LINE
8
1
62
3
10
4.928987
20
-1.07093
30
0.0
11
4.93305
21
-1.058881
31
0.0
0
LINE
8
1
62
3
10
4.93305
20
-1.058881
30
0.0
11
4.952973
21
-1.025615
31
0.0
0
LINE
8
1
62
3
10
4.952973
20
-1.025615
30
0.0
11
4.953591
21
-1.022341
31
0.0
0
LINE
8
1
62
3
10
4.953591
20
-1.022341
30
0.0
11
4.949861
21
-1.017036
31
0.0
0
LINE
8
1
62
3
10
4.949861
20
-1.017036
30
0.0
11
4.966992
21
-1.01684
31
0.0
0
LINE
8
1
62
3
10
4.966992
20
-1.01684
30
0.0
11
4.975379
21
-1.018658
31
0.0
0
LINE
8
1
62
3
10
4.975379
20
-1.018658
30
0.0
11
4.973514
21
-1.023962
31
0.0
0
LINE
8
1
62
3
10
4.973514
20
-1.023962
30
0.0
11
4.948625
21
-1.062155
31
0.0
0
LINE
8
1
62
3
10
4.948625
20
-1.062155
30
0.0
11
4.943315
21
-1.075039
31
0.0
0
LINE
8
1
62
3
10
4.943315
20
-1.075039
30
0.0
11
4.945726
21
-1.07946
31
0.0
0
LINE
8
1
62
3
10
4.945726
20
-1.07946
30
0.0
11
4.952973
21
-1.080949
31
0.0
0
LINE
8
1
62
3
10
5.021735
20
-1.081555
30
0.0
11
5.02733
21
-1.081981
31
0.0
0
LINE
8
1
62
3
10
5.02733
20
-1.081981
30
0.0
11
5.039685
21
-1.079558
31
0.0
0
LINE
8
1
62
3
10
5.039685
20
-1.079558
30
0.0
11
5.051922
21
-1.072387
31
0.0
0
LINE
8
1
62
3
10
5.051922
20
-1.072387
30
0.0
11
5.061022
21
-1.063024
31
0.0
0
LINE
8
1
62
3
10
5.061022
20
-1.063024
30
0.0
11
5.075278
21
-1.045637
31
0.0
0
LINE
8
1
62
3
10
5.075278
20
-1.045637
30
0.0
11
5.077464
21
-1.044606
31
0.0
0
LINE
8
1
62
3
10
5.077464
20
-1.044606
30
0.0
11
5.080255
21
-1.046046
31
0.0
0
LINE
8
1
62
3
10
5.080255
20
-1.046046
30
0.0
11
5.078699
21
-1.048486
31
0.0
0
LINE
8
1
62
3
10
5.078699
20
-1.048486
30
0.0
11
5.076216
21
-1.052349
31
0.0
0
LINE
8
1
62
3
10
5.076216
20
-1.052349
30
0.0
11
5.072177
21
-1.057882
31
0.0
0
LINE
8
1
62
3
10
5.072177
20
-1.057882
30
0.0
11
5.067176
21
-1.063809
31
0.0
0
LINE
8
1
62
3
10
5.067176
20
-1.063809
30
0.0
11
5.062198
21
-1.069309
31
0.0
0
LINE
8
1
62
3
10
5.062198
20
-1.069309
30
0.0
11
5.055985
21
-1.074401
31
0.0
0
LINE
8
1
62
3
10
5.055985
20
-1.074401
30
0.0
11
5.049427
21
-1.078904
31
0.0
0
LINE
8
1
62
3
10
5.049427
20
-1.078904
30
0.0
11
5.036989
21
-1.083798
31
0.0
0
LINE
8
1
62
3
10
5.036989
20
-1.083798
30
0.0
11
5.014559
21
-1.084207
31
0.0
0
LINE
8
1
62
3
10
5.014559
20
-1.084207
30
0.0
11
5.001788
21
-1.086254
31
0.0
0
LINE
8
1
62
3
10
5.001788
20
-1.086254
30
0.0
11
4.984051
21
-1.083389
31
0.0
0
LINE
8
1
62
3
10
4.984051
20
-1.083389
30
0.0
11
4.975022
21
-1.074826
31
0.0
0
LINE
8
1
62
3
10
4.975022
20
-1.074826
30
0.0
11
4.974096
21
-1.068491
31
0.0
0
LINE
8
1
62
3
10
4.974096
20
-1.068491
30
0.0
11
4.977826
21
-1.061141
31
0.0
0
LINE
8
1
62
3
10
4.977826
20
-1.061141
30
0.0
11
4.986237
21
-1.057457
31
0.0
0
LINE
8
1
62
3
10
4.986237
20
-1.057457
30
0.0
11
5.000945
21
-1.038614
31
0.0
0
LINE
8
1
62
3
10
5.000945
20
-1.038614
30
0.0
11
5.013312
21
-1.021735
31
0.0
0
LINE
8
1
62
3
10
5.013312
20
-1.021735
30
0.0
11
5.026772
21
-1.008703
31
0.0
0
LINE
8
1
62
3
10
5.026772
20
-1.008703
30
0.0
11
5.042275
21
-1.004365
31
0.0
0
LINE
8
1
62
3
10
5.042275
20
-1.004365
30
0.0
11
5.050674
21
-1.005789
31
0.0
0
LINE
8
1
62
3
10
5.050674
20
-1.005789
30
0.0
11
5.053799
21
-1.008671
31
0.0
0
LINE
8
1
62
3
10
5.053799
20
-1.008671
30
0.0
11
5.049427
21
-1.009261
31
0.0
0
LINE
8
1
62
3
10
5.049427
20
-1.009261
30
0.0
11
5.043523
21
-1.008245
31
0.0
0
LINE
8
1
62
3
10
5.043523
20
-1.008245
30
0.0
11
5.039163
21
-1.008867
31
0.0
0
LINE
8
1
62
3
10
5.039163
20
-1.008867
30
0.0
11
5.031215
21
-1.014025
31
0.0
0
LINE
8
1
62
3
10
5.031215
20
-1.014025
30
0.0
11
5.028577
21
-1.022963
31
0.0
0
LINE
8
1
62
3
10
5.028577
20
-1.022963
30
0.0
11
5.03106
21
-1.032343
31
0.0
0
LINE
8
1
62
3
10
5.03106
20
-1.032343
30
0.0
11
5.03668
21
-1.0403
31
0.0
0
LINE
8
1
62
3
10
5.03668
20
-1.0403
30
0.0
11
5.042038
21
-1.049959
31
0.0
0
LINE
8
1
62
3
10
5.042038
20
-1.049959
30
0.0
11
5.043831
21
-1.057686
31
0.0
0
LINE
8
1
62
3
10
5.043831
20
-1.057686
30
0.0
11
5.037297
21
-1.07093
31
0.0
0
LINE
8
1
62
3
10
5.037297
20
-1.07093
30
0.0
11
5.021735
21
-1.081555
31
0.0
0
LINE
8
1
62
3
10
5.011138
20
-1.080131
30
0.0
11
5.021402
21
-1.071045
31
0.0
0
LINE
8
1
62
3
10
5.021402
20
-1.071045
30
0.0
11
5.024847
21
-1.057686
31
0.0
0
LINE
8
1
62
3
10
5.024847
20
-1.057686
30
0.0
11
5.022673
21
-1.0403
31
0.0
0
LINE
8
1
62
3
10
5.022673
20
-1.0403
30
0.0
11
5.021034
21
-1.031066
31
0.0
0
LINE
8
1
62
3
10
5.021034
20
-1.031066
30
0.0
11
5.020487
21
-1.025419
31
0.0
0
LINE
8
1
62
3
10
5.020487
20
-1.025419
30
0.0
11
5.020796
21
-1.020082
31
0.0
0
LINE
8
1
62
3
10
5.020796
20
-1.020082
30
0.0
11
5.010092
21
-1.034079
31
0.0
0
LINE
8
1
62
3
10
5.010092
20
-1.034079
30
0.0
11
5.001646
21
-1.045063
31
0.0
0
LINE
8
1
62
3
10
5.001646
20
-1.045063
30
0.0
11
4.995456
21
-1.052987
31
0.0
0
LINE
8
1
62
3
10
4.995456
20
-1.052987
30
0.0
11
4.991524
21
-1.057882
31
0.0
0
LINE
8
1
62
3
10
4.991524
20
-1.057882
30
0.0
11
4.996418
21
-1.059405
31
0.0
0
LINE
8
1
62
3
10
4.996418
20
-1.059405
30
0.0
11
4.998058
21
-1.064005
31
0.0
0
LINE
8
1
62
3
10
4.998058
20
-1.064005
30
0.0
11
5.001337
21
-1.074057
31
0.0
0
LINE
8
1
62
3
10
5.001337
20
-1.074057
30
0.0
11
5.011138
21
-1.080131
31
0.0
0
LINE
8
1
62
3
10
4.987793
20
-1.07463
30
0.0
11
4.988102
21
-1.077282
31
0.0
0
LINE
8
1
62
3
10
4.988102
20
-1.077282
30
0.0
11
4.992213
21
-1.081408
31
0.0
0
LINE
8
1
62
3
10
4.992213
20
-1.081408
30
0.0
11
4.999614
21
-1.082783
31
0.0
0
LINE
8
1
62
3
10
4.999614
20
-1.082783
30
0.0
11
5.005851
21
-1.081981
31
0.0
0
LINE
8
1
62
3
10
5.005851
20
-1.081981
30
0.0
11
4.996965
21
-1.075792
31
0.0
0
LINE
8
1
62
3
10
4.996965
20
-1.075792
30
0.0
11
4.993389
21
-1.066658
31
0.0
0
LINE
8
1
62
3
10
4.993389
20
-1.066658
30
0.0
11
4.987793
21
-1.07463
31
0.0
0
LINE
8
1
62
3
10
5.08831
20
-1.053986
30
0.0
11
5.083962
21
-1.069507
31
0.0
0
LINE
8
1
62
3
10
5.083962
20
-1.069507
30
0.0
11
5.087692
21
-1.078706
31
0.0
0
LINE
8
1
62
3
10
5.087692
20
-1.078706
30
0.0
11
5.098907
21
-1.081981
31
0.0
0
LINE
8
1
62
3
10
5.098907
20
-1.081981
30
0.0
11
5.112724
21
-1.079787
31
0.0
0
LINE
8
1
62
3
10
5.112724
20
-1.079787
30
0.0
11
5.125898
21
-1.073238
31
0.0
0
LINE
8
1
62
3
10
5.125898
20
-1.073238
30
0.0
11
5.138408
21
-1.062336
31
0.0
0
LINE
8
1
62
3
10
5.138408
20
-1.062336
30
0.0
11
5.150276
21
-1.047062
31
0.0
0
LINE
8
1
62
3
10
5.150276
20
-1.047062
30
0.0
11
5.155563
21
-1.04418
31
0.0
0
LINE
8
1
62
3
10
5.155563
20
-1.04418
30
0.0
11
5.15681
21
-1.045211
31
0.0
0
LINE
8
1
62
3
10
5.15681
20
-1.045211
30
0.0
11
5.155016
21
-1.048322
31
0.0
0
LINE
8
1
62
3
10
5.155016
20
-1.048322
30
0.0
11
5.149658
21
-1.056032
31
0.0
0
LINE
8
1
62
3
10
5.149658
20
-1.056032
30
0.0
11
5.13564
21
-1.071962
31
0.0
0
LINE
8
1
62
3
10
5.13564
20
-1.071962
30
0.0
11
5.117879
21
-1.082685
31
0.0
0
LINE
8
1
62
3
10
5.117879
20
-1.082685
30
0.0
11
5.0964
21
-1.086254
31
0.0
0
LINE
8
1
62
3
10
5.0964
20
-1.086254
30
0.0
11
5.084877
21
-1.084928
31
0.0
0
LINE
8
1
62
3
10
5.084877
20
-1.084928
30
0.0
11
5.07523
21
-1.080949
31
0.0
0
LINE
8
1
62
3
10
5.07523
20
-1.080949
30
0.0
11
5.068684
21
-1.074662
31
0.0
0
LINE
8
1
62
3
10
5.068684
20
-1.074662
30
0.0
11
5.066522
21
-1.06646
31
0.0
0
LINE
8
1
62
3
10
5.066522
20
-1.06646
30
0.0
11
5.073056
21
-1.047062
31
0.0
0
LINE
8
1
62
3
10
5.073056
20
-1.047062
30
0.0
11
5.091423
21
-1.027858
31
0.0
0
LINE
8
1
62
3
10
5.091423
20
-1.027858
30
0.0
11
5.103802
21
-1.020082
31
0.0
0
LINE
8
1
62
3
10
5.103802
20
-1.020082
30
0.0
11
5.117891
21
-1.014794
31
0.0
0
LINE
8
1
62
3
10
5.117891
20
-1.014794
30
0.0
11
5.131601
21
-1.012731
31
0.0
0
LINE
8
1
62
3
10
5.131601
20
-1.012731
30
0.0
11
5.14373
21
-1.015186
31
0.0
0
LINE
8
1
62
3
10
5.14373
20
-1.015186
30
0.0
11
5.149029
21
-1.021539
31
0.0
0
LINE
8
1
62
3
10
5.149029
20
-1.021539
30
0.0
11
5.143421
21
-1.033522
31
0.0
0
LINE
8
1
62
3
10
5.143421
20
-1.033522
30
0.0
11
5.126599
21
-1.045015
31
0.0
0
LINE
8
1
62
3
10
5.126599
20
-1.045015
30
0.0
11
5.107306
21
-1.051334
31
0.0
0
LINE
8
1
62
3
10
5.107306
20
-1.051334
30
0.0
11
5.096317
21
-1.053315
31
0.0
0
LINE
8
1
62
3
10
5.096317
20
-1.053315
30
0.0
11
5.08831
21
-1.053986
31
0.0
0
LINE
8
1
62
3
10
5.140618
20
-1.021309
30
0.0
11
5.13937
21
-1.018265
31
0.0
0
LINE
8
1
62
3
10
5.13937
20
-1.018265
30
0.0
11
5.13564
21
-1.017249
31
0.0
0
LINE
8
1
62
3
10
5.13564
20
-1.017249
30
0.0
11
5.124663
21
-1.020769
31
0.0
0
LINE
8
1
62
3
10
5.124663
20
-1.020769
30
0.0
11
5.109171
21
-1.031344
31
0.0
0
LINE
8
1
62
3
10
5.109171
20
-1.031344
30
0.0
11
5.090496
21
-1.050532
31
0.0
0
LINE
8
1
62
3
10
5.090496
20
-1.050532
30
0.0
11
5.10575
21
-1.04806
31
0.0
0
LINE
8
1
62
3
10
5.10575
20
-1.04806
30
0.0
11
5.123499
21
-1.041528
31
0.0
0
LINE
8
1
62
3
10
5.123499
20
-1.041528
30
0.0
11
5.136329
21
-1.031672
31
0.0
0
LINE
8
1
62
3
10
5.136329
20
-1.031672
30
0.0
11
5.140618
21
-1.021309
31
0.0
0
LINE
8
1
62
3
10
5.178016
20
-1.081555
30
0.0
11
5.183611
21
-1.081981
31
0.0
0
LINE
8
1
62
3
10
5.183611
20
-1.081981
30
0.0
11
5.19599
21
-1.079558
31
0.0
0
LINE
8
1
62
3
10
5.19599
20
-1.079558
30
0.0
11
5.208215
21
-1.072387
31
0.0
0
LINE
8
1
62
3
10
5.208215
20
-1.072387
30
0.0
11
5.217315
21
-1.063024
31
0.0
0
LINE
8
1
62
3
10
5.217315
20
-1.063024
30
0.0
11
5.231559
21
-1.045637
31
0.0
0
LINE
8
1
62
3
10
5.231559
20
-1.045637
30
0.0
11
5.233733
21
-1.044606
31
0.0
0
LINE
8
1
62
3
10
5.233733
20
-1.044606
30
0.0
11
5.236561
21
-1.046046
31
0.0
0
LINE
8
1
62
3
10
5.236561
20
-1.046046
30
0.0
11
5.234981
21
-1.048486
31
0.0
0
LINE
8
1
62
3
10
5.234981
20
-1.048486
30
0.0
11
5.232498
21
-1.052349
31
0.0
0
LINE
8
1
62
3
10
5.232498
20
-1.052349
30
0.0
11
5.228447
21
-1.057882
31
0.0
0
LINE
8
1
62
3
10
5.228447
20
-1.057882
30
0.0
11
5.223481
21
-1.063809
31
0.0
0
LINE
8
1
62
3
10
5.223481
20
-1.063809
30
0.0
11
5.218479
21
-1.069309
31
0.0
0
LINE
8
1
62
3
10
5.218479
20
-1.069309
30
0.0
11
5.212254
21
-1.074401
31
0.0
0
LINE
8
1
62
3
10
5.212254
20
-1.074401
30
0.0
11
5.20572
21
-1.078904
31
0.0
0
LINE
8
1
62
3
10
5.20572
20
-1.078904
30
0.0
11
5.19327
21
-1.083798
31
0.0
0
LINE
8
1
62
3
10
5.19327
20
-1.083798
30
0.0
11
5.170852
21
-1.084207
31
0.0
0
LINE
8
1
62
3
10
5.170852
20
-1.084207
30
0.0
11
5.158081
21
-1.086254
31
0.0
0
LINE
8
1
62
3
10
5.158081
20
-1.086254
30
0.0
11
5.140321
21
-1.083389
31
0.0
0
LINE
8
1
62
3
10
5.140321
20
-1.083389
30
0.0
11
5.131304
21
-1.074826
31
0.0
0
LINE
8
1
62
3
10
5.131304
20
-1.074826
30
0.0
11
5.130377
21
-1.068491
31
0.0
0
LINE
8
1
62
3
10
5.130377
20
-1.068491
30
0.0
11
5.134108
21
-1.061141
31
0.0
0
LINE
8
1
62
3
10
5.134108
20
-1.061141
30
0.0
11
5.142519
21
-1.057457
31
0.0
0
LINE
8
1
62
3
10
5.142519
20
-1.057457
30
0.0
11
5.157214
21
-1.038614
31
0.0
0
LINE
8
1
62
3
10
5.157214
20
-1.038614
30
0.0
11
5.169617
21
-1.021735
31
0.0
0
LINE
8
1
62
3
10
5.169617
20
-1.021735
30
0.0
11
5.183065
21
-1.008703
31
0.0
0
LINE
8
1
62
3
10
5.183065
20
-1.008703
30
0.0
11
5.198557
21
-1.004365
31
0.0
0
LINE
8
1
62
3
10
5.198557
20
-1.004365
30
0.0
11
5.206968
21
-1.005789
31
0.0
0
LINE
8
1
62
3
10
5.206968
20
-1.005789
30
0.0
11
5.21008
21
-1.008671
31
0.0
0
LINE
8
1
62
3
10
5.21008
20
-1.008671
30
0.0
11
5.20572
21
-1.009261
31
0.0
0
LINE
8
1
62
3
10
5.20572
20
-1.009261
30
0.0
11
5.199804
21
-1.008245
31
0.0
0
LINE
8
1
62
3
10
5.199804
20
-1.008245
30
0.0
11
5.195444
21
-1.008867
31
0.0
0
LINE
8
1
62
3
10
5.195444
20
-1.008867
30
0.0
11
5.187496
21
-1.014025
31
0.0
0
LINE
8
1
62
3
10
5.187496
20
-1.014025
30
0.0
11
5.184859
21
-1.022963
31
0.0
0
LINE
8
1
62
3
10
5.184859
20
-1.022963
30
0.0
11
5.187354
21
-1.032343
31
0.0
0
LINE
8
1
62
3
10
5.187354
20
-1.032343
30
0.0
11
5.192961
21
-1.0403
31
0.0
0
LINE
8
1
62
3
10
5.192961
20
-1.0403
30
0.0
11
5.198331
21
-1.049959
31
0.0
0
LINE
8
1
62
3
10
5.198331
20
-1.049959
30
0.0
11
5.200113
21
-1.057686
31
0.0
0
LINE
8
1
62
3
10
5.200113
20
-1.057686
30
0.0
11
5.193579
21
-1.07093
31
0.0
0
LINE
8
1
62
3
10
5.193579
20
-1.07093
30
0.0
11
5.178016
21
-1.081555
31
0.0
0
LINE
8
1
62
3
10
5.167419
20
-1.080131
30
0.0
11
5.177683
21
-1.071045
31
0.0
0
LINE
8
1
62
3
10
5.177683
20
-1.071045
30
0.0
11
5.181117
21
-1.057686
31
0.0
0
LINE
8
1
62
3
10
5.181117
20
-1.057686
30
0.0
11
5.178943
21
-1.0403
31
0.0
0
LINE
8
1
62
3
10
5.178943
20
-1.0403
30
0.0
11
5.177303
21
-1.031066
31
0.0
0
LINE
8
1
62
3
10
5.177303
20
-1.031066
30
0.0
11
5.176769
21
-1.025419
31
0.0
0
LINE
8
1
62
3
10
5.176769
20
-1.025419
30
0.0
11
5.177077
21
-1.020082
31
0.0
0
LINE
8
1
62
3
10
5.177077
20
-1.020082
30
0.0
11
5.166374
21
-1.034079
31
0.0
0
LINE
8
1
62
3
10
5.166374
20
-1.034079
30
0.0
11
5.157927
21
-1.045063
31
0.0
0
LINE
8
1
62
3
10
5.157927
20
-1.045063
30
0.0
11
5.151737
21
-1.052987
31
0.0
0
LINE
8
1
62
3
10
5.151737
20
-1.052987
30
0.0
11
5.147805
21
-1.057882
31
0.0
0
LINE
8
1
62
3
10
5.147805
20
-1.057882
30
0.0
11
5.152723
21
-1.059405
31
0.0
0
LINE
8
1
62
3
10
5.152723
20
-1.059405
30
0.0
11
5.154351
21
-1.064005
31
0.0
0
LINE
8
1
62
3
10
5.154351
20
-1.064005
30
0.0
11
5.157618
21
-1.074057
31
0.0
0
LINE
8
1
62
3
10
5.157618
20
-1.074057
30
0.0
11
5.167419
21
-1.080131
31
0.0
0
LINE
8
1
62
3
10
5.144075
20
-1.07463
30
0.0
11
5.144384
21
-1.077282
31
0.0
0
LINE
8
1
62
3
10
5.144384
20
-1.077282
30
0.0
11
5.148494
21
-1.081408
31
0.0
0
LINE
8
1
62
3
10
5.148494
20
-1.081408
30
0.0
11
5.155907
21
-1.082783
31
0.0
0
LINE
8
1
62
3
10
5.155907
20
-1.082783
30
0.0
11
5.162132
21
-1.081981
31
0.0
0
LINE
8
1
62
3
10
5.162132
20
-1.081981
30
0.0
11
5.153246
21
-1.075792
31
0.0
0
LINE
8
1
62
3
10
5.153246
20
-1.075792
30
0.0
11
5.14967
21
-1.066658
31
0.0
0
LINE
8
1
62
3
10
5.14967
20
-1.066658
30
0.0
11
5.144075
21
-1.07463
31
0.0
0
LINE
8
1
62
3
10
5.424383
20
-0.064814
30
0.0
11
5.503504
21
-0.064814
31
0.0
0
LINE
8
1
62
3
10
5.503504
20
-0.064814
30
0.0
11
5.503504
21
-0.081543
31
0.0
0
LINE
8
1
62
3
10
5.503504
20
-0.081543
30
0.0
11
5.475028
21
-0.081543
31
0.0
0
LINE
8
1
62
3
10
5.475028
20
-0.081543
30
0.0
11
5.475028
21
-0.150628
31
0.0
0
LINE
8
1
62
3
10
5.475028
20
-0.150628
30
0.0
11
5.452895
21
-0.150628
31
0.0
0
LINE
8
1
62
3
10
5.452895
20
-0.150628
30
0.0
11
5.452895
21
-0.081543
31
0.0
0
LINE
8
1
62
3
10
5.452895
20
-0.081543
30
0.0
11
5.424383
21
-0.081543
31
0.0
0
LINE
8
1
62
3
10
5.424383
20
-0.081543
30
0.0
11
5.424383
21
-0.064814
31
0.0
0
LINE
8
1
62
3
10
5.514885
20
-0.064814
30
0.0
11
5.543053
21
-0.064814
31
0.0
0
LINE
8
1
62
3
10
5.543053
20
-0.064814
30
0.0
11
5.562607
21
-0.11075
31
0.0
0
LINE
8
1
62
3
10
5.562607
20
-0.11075
30
0.0
11
5.582257
21
-0.064814
31
0.0
0
LINE
8
1
62
3
10
5.582257
20
-0.064814
30
0.0
11
5.610377
21
-0.064814
31
0.0
0
LINE
8
1
62
3
10
5.610377
20
-0.064814
30
0.0
11
5.610377
21
-0.150628
31
0.0
0
LINE
8
1
62
3
10
5.610377
20
-0.150628
30
0.0
11
5.589444
21
-0.150628
31
0.0
0
LINE
8
1
62
3
10
5.589444
20
-0.150628
30
0.0
11
5.589444
21
-0.087863
31
0.0
0
LINE
8
1
62
3
10
5.589444
20
-0.087863
30
0.0
11
5.569676
21
-0.134145
31
0.0
0
LINE
8
1
62
3
10
5.569676
20
-0.134145
30
0.0
11
5.555646
21
-0.134145
31
0.0
0
LINE
8
1
62
3
10
5.555646
20
-0.134145
30
0.0
11
5.535865
21
-0.087863
31
0.0
0
LINE
8
1
62
3
10
5.535865
20
-0.087863
30
0.0
11
5.535865
21
-0.150628
31
0.0
0
LINE
8
1
62
3
10
5.535865
20
-0.150628
30
0.0
11
5.514885
21
-0.150628
31
0.0
0
LINE
8
1
62
3
10
5.514885
20
-0.150628
30
0.0
11
5.514885
21
-0.064814
31
0.0
0
ENDSEC
0
EOF
