0
SECTION
2
HEADER
0
ENDSEC
0
SECTION
2
TABLES
0
TABLE
2
LAYER
0
ENDTAB
0
ENDSEC
0
SECTION
2
ENTITIES
0
LINE
8
0
10
1.9374
20
3.08833
11
1.9374
21
3.08833
0
LINE
8
0
10
1.8124
20
3.08833
11
1.8124
21
3.08833
0
CIRCLE
8
0
10
10.61342
20
0.50956
40
0.08125
0
CIRCLE
8
0
10
10.61342
20
2.08656
40
0.08125
0
LINE
8
0
10
-1.08211
20
2.63645
11
-1.08211
21
-0.13355
0
LINE
8
0
10
0.41789
20
4.13645
11
10.98039
21
4.13645
0
LINE
8
0
10
10.98039
20
-1.63355
11
0.41789
21
-1.63355
0
LINE
8
0
10
12.48039
20
-0.13355
11
12.48039
21
2.63645
0
ARC
8
0
10
0.41789
20
-0.13355
40
1.5
50
180
51
270
0
ARC
8
0
10
10.98039
20
-0.13355
40
1.5
50
270
51
0
0
ARC
8
0
10
10.98039
20
2.63645
40
1.5
50
0
51
90
0
ARC
8
0
10
0.41789
20
2.63645
40
1.5
50
90
51
180
0
CIRCLE
8
0
10
5.69914
20
3.81145
40
0.13
0
CIRCLE
8
0
10
12.15539
20
1.25145
40
0.13
0
CIRCLE
8
0
10
5.69914
20
-1.30855
40
0.13
0
CIRCLE
8
0
10
-0.75711
20
1.25145
40
0.13
0
CIRCLE
8
0
10
1.35539
20
3.81145
40
0.13
0
CIRCLE
8
0
10
1.35539
20
-1.30855
40
0.13
0
CIRCLE
8
0
10
10.04289
20
3.81145
40
0.13
0
CIRCLE
8
0
10
10.04289
20
-1.30855
40
0.13
0
LINE
8
0
10
9.68842
20
0.68806
11
11.53842
21
0.68806
0
ARC
8
0
10
11.53842
20
0.75806
40
0.07
50
270
51
360
0
LINE
8
0
10
11.60842
20
1.83806
11
11.60842
21
0.75806
0
ARC
8
0
10
11.53842
20
1.83806
40
0.07
50
0
51
90
0
LINE
8
0
10
11.53842
20
1.90806
11
9.68842
21
1.90806
0
ARC
8
0
10
9.68842
20
1.83806
40
0.07
50
90
51
180
0
LINE
8
0
10
9.61842
20
1.83806
11
9.61842
21
0.75806
0
ARC
8
0
10
9.68842
20
0.75806
40
0.07
50
180
51
270
0
CIRCLE
8
0
10
1.43205
20
1.77738
40
0.1
0
CIRCLE
8
0
10
4.4015
20
1.76923
40
0.1
0
CIRCLE
8
0
10
7.2515
20
1.76923
40
0.1
0
CIRCLE
8
0
10
7.2374
20
-0.14696
40
0.1
0
CIRCLE
8
0
10
4.3874
20
-0.14696
40
0.1
0
CIRCLE
8
0
10
1.4374
20
-0.14007
40
0.1
0
CIRCLE
8
0
10
1.5024
20
2.71333
40
0.375
0
CIRCLE
8
0
10
0.7126
20
1.78553
40
0.375
0
CIRCLE
8
0
10
2.1515
20
1.76923
40
0.375
0
CIRCLE
8
0
10
3.6515
20
1.76923
40
0.375
0
CIRCLE
8
0
10
5.1515
20
1.76923
40
0.375
0
CIRCLE
8
0
10
6.5015
20
1.76923
40
0.375
0
CIRCLE
8
0
10
8.0015
20
1.76923
40
0.375
0
CIRCLE
8
0
10
7.9874
20
-0.14696
40
0.375
0
CIRCLE
8
0
10
6.4874
20
-0.14696
40
0.375
0
CIRCLE
8
0
10
5.1374
20
-0.14696
40
0.375
0
CIRCLE
8
0
10
3.6374
20
-0.14696
40
0.375
0
CIRCLE
8
0
10
2.1374
20
-0.13318
40
0.375
0
CIRCLE
8
0
10
0.7374
20
-0.14696
40
0.375
0
ENDSEC
0
EOF