0
SECTION
2
HEADER
0
ENDSEC
0
SECTION
2
TABLES
0
TABLE
2
LTYPE
0
LTYPE
72
65
70
64
2
CONTINUOUS
3
______
73
0
40
0
0
ENDTAB
0
TABLE
2
LAYER
0
ENDTAB
0
ENDSEC
0
SECTION
2
ENTITIES
0
LINE
8
0
10
-18.369125
20
4.298533
11
-16.230453
21
1.798533
0
LINE
8
0
10
-16.230453
20
1.798533
11
-14.091781
21
4.298533
0
LINE
8
0
10
-14.091781
20
4.298533
11
-12.358383
21
4.298533
0
LINE
8
0
10
-12.358383
20
4.298533
11
-15.371078
21
0.787791
0
LINE
8
0
10
-15.371078
20
0.787791
11
-12.377914
21
-2.70342
0
LINE
8
0
10
-12.377914
20
-2.70342
11
-14.101547
21
-2.70342
0
LINE
8
0
10
-14.101547
20
-2.70342
11
-16.230453
21
-0.222951
0
LINE
8
0
10
-16.230453
20
-0.222951
11
-18.349594
21
-2.70342
0
LINE
8
0
10
-18.349594
20
-2.70342
11
-20.078109
21
-2.70342
0
LINE
8
0
10
-20.078109
20
-2.70342
11
-17.089828
21
0.787791
0
LINE
8
0
10
-17.089828
20
0.787791
11
-20.087875
21
4.298533
0
LINE
8
0
10
-20.087875
20
4.298533
11
-18.369125
21
4.298533
0
LINE
8
0
10
-6.987289
20
0.797557
11
-6.987289
21
-2.70342
0
LINE
8
0
10
-6.987289
20
-2.70342
11
-8.25682
21
-2.70342
0
LINE
8
0
10
-8.25682
20
-2.70342
11
-8.25682
21
0.797557
0
LINE
8
0
10
-8.779281
20
1.305369
11
-10.429672
21
1.305369
0
LINE
8
0
10
-10.429672
20
1.305369
11
-10.429672
21
-2.70342
0
LINE
8
0
10
-10.429672
20
-2.70342
11
-11.699203
21
-2.70342
0
LINE
8
0
10
-11.699203
20
-2.70342
11
-11.699203
21
1.945017
0
LINE
8
0
10
-11.059555
20
2.5749
11
-8.769516
21
2.5749
0
LINE
8
0
10
-7.626938
20
2.184275
11
-7.626938
21
2.5749
0
LINE
8
0
10
-7.626938
20
2.5749
11
-5.908188
21
2.5749
0
LINE
8
0
10
-4.130844
20
0.797557
11
-4.130844
21
-2.70342
0
LINE
8
0
10
-4.130844
20
-2.70342
11
-5.400375
21
-2.70342
0
LINE
8
0
10
-5.400375
20
-2.70342
11
-5.400375
21
0.797557
0
LINE
8
0
10
-5.908188
20
1.305369
11
-7.050766
21
1.305369
0
ARC
8
0
10
-9.010913
20
0.80267
40
0.75411
50
359.611518
51
10.609623
0
ARC
8
0
10
-8.748812
20
0.853906
40
0.487061
50
10.362236
51
29.109634
0
ARC
8
0
10
-8.660551
20
0.899452
40
0.387804
50
29.574138
51
45.483465
0
ARC
8
0
10
-8.677143
20
0.876099
40
0.416113
50
46.108981
51
72.531098
0
ARC
8
0
10
-8.749576
20
0.659324
40
0.644646
50
72.1738
51
85.391685
0
ARC
8
0
10
-8.777678
20
0.387628
40
0.917742
50
85.005761
51
90.100104
0
ARC
8
0
10
-11.071498
20
1.949155
40
0.627718
50
159.584831
51
180.377619
0
ARC
8
0
10
-11.097854
20
1.95647
40
0.600471
50
156.947431
51
159.361772
0
ARC
8
0
10
-11.0896
20
1.955413
40
0.608484
50
134.179335
51
157.160231
0
ARC
8
0
10
-11.06183
20
1.925477
40
0.649307
50
112.334777
51
134.095726
0
ARC
8
0
10
-11.063183
20
1.93398
40
0.64093
50
89.675656
51
112.51179
0
ARC
8
0
10
-8.776978
20
0.855408
40
1.719509
50
79.395025
51
89.75135
0
ARC
8
0
10
-8.875103
20
0.308669
40
2.274972
50
72.819347
51
79.500074
0
ARC
8
0
10
-8.749153
20
0.724336
40
1.84065
50
55.253707
51
72.743016
0
ARC
8
0
10
-8.900101
20
0.487341
40
2.121446
50
53.120102
51
55.551929
0
ARC
8
0
10
-5.913258
20
0.808285
40
1.766623
50
81.646514
51
89.835547
0
ARC
8
0
10
-5.962082
20
0.44332
40
2.134814
50
78.249553
51
81.7731
0
ARC
8
0
10
-5.928375
20
0.624037
40
1.951024
50
66.222212
51
78.137877
0
ARC
8
0
10
-6.003148
20
0.438042
40
2.151387
50
66.037297
51
66.397074
0
ARC
8
0
10
-5.886258
20
0.713662
40
1.852057
50
52.193782
51
65.878705
0
ARC
8
0
10
-5.665618
20
0.99741
40
1.49262
50
34.441409
51
52.208759
0
ARC
8
0
10
-5.801556
20
0.894275
40
1.663078
50
34.658349
51
34.723045
0
ARC
8
0
10
-5.773912
20
0.921072
40
1.625113
50
22.35892
51
34.435478
0
ARC
8
0
10
-6.093858
20
0.782466
40
1.973742
50
17.728802
51
22.546897
0
ARC
8
0
10
-5.831094
20
0.872849
40
1.695946
50
6.700353
51
17.52352
0
ARC
8
0
10
-6.384196
20
0.803544
40
2.25336
50
359.847763
51
6.809641
0
ARC
8
0
10
-6.197579
20
0.802713
40
0.797221
50
359.629426
51
10.026637
0
ARC
8
0
10
-5.915232
20
0.854662
40
0.510145
50
9.802302
51
26.908007
0
ARC
8
0
10
-5.804751
20
0.907903
40
0.387539
50
27.281001
51
43.767143
0
ARC
8
0
10
-5.798693
20
0.906796
40
0.383962
50
44.511708
51
71.523828
0
ARC
8
0
10
-5.872405
20
0.699482
40
0.603965
50
71.124174
51
84.367655
0
ARC
8
0
10
-5.90586
20
0.414788
40
0.890584
50
84.023364
51
90.149774
0
ARC
8
0
10
-8.820373
20
0.832713
40
1.831642
50
4.130396
51
14.954404
0
ARC
8
0
10
-9.193886
20
0.799348
40
2.206598
50
359.953493
51
4.295957
0
LINE
8
0
10
2.778336
20
0.797557
11
2.778336
21
-0.921193
0
LINE
8
0
10
0.996109
20
-2.70342
11
-1.29393
21
-2.70342
0
LINE
8
0
10
-3.071273
20
-0.921193
11
-3.071273
21
0.797557
0
LINE
8
0
10
-1.29393
20
2.5749
11
0.996109
21
2.5749
0
LINE
8
0
10
1.508805
20
-0.921193
11
1.508805
21
0.787791
0
LINE
8
0
10
0.996109
20
1.305369
11
-1.284164
21
1.305369
0
LINE
8
0
10
-1.801742
20
0.797557
11
-1.801742
21
-0.921193
0
LINE
8
0
10
-1.284164
20
-1.433889
11
0.996109
21
-1.433889
0
ARC
8
0
10
0.553815
20
-0.928628
40
2.224533
50
352.165414
51
0.191494
0
ARC
8
0
10
1.07338
20
-1.000138
40
1.700071
50
342.563116
51
352.166026
0
ARC
8
0
10
0.918765
20
-0.952199
40
1.861945
50
333.003411
51
342.581429
0
ARC
8
0
10
1.21417
20
-1.099069
40
1.532063
50
325.422037
51
332.882664
0
ARC
8
0
10
1.241959
20
-1.124485
40
1.494768
50
308.079024
51
325.61964
0
ARC
8
0
10
1.291478
20
-1.180229
40
1.420355
50
307.605997
51
307.893481
0
ARC
8
0
10
1.022921
20
-0.842182
40
1.852057
50
294.121295
51
307.806218
0
ARC
8
0
10
0.984966
20
-0.757202
40
1.945128
50
281.699912
51
294.118717
0
ARC
8
0
10
0.957349
20
-0.625403
40
2.079789
50
275.218811
51
281.708631
0
ARC
8
0
10
0.994143
20
-1.005297
40
1.698124
50
270.066355
51
275.148409
0
ARC
8
0
10
-1.28612
20
-0.954221
40
1.749216
50
260.217067
51
269.74418
0
ARC
8
0
10
-1.175765
20
-0.298636
40
2.414021
50
253.284081
51
260.279829
0
ARC
8
0
10
-1.383777
20
-0.987461
40
1.694474
50
231.062143
51
253.321183
0
ARC
8
0
10
-1.428678
20
-1.039658
40
1.625656
50
213.400345
51
231.136913
0
ARC
8
0
10
-1.128502
20
-0.82991
40
1.991745
50
207.633631
51
213.684102
0
ARC
8
0
10
-1.586605
20
-1.078948
40
1.470411
50
191.65133
51
207.315867
0
ARC
8
0
10
-0.986322
20
-0.950323
40
2.084307
50
181.704228
51
191.781752
0
ARC
8
0
10
-0.458724
20
-0.921852
40
2.612549
50
179.985557
51
181.984227
0
ARC
8
0
10
-0.840213
20
0.808457
40
2.231088
50
170.681857
51
180.279933
0
ARC
8
0
10
-1.498449
20
0.920314
40
1.56343
50
155.876069
51
170.821176
0
ARC
8
0
10
-1.724433
20
1.011735
40
1.319848
50
152.303048
51
155.488577
0
ARC
8
0
10
-1.24544
20
0.770858
40
1.855939
50
139.542709
51
152.591912
0
ARC
8
0
10
-1.474853
20
0.959904
40
1.55872
50
128.666242
51
139.358238
0
ARC
8
0
10
-1.383777
20
0.858942
40
1.694474
50
106.678817
51
128.937857
0
ARC
8
0
10
-1.174206
20
0.164032
40
2.420296
50
99.840797
51
106.709834
0
ARC
8
0
10
-1.285355
20
0.817076
40
1.757866
50
90.422285
51
99.909223
0
ARC
8
0
10
-1.293928
20
1.07267
40
1.50223
50
90.000064
51
90.167148
0
ARC
8
0
10
1.006849
20
0.306175
40
2.268751
50
80.823473
51
90.271229
0
ARC
8
0
10
1.117921
20
0.969343
40
1.596362
50
66.224238
51
80.963108
0
ARC
8
0
10
1.209561
20
1.199608
40
1.348723
50
62.793873
51
65.843119
0
ARC
8
0
10
1.008339
20
0.787574
40
1.807195
50
50.08405
51
63.092502
0
ARC
8
0
10
1.202902
20
1.027278
40
1.498508
50
38.358625
51
49.90888
0
ARC
8
0
10
1.007327
20
0.864539
40
1.75287
50
17.054089
51
38.562585
0
ARC
8
0
10
0.453184
20
0.691127
40
2.333507
50
9.633782
51
17.134399
0
ARC
8
0
10
1.045445
20
0.790885
40
1.732904
50
0.220587
51
9.659041
0
ARC
8
0
10
0.670995
20
0.793145
40
0.837827
50
359.633881
51
9.560362
0
ARC
8
0
10
0.980242
20
0.847304
40
0.523883
50
9.336699
51
25.428861
0
ARC
8
0
10
1.116986
20
0.910738
40
0.373152
50
25.648143
51
45.835603
0
ARC
8
0
10
1.085598
20
0.869971
40
0.424306
50
46.630555
51
73.821925
0
ARC
8
0
10
1.018505
20
0.65498
40
0.649493
50
73.421911
51
86.360587
0
ARC
8
0
10
0.997076
20
0.414877
40
0.890493
50
85.965224
51
90.062212
0
ARC
8
0
10
-1.289411
20
0.507623
40
0.797764
50
89.623131
51
100.218345
0
ARC
8
0
10
-1.342224
20
0.788845
40
0.511637
50
99.984697
51
117.636813
0
ARC
8
0
10
-1.39408
20
0.893923
40
0.394503
50
118.043908
51
134.360709
0
ARC
8
0
10
-1.378024
20
0.883899
40
0.41292
50
134.981006
51
163.861904
0
ARC
8
0
10
-1.165614
20
0.817665
40
0.635387
50
163.448575
51
176.843728
0
ARC
8
0
10
-0.93469
20
0.798295
40
0.867053
50
176.405867
51
180.0488
0
ARC
8
0
10
-1.049816
20
-0.926554
40
0.751945
50
179.591518
51
191.024757
0
ARC
8
0
10
-1.310605
20
-0.979543
40
0.485841
50
190.772423
51
210.482571
0
ARC
8
0
10
-1.389297
20
-1.021719
40
0.396647
50
210.998568
51
224.971814
0
ARC
8
0
10
-1.375636
20
-1.002277
40
0.420072
50
225.531006
51
253.437938
0
ARC
8
0
10
-1.307379
20
-0.788257
40
0.644684
50
253.045319
51
266.299286
0
ARC
8
0
10
-1.28517
20
-0.544207
40
0.889682
50
265.886438
51
270.0648
0
ARC
8
0
10
1.001516
20
-0.627626
40
0.806281
50
269.615761
51
280.003206
0
ARC
8
0
10
1.055534
20
-0.922426
40
0.506583
50
279.778296
51
296.711439
0
ARC
8
0
10
1.113318
20
-1.041934
40
0.373861
50
297.033461
51
315.911951
0
ARC
8
0
10
1.073406
20
-1.010682
40
0.424306
50
316.630555
51
343.821925
0
ARC
8
0
10
0.858415
20
-0.943589
40
0.649493
50
343.421911
51
356.360587
0
ARC
8
0
10
0.618313
20
-0.92216
40
0.890493
50
355.965224
51
0.062212
0
LINE
8
0
10
8.632828
20
2.5749
11
8.632828
21
1.305369
0
LINE
8
0
10
8.632828
20
1.305369
11
6.416031
21
1.305369
0
LINE
8
0
10
6.416031
20
1.305369
11
6.416031
21
-2.70342
0
LINE
8
0
10
6.416031
20
-2.70342
11
5.131852
21
-2.70342
0
LINE
8
0
10
5.131852
20
-2.70342
11
5.131852
21
1.305369
0
LINE
8
0
10
5.131852
20
1.305369
11
3.481461
21
1.305369
0
LINE
8
0
10
3.481461
20
1.305369
11
3.481461
21
2.5749
0
LINE
8
0
10
3.481461
20
2.5749
11
5.131852
21
2.5749
0
LINE
8
0
10
5.131852
20
2.5749
11
5.131852
21
4.298533
0
LINE
8
0
10
5.131852
20
4.298533
11
6.416031
21
4.298533
0
LINE
8
0
10
6.416031
20
4.298533
11
6.416031
21
2.5749
0
LINE
8
0
10
6.416031
20
2.5749
11
8.632828
21
2.5749
0
LINE
8
0
10
10.756852
20
4.806346
11
10.756852
21
3.658885
0
LINE
8
0
10
10.756852
20
3.658885
11
9.48732
21
3.658885
0
LINE
8
0
10
9.48732
20
3.658885
11
9.48732
21
4.806346
0
LINE
8
0
10
9.48732
20
4.806346
11
10.756852
21
4.806346
0
LINE
8
0
10
10.756852
20
2.5749
11
10.756852
21
-2.70342
0
LINE
8
0
10
10.756852
20
-2.70342
11
9.48732
21
-2.70342
0
LINE
8
0
10
9.48732
20
-2.70342
11
9.48732
21
2.5749
0
LINE
8
0
10
9.48732
20
2.5749
11
10.756852
21
2.5749
0
LINE
8
0
10
17.714859
20
0.797557
11
17.714859
21
-0.921193
0
LINE
8
0
10
15.932633
20
-2.70342
11
13.642594
21
-2.70342
0
LINE
8
0
10
11.86525
20
-0.921193
11
11.86525
21
0.797557
0
LINE
8
0
10
13.642594
20
2.5749
11
15.932633
21
2.5749
0
LINE
8
0
10
16.445328
20
-0.921193
11
16.445328
21
0.787791
0
LINE
8
0
10
15.932633
20
1.305369
11
13.652359
21
1.305369
0
LINE
8
0
10
13.134781
20
0.797557
11
13.134781
21
-0.921193
0
LINE
8
0
10
13.652359
20
-1.433889
11
15.932633
21
-1.433889
0
ARC
8
0
10
15.490338
20
-0.928628
40
2.224533
50
352.165414
51
0.191494
0
ARC
8
0
10
16.009903
20
-1.000138
40
1.700071
50
342.563116
51
352.166026
0
ARC
8
0
10
15.855289
20
-0.952199
40
1.861945
50
333.003411
51
342.581429
0
ARC
8
0
10
16.150694
20
-1.099069
40
1.532063
50
325.422037
51
332.882664
0
ARC
8
0
10
16.178483
20
-1.124485
40
1.494768
50
308.079024
51
325.61964
0
ARC
8
0
10
16.228002
20
-1.180229
40
1.420355
50
307.605997
51
307.893481
0
ARC
8
0
10
15.959445
20
-0.842182
40
1.852057
50
294.121295
51
307.806218
0
ARC
8
0
10
15.921489
20
-0.757202
40
1.945128
50
281.699912
51
294.118717
0
ARC
8
0
10
15.893872
20
-0.625403
40
2.079789
50
275.218811
51
281.708631
0
ARC
8
0
10
15.930666
20
-1.005297
40
1.698124
50
270.066355
51
275.148409
0
ARC
8
0
10
13.650404
20
-0.954221
40
1.749216
50
260.217067
51
269.74418
0
ARC
8
0
10
13.760758
20
-0.298636
40
2.414021
50
253.284081
51
260.279829
0
ARC
8
0
10
13.552747
20
-0.987461
40
1.694474
50
231.062143
51
253.321183
0
ARC
8
0
10
13.507845
20
-1.039658
40
1.625656
50
213.400345
51
231.136913
0
ARC
8
0
10
13.808022
20
-0.82991
40
1.991745
50
207.633631
51
213.684102
0
ARC
8
0
10
13.349918
20
-1.078948
40
1.470411
50
191.65133
51
207.315867
0
ARC
8
0
10
13.950202
20
-0.950323
40
2.084307
50
181.704228
51
191.781752
0
ARC
8
0
10
14.477799
20
-0.921852
40
2.612549
50
179.985557
51
181.984227
0
ARC
8
0
10
14.096311
20
0.808457
40
2.231088
50
170.681857
51
180.279933
0
ARC
8
0
10
13.438075
20
0.920314
40
1.56343
50
155.876069
51
170.821176
0
ARC
8
0
10
13.21209
20
1.011735
40
1.319848
50
152.303048
51
155.488577
0
ARC
8
0
10
13.691084
20
0.770858
40
1.855939
50
139.542709
51
152.591912
0
ARC
8
0
10
13.46167
20
0.959904
40
1.55872
50
128.666242
51
139.358238
0
ARC
8
0
10
13.552747
20
0.858942
40
1.694474
50
106.678817
51
128.937857
0
ARC
8
0
10
13.762317
20
0.164032
40
2.420296
50
99.840797
51
106.709834
0
ARC
8
0
10
13.651169
20
0.817076
40
1.757866
50
90.422285
51
99.909223
0
ARC
8
0
10
13.642595
20
1.07267
40
1.50223
50
90.000064
51
90.167148
0
ARC
8
0
10
15.943373
20
0.306175
40
2.268751
50
80.823473
51
90.271229
0
ARC
8
0
10
16.054444
20
0.969343
40
1.596362
50
66.224238
51
80.963108
0
ARC
8
0
10
16.146084
20
1.199608
40
1.348723
50
62.793873
51
65.843119
0
ARC
8
0
10
15.944862
20
0.787574
40
1.807195
50
50.08405
51
63.092502
0
ARC
8
0
10
16.139426
20
1.027278
40
1.498508
50
38.358625
51
49.90888
0
ARC
8
0
10
15.943851
20
0.864539
40
1.75287
50
17.054089
51
38.562585
0
ARC
8
0
10
15.389707
20
0.691127
40
2.333507
50
9.633782
51
17.134399
0
ARC
8
0
10
15.981968
20
0.790885
40
1.732904
50
0.220587
51
9.659041
0
ARC
8
0
10
15.607518
20
0.793145
40
0.837827
50
359.633881
51
9.560362
0
ARC
8
0
10
15.916766
20
0.847304
40
0.523883
50
9.336699
51
25.428861
0
ARC
8
0
10
16.05351
20
0.910738
40
0.373152
50
25.648143
51
45.835603
0
ARC
8
0
10
16.022121
20
0.869971
40
0.424306
50
46.630555
51
73.821925
0
ARC
8
0
10
15.955029
20
0.65498
40
0.649493
50
73.421911
51
86.360587
0
ARC
8
0
10
15.9336
20
0.414877
40
0.890493
50
85.965224
51
90.062212
0
ARC
8
0
10
13.647112
20
0.507623
40
0.797764
50
89.623131
51
100.218345
0
ARC
8
0
10
13.594299
20
0.788845
40
0.511637
50
99.984697
51
117.636813
0
ARC
8
0
10
13.542443
20
0.893923
40
0.394503
50
118.043908
51
134.360709
0
ARC
8
0
10
13.558499
20
0.883899
40
0.41292
50
134.981006
51
163.861904
0
ARC
8
0
10
13.77091
20
0.817665
40
0.635387
50
163.448575
51
176.843728
0
ARC
8
0
10
14.001834
20
0.798295
40
0.867053
50
176.405867
51
180.0488
0
ARC
8
0
10
13.886707
20
-0.926554
40
0.751945
50
179.591518
51
191.024757
0
ARC
8
0
10
13.625919
20
-0.979543
40
0.485841
50
190.772423
51
210.482571
0
ARC
8
0
10
13.547227
20
-1.021719
40
0.396647
50
210.998568
51
224.971814
0
ARC
8
0
10
13.560887
20
-1.002277
40
0.420072
50
225.531006
51
253.437938
0
ARC
8
0
10
13.629144
20
-0.788257
40
0.644684
50
253.045319
51
266.299286
0
ARC
8
0
10
13.651353
20
-0.544207
40
0.889682
50
265.886438
51
270.0648
0
ARC
8
0
10
15.93804
20
-0.627626
40
0.806281
50
269.615761
51
280.003206
0
ARC
8
0
10
15.992057
20
-0.922426
40
0.506583
50
279.778296
51
296.711439
0
ARC
8
0
10
16.049841
20
-1.041934
40
0.373861
50
297.033461
51
315.911951
0
ARC
8
0
10
16.00993
20
-1.010682
40
0.424306
50
316.630555
51
343.821925
0
ARC
8
0
10
15.794939
20
-0.943589
40
0.649493
50
343.421911
51
356.360587
0
ARC
8
0
10
15.554836
20
-0.92216
40
0.890493
50
355.965224
51
0.062212
0
LINE
8
0
10
24.64357
20
0.226267
11
24.64357
21
-2.70342
0
LINE
8
0
10
24.64357
20
-2.70342
11
23.374039
21
-2.70342
0
LINE
8
0
10
23.374039
20
-2.70342
11
23.374039
21
0.226267
0
LINE
8
0
10
22.285172
20
1.305369
11
20.063492
21
1.305369
0
LINE
8
0
10
20.063492
20
1.305369
11
20.063492
21
-2.70342
0
LINE
8
0
10
20.063492
20
-2.70342
11
18.793961
21
-2.70342
0
LINE
8
0
10
18.793961
20
-2.70342
11
18.793961
21
1.945017
0
LINE
8
0
10
19.433609
20
2.5749
11
22.294937
21
2.5749
0
ARC
8
0
10
22.12835
20
0.232381
40
1.245704
50
359.718797
51
11.295927
0
ARC
8
0
10
22.369971
20
0.278657
40
0.999701
50
11.407611
51
23.235167
0
ARC
8
0
10
22.325209
20
0.264123
40
1.046575
50
22.999573
51
43.518517
0
ARC
8
0
10
22.36169
20
0.293445
40
0.999937
50
43.739489
51
45.971978
0
ARC
8
0
10
22.357986
20
0.286844
40
1.007259
50
46.08148
51
69.397814
0
ARC
8
0
10
22.301515
20
0.143433
40
1.161373
50
69.279573
51
87.305407
0
ARC
8
0
10
22.285538
20
-0.043333
40
1.348702
50
87.000451
51
90.015567
0
ARC
8
0
10
19.421666
20
1.949155
40
0.627718
50
159.584831
51
180.377619
0
ARC
8
0
10
19.39531
20
1.95647
40
0.600471
50
156.947431
51
159.361772
0
ARC
8
0
10
19.403564
20
1.955413
40
0.608484
50
134.179335
51
157.160231
0
ARC
8
0
10
19.431334
20
1.925477
40
0.649307
50
112.334777
51
134.095726
0
ARC
8
0
10
19.429981
20
1.93398
40
0.64093
50
89.675656
51
112.51179
0
ARC
8
0
10
22.288356
20
0.179221
40
2.395689
50
82.030003
51
89.842595
0
ARC
8
0
10
22.223544
20
-0.325893
40
2.904916
50
78.547952
51
82.145397
0
ARC
8
0
10
22.318501
20
0.167496
40
2.402501
50
65.591199
51
78.431211
0
ARC
8
0
10
22.222398
20
-0.065637
40
2.654525
50
65.394636
51
65.781751
0
ARC
8
0
10
22.262899
20
0.035108
40
2.54607
50
52.134589
51
65.279333
0
ARC
8
0
10
22.589474
20
0.457401
40
2.012235
50
35.893263
51
52.094965
0
ARC
8
0
10
22.389335
20
0.299742
40
2.266825
50
35.025918
51
36.155749
0
ARC
8
0
10
22.542419
20
0.417051
40
2.074153
50
21.838573
51
34.799354
0
ARC
8
0
10
22.150404
20
0.250157
40
2.500135
50
17.398865
51
22.046908
0
ARC
8
0
10
22.357599
20
0.323509
40
2.2805
50
6.594886
51
17.196855
0
ARC
8
0
10
21.631155
20
0.233975
40
3.012425
50
359.853405
51
6.699702
0
LINE
8
0
10
-23.6366
20
4.16039
11
-23.6366
21
-2.55296
0
LINE
8
0
10
25.2397
20
-5.55296
11
-20.6366
21
-5.55296
0
LINE
8
0
10
28.2397
20
-2.55296
11
28.2397
21
4.16039
0
ARC
8
0
10
-20.6366
20
-2.55296
40
3.000000
50
180.000000
51
270.000000
0
ARC
8
0
10
25.2397
20
-2.55296
40
3.000000
50
270.000000
51
0.000000
0
ARC
8
0
10
25.2397
20
4.16039
40
3.000000
50
0.000000
51
90.000000
0
ARC
8
0
10
-20.6366
20
4.16039
40
3.000000
50
90.000000
51
180.000000
0
LINE
8
0
10
25.2397
20
7.16039
11
-20.6366
21
7.16039
0
ENDSEC
0
EOF